solid OpenSCAD_Model
  facet normal -0.743146 -0.669129 0
    outer loop
      vertex -6.35674 -7.05988 0
      vertex -7.68566 -5.58396 25
      vertex -7.68566 -5.58396 0
    endloop
  endfacet
  facet normal -0.743146 -0.669129 0
    outer loop
      vertex -7.68566 -5.58396 25
      vertex -6.35674 -7.05988 0
      vertex -6.35674 -7.05988 25
    endloop
  endfacet
  facet normal 0.406738 0.913545 -0
    outer loop
      vertex 4.75 8.22724 0
      vertex 2.93566 9.03504 25
      vertex 4.75 8.22724 25
    endloop
  endfacet
  facet normal 0.406738 0.913545 0
    outer loop
      vertex 2.93566 9.03504 25
      vertex 4.75 8.22724 0
      vertex 2.93566 9.03504 0
    endloop
  endfacet
  facet normal -0.587784 -0.809018 0
    outer loop
      vertex -6.35674 -7.05988 0
      vertex -4.75 -8.22724 25
      vertex -6.35674 -7.05988 25
    endloop
  endfacet
  facet normal -0.587784 -0.809018 -0
    outer loop
      vertex -4.75 -8.22724 25
      vertex -6.35674 -7.05988 0
      vertex -4.75 -8.22724 0
    endloop
  endfacet
  facet normal 0.994522 -0.10453 0
    outer loop
      vertex 9.2924 -1.97516 25
      vertex 9.5 0 0
      vertex 9.5 0 25
    endloop
  endfacet
  facet normal 0.994522 -0.10453 0
    outer loop
      vertex 9.5 0 0
      vertex 9.2924 -1.97516 25
      vertex 9.2924 -1.97516 0
    endloop
  endfacet
  facet normal -0.994522 0.10453 0
    outer loop
      vertex -9.5 0 0
      vertex -9.2924 1.97516 25
      vertex -9.2924 1.97516 0
    endloop
  endfacet
  facet normal -0.994522 0.10453 0
    outer loop
      vertex -9.2924 1.97516 25
      vertex -9.5 0 0
      vertex -9.5 0 25
    endloop
  endfacet
  facet normal 0.866025 0.5 0
    outer loop
      vertex 8.67868 3.864 25
      vertex 7.68566 5.58396 0
      vertex 7.68566 5.58396 25
    endloop
  endfacet
  facet normal 0.866025 0.5 0
    outer loop
      vertex 7.68566 5.58396 0
      vertex 8.67868 3.864 25
      vertex 8.67868 3.864 0
    endloop
  endfacet
  facet normal 0.587784 0.809018 -0
    outer loop
      vertex 6.35674 7.05988 0
      vertex 4.75 8.22724 25
      vertex 6.35674 7.05988 25
    endloop
  endfacet
  facet normal 0.587784 0.809018 0
    outer loop
      vertex 4.75 8.22724 25
      vertex 6.35674 7.05988 0
      vertex 4.75 8.22724 0
    endloop
  endfacet
  facet normal 0.207911 0.978148 -0
    outer loop
      vertex 2.93566 9.03504 0
      vertex 0.99302 9.44796 25
      vertex 2.93566 9.03504 25
    endloop
  endfacet
  facet normal 0.207911 0.978148 0
    outer loop
      vertex 0.99302 9.44796 25
      vertex 2.93566 9.03504 0
      vertex 0.99302 9.44796 0
    endloop
  endfacet
  facet normal 0.743146 0.669129 0
    outer loop
      vertex 7.68566 5.58396 25
      vertex 6.35674 7.05988 0
      vertex 6.35674 7.05988 25
    endloop
  endfacet
  facet normal 0.743146 0.669129 0
    outer loop
      vertex 6.35674 7.05988 0
      vertex 7.68566 5.58396 25
      vertex 7.68566 5.58396 0
    endloop
  endfacet
  facet normal 0.994522 0.10453 0
    outer loop
      vertex 9.5 0 25
      vertex 9.2924 1.97516 0
      vertex 9.2924 1.97516 25
    endloop
  endfacet
  facet normal 0.994522 0.10453 0
    outer loop
      vertex 9.2924 1.97516 0
      vertex 9.5 0 25
      vertex 9.5 0 0
    endloop
  endfacet
  facet normal -0.951057 -0.309016 0
    outer loop
      vertex -8.67868 -3.864 0
      vertex -9.2924 -1.97516 25
      vertex -9.2924 -1.97516 0
    endloop
  endfacet
  facet normal -0.951057 -0.309016 0
    outer loop
      vertex -9.2924 -1.97516 25
      vertex -8.67868 -3.864 0
      vertex -8.67868 -3.864 25
    endloop
  endfacet
  facet normal 0 0 1
    outer loop
      vertex 2.6 0 25
      vertex 9.5 0 25
      vertex 9.2924 1.97516 25
    endloop
  endfacet
  facet normal 0 0 1
    outer loop
      vertex 2.6 0 25
      vertex 9.2924 1.97516 25
      vertex 8.67868 3.864 25
    endloop
  endfacet
  facet normal 0 0 1
    outer loop
      vertex 9.5 0 25
      vertex 2.6 0 25
      vertex 9.2924 -1.97516 25
    endloop
  endfacet
  facet normal 0 0 1
    outer loop
      vertex 1.99172 1.67125 25
      vertex 8.67868 3.864 25
      vertex 7.68566 5.58396 25
    endloop
  endfacet
  facet normal 0 0 1
    outer loop
      vertex 9.2924 -1.97516 25
      vertex 2.6 0 25
      vertex 8.67868 -3.864 25
    endloop
  endfacet
  facet normal 0 0 1
    outer loop
      vertex 1.99172 1.67125 25
      vertex 7.68566 5.58396 25
      vertex 6.35674 7.05988 25
    endloop
  endfacet
  facet normal -0 0 1
    outer loop
      vertex 1.99172 -1.67125 25
      vertex 8.67868 -3.864 25
      vertex 2.6 0 25
    endloop
  endfacet
  facet normal 0 0 1
    outer loop
      vertex 1.99172 1.67125 25
      vertex 6.35674 7.05988 25
      vertex 4.75 8.22724 25
    endloop
  endfacet
  facet normal 0 0 1
    outer loop
      vertex 8.67868 -3.864 25
      vertex 1.99172 -1.67125 25
      vertex 7.68566 -5.58396 25
    endloop
  endfacet
  facet normal 0 0 1
    outer loop
      vertex 0.451485 2.5605 25
      vertex 4.75 8.22724 25
      vertex 2.93566 9.03504 25
    endloop
  endfacet
  facet normal 0 0 1
    outer loop
      vertex 7.68566 -5.58396 25
      vertex 1.99172 -1.67125 25
      vertex 6.35674 -7.05988 25
    endloop
  endfacet
  facet normal 0 0 1
    outer loop
      vertex 6.35674 -7.05988 25
      vertex 1.99172 -1.67125 25
      vertex 4.75 -8.22724 25
    endloop
  endfacet
  facet normal 0 0 1
    outer loop
      vertex 8.67868 3.864 25
      vertex 1.99172 1.67125 25
      vertex 2.6 0 25
    endloop
  endfacet
  facet normal 0 0 1
    outer loop
      vertex 0.451485 2.5605 25
      vertex 2.93566 9.03504 25
      vertex 0.99302 9.44796 25
    endloop
  endfacet
  facet normal 0 0 1
    outer loop
      vertex 4.75 8.22724 25
      vertex 0.451485 2.5605 25
      vertex 1.99172 1.67125 25
    endloop
  endfacet
  facet normal -0 0 1
    outer loop
      vertex -0.99302 9.44796 25
      vertex 0.451485 2.5605 25
      vertex 0.99302 9.44796 25
    endloop
  endfacet
  facet normal 0 0 1
    outer loop
      vertex -0.99302 9.44796 25
      vertex -1.3 2.25167 25
      vertex 0.451485 2.5605 25
    endloop
  endfacet
  facet normal -0 0 1
    outer loop
      vertex -2.93566 9.03504 25
      vertex -1.3 2.25167 25
      vertex -0.99302 9.44796 25
    endloop
  endfacet
  facet normal -0 0 1
    outer loop
      vertex -6.35674 7.05988 25
      vertex -1.3 2.25167 25
      vertex -4.75 8.22724 25
    endloop
  endfacet
  facet normal -0 0 1
    outer loop
      vertex -4.75 8.22724 25
      vertex -1.3 2.25167 25
      vertex -2.93566 9.03504 25
    endloop
  endfacet
  facet normal -0 0 1
    outer loop
      vertex 0.451485 -2.5605 25
      vertex 4.75 -8.22724 25
      vertex 1.99172 -1.67125 25
    endloop
  endfacet
  facet normal 0 0 1
    outer loop
      vertex 4.75 -8.22724 25
      vertex 0.451485 -2.5605 25
      vertex 2.93566 -9.03504 25
    endloop
  endfacet
  facet normal 0 0 1
    outer loop
      vertex 2.93566 -9.03504 25
      vertex 0.451485 -2.5605 25
      vertex 0.99302 -9.44796 25
    endloop
  endfacet
  facet normal 0 0 1
    outer loop
      vertex 0.451485 -2.5605 25
      vertex -0.99302 -9.44796 25
      vertex 0.99302 -9.44796 25
    endloop
  endfacet
  facet normal 0 0 1
    outer loop
      vertex -1.3 -2.25167 25
      vertex -0.99302 -9.44796 25
      vertex 0.451485 -2.5605 25
    endloop
  endfacet
  facet normal 0 0 1
    outer loop
      vertex -7.68566 -5.58396 25
      vertex -1.3 -2.25167 25
      vertex -2.4432 -0.889252 25
    endloop
  endfacet
  facet normal 0 0 1
    outer loop
      vertex -1.3 -2.25167 25
      vertex -2.93566 -9.03504 25
      vertex -0.99302 -9.44796 25
    endloop
  endfacet
  facet normal -0 0 1
    outer loop
      vertex -7.68566 5.58396 25
      vertex -1.3 2.25167 25
      vertex -6.35674 7.05988 25
    endloop
  endfacet
  facet normal 0 0 1
    outer loop
      vertex -1.3 2.25167 25
      vertex -7.68566 5.58396 25
      vertex -2.4432 0.889252 25
    endloop
  endfacet
  facet normal 0 0 1
    outer loop
      vertex -1.3 -2.25167 25
      vertex -4.75 -8.22724 25
      vertex -2.93566 -9.03504 25
    endloop
  endfacet
  facet normal -0 0 1
    outer loop
      vertex -8.67868 3.864 25
      vertex -2.4432 0.889252 25
      vertex -7.68566 5.58396 25
    endloop
  endfacet
  facet normal 0 0 1
    outer loop
      vertex -1.3 -2.25167 25
      vertex -6.35674 -7.05988 25
      vertex -4.75 -8.22724 25
    endloop
  endfacet
  facet normal -0 0 1
    outer loop
      vertex -9.2924 1.97516 25
      vertex -2.4432 0.889252 25
      vertex -8.67868 3.864 25
    endloop
  endfacet
  facet normal 0 0 1
    outer loop
      vertex -1.3 -2.25167 25
      vertex -7.68566 -5.58396 25
      vertex -6.35674 -7.05988 25
    endloop
  endfacet
  facet normal 0 0 1
    outer loop
      vertex -9.5 0 25
      vertex -2.4432 0.889252 25
      vertex -9.2924 1.97516 25
    endloop
  endfacet
  facet normal 0 0 1
    outer loop
      vertex -2.4432 -0.889252 25
      vertex -8.67868 -3.864 25
      vertex -7.68566 -5.58396 25
    endloop
  endfacet
  facet normal 0 0 1
    outer loop
      vertex -2.4432 0.889252 25
      vertex -9.5 0 25
      vertex -2.4432 -0.889252 25
    endloop
  endfacet
  facet normal 0 0 1
    outer loop
      vertex -2.4432 -0.889252 25
      vertex -9.2924 -1.97516 25
      vertex -8.67868 -3.864 25
    endloop
  endfacet
  facet normal 0 0 1
    outer loop
      vertex -2.4432 -0.889252 25
      vertex -9.5 0 25
      vertex -9.2924 -1.97516 25
    endloop
  endfacet
  facet normal -0.207911 0.978148 0
    outer loop
      vertex -0.99302 9.44796 0
      vertex -2.93566 9.03504 25
      vertex -0.99302 9.44796 25
    endloop
  endfacet
  facet normal -0.207911 0.978148 0
    outer loop
      vertex -2.93566 9.03504 25
      vertex -0.99302 9.44796 0
      vertex -2.93566 9.03504 0
    endloop
  endfacet
  facet normal 0.951057 0.309016 0
    outer loop
      vertex 9.2924 1.97516 25
      vertex 8.67868 3.864 0
      vertex 8.67868 3.864 25
    endloop
  endfacet
  facet normal 0.951057 0.309016 0
    outer loop
      vertex 8.67868 3.864 0
      vertex 9.2924 1.97516 25
      vertex 9.2924 1.97516 0
    endloop
  endfacet
  facet normal 0.951057 -0.309016 0
    outer loop
      vertex 8.67868 -3.864 25
      vertex 9.2924 -1.97516 0
      vertex 9.2924 -1.97516 25
    endloop
  endfacet
  facet normal 0.951057 -0.309016 0
    outer loop
      vertex 9.2924 -1.97516 0
      vertex 8.67868 -3.864 25
      vertex 8.67868 -3.864 0
    endloop
  endfacet
  facet normal 0.587784 -0.809018 0
    outer loop
      vertex 4.75 -8.22724 0
      vertex 6.35674 -7.05988 25
      vertex 4.75 -8.22724 25
    endloop
  endfacet
  facet normal 0.587784 -0.809018 0
    outer loop
      vertex 6.35674 -7.05988 25
      vertex 4.75 -8.22724 0
      vertex 6.35674 -7.05988 0
    endloop
  endfacet
  facet normal -0.951057 0.309016 0
    outer loop
      vertex -9.2924 1.97516 0
      vertex -8.67868 3.864 25
      vertex -8.67868 3.864 0
    endloop
  endfacet
  facet normal -0.951057 0.309016 0
    outer loop
      vertex -8.67868 3.864 25
      vertex -9.2924 1.97516 0
      vertex -9.2924 1.97516 25
    endloop
  endfacet
  facet normal -0.406738 -0.913545 0
    outer loop
      vertex -4.75 -8.22724 0
      vertex -2.93566 -9.03504 25
      vertex -4.75 -8.22724 25
    endloop
  endfacet
  facet normal -0.406738 -0.913545 -0
    outer loop
      vertex -2.93566 -9.03504 25
      vertex -4.75 -8.22724 0
      vertex -2.93566 -9.03504 0
    endloop
  endfacet
  facet normal -0.406738 0.913545 0
    outer loop
      vertex -2.93566 9.03504 0
      vertex -4.75 8.22724 25
      vertex -2.93566 9.03504 25
    endloop
  endfacet
  facet normal -0.406738 0.913545 0
    outer loop
      vertex -4.75 8.22724 25
      vertex -2.93566 9.03504 0
      vertex -4.75 8.22724 0
    endloop
  endfacet
  facet normal 0.866025 -0.5 0
    outer loop
      vertex 7.68566 -5.58396 25
      vertex 8.67868 -3.864 0
      vertex 8.67868 -3.864 25
    endloop
  endfacet
  facet normal 0.866025 -0.5 0
    outer loop
      vertex 8.67868 -3.864 0
      vertex 7.68566 -5.58396 25
      vertex 7.68566 -5.58396 0
    endloop
  endfacet
  facet normal -0.743146 0.669129 0
    outer loop
      vertex -7.68566 5.58396 0
      vertex -6.35674 7.05988 25
      vertex -6.35674 7.05988 0
    endloop
  endfacet
  facet normal -0.743146 0.669129 0
    outer loop
      vertex -6.35674 7.05988 25
      vertex -7.68566 5.58396 0
      vertex -7.68566 5.58396 25
    endloop
  endfacet
  facet normal -0.866025 -0.5 0
    outer loop
      vertex -7.68566 -5.58396 0
      vertex -8.67868 -3.864 25
      vertex -8.67868 -3.864 0
    endloop
  endfacet
  facet normal -0.866025 -0.5 0
    outer loop
      vertex -8.67868 -3.864 25
      vertex -7.68566 -5.58396 0
      vertex -7.68566 -5.58396 25
    endloop
  endfacet
  facet normal -0.866025 0.5 0
    outer loop
      vertex -8.67868 3.864 0
      vertex -7.68566 5.58396 25
      vertex -7.68566 5.58396 0
    endloop
  endfacet
  facet normal -0.866025 0.5 0
    outer loop
      vertex -7.68566 5.58396 25
      vertex -8.67868 3.864 0
      vertex -8.67868 3.864 25
    endloop
  endfacet
  facet normal 0.743146 -0.669129 0
    outer loop
      vertex 6.35674 -7.05988 25
      vertex 7.68566 -5.58396 0
      vertex 7.68566 -5.58396 25
    endloop
  endfacet
  facet normal 0.743146 -0.669129 0
    outer loop
      vertex 7.68566 -5.58396 0
      vertex 6.35674 -7.05988 25
      vertex 6.35674 -7.05988 0
    endloop
  endfacet
  facet normal 0 0 -1
    outer loop
      vertex 4 0 0
      vertex 9.5 0 0
      vertex 9.2924 -1.97516 0
    endloop
  endfacet
  facet normal 0 0 -1
    outer loop
      vertex 3.54182 -1.85889 0
      vertex 9.2924 -1.97516 0
      vertex 8.67868 -3.864 0
    endloop
  endfacet
  facet normal 0 0 -1
    outer loop
      vertex 9.5 0 0
      vertex 4 0 0
      vertex 9.2924 1.97516 0
    endloop
  endfacet
  facet normal 0 0 -1
    outer loop
      vertex 3.54182 -1.85889 0
      vertex 8.67868 -3.864 0
      vertex 7.68566 -5.58396 0
    endloop
  endfacet
  facet normal 0 0 -1
    outer loop
      vertex 3.54182 1.85889 0
      vertex 9.2924 1.97516 0
      vertex 4 0 0
    endloop
  endfacet
  facet normal 0 0 -1
    outer loop
      vertex 2.27226 -3.29193 0
      vertex 7.68566 -5.58396 0
      vertex 6.35674 -7.05988 0
    endloop
  endfacet
  facet normal -0 0 -1
    outer loop
      vertex 9.2924 1.97516 0
      vertex 3.54182 1.85889 0
      vertex 8.67868 3.864 0
    endloop
  endfacet
  facet normal 0 0 -1
    outer loop
      vertex 2.27226 -3.29193 0
      vertex 6.35674 -7.05988 0
      vertex 4.75 -8.22724 0
    endloop
  endfacet
  facet normal -0 0 -1
    outer loop
      vertex 8.67868 3.864 0
      vertex 3.54182 1.85889 0
      vertex 7.68566 5.58396 0
    endloop
  endfacet
  facet normal 0 0 -1
    outer loop
      vertex 2.27226 3.29193 0
      vertex 7.68566 5.58396 0
      vertex 3.54182 1.85889 0
    endloop
  endfacet
  facet normal 0 0 -1
    outer loop
      vertex 9.2924 -1.97516 0
      vertex 3.54182 -1.85889 0
      vertex 4 0 0
    endloop
  endfacet
  facet normal 0 0 -1
    outer loop
      vertex 2.27226 -3.29193 0
      vertex 4.75 -8.22724 0
      vertex 2.93566 -9.03504 0
    endloop
  endfacet
  facet normal 0 0 -1
    outer loop
      vertex 7.68566 -5.58396 0
      vertex 2.27226 -3.29193 0
      vertex 3.54182 -1.85889 0
    endloop
  endfacet
  facet normal 0 0 -1
    outer loop
      vertex 0.482146 -3.97083 0
      vertex 2.93566 -9.03504 0
      vertex 0.99302 -9.44796 0
    endloop
  endfacet
  facet normal 0 0 -1
    outer loop
      vertex 2.93566 -9.03504 0
      vertex 0.482146 -3.97083 0
      vertex 2.27226 -3.29193 0
    endloop
  endfacet
  facet normal 0 0 -1
    outer loop
      vertex -0.99302 -9.44796 0
      vertex 0.482146 -3.97083 0
      vertex 0.99302 -9.44796 0
    endloop
  endfacet
  facet normal 0 0 -1
    outer loop
      vertex -0.99302 -9.44796 0
      vertex -1.41842 -3.74006 0
      vertex 0.482146 -3.97083 0
    endloop
  endfacet
  facet normal 0 0 -1
    outer loop
      vertex -2.93566 -9.03504 0
      vertex -1.41842 -3.74006 0
      vertex -0.99302 -9.44796 0
    endloop
  endfacet
  facet normal 0 0 -1
    outer loop
      vertex -4.75 -8.22724 0
      vertex -1.41842 -3.74006 0
      vertex -2.93566 -9.03504 0
    endloop
  endfacet
  facet normal -0 0 -1
    outer loop
      vertex -1.41842 -3.74006 0
      vertex -4.75 -8.22724 0
      vertex -2.99404 -2.65249 0
    endloop
  endfacet
  facet normal 0 0 -1
    outer loop
      vertex -7.68566 -5.58396 0
      vertex -2.99404 -2.65249 0
      vertex -6.35674 -7.05988 0
    endloop
  endfacet
  facet normal 0 0 -1
    outer loop
      vertex -6.35674 -7.05988 0
      vertex -2.99404 -2.65249 0
      vertex -4.75 -8.22724 0
    endloop
  endfacet
  facet normal -0 0 -1
    outer loop
      vertex 7.68566 5.58396 0
      vertex 2.27226 3.29193 0
      vertex 6.35674 7.05988 0
    endloop
  endfacet
  facet normal -0 0 -1
    outer loop
      vertex 6.35674 7.05988 0
      vertex 2.27226 3.29193 0
      vertex 4.75 8.22724 0
    endloop
  endfacet
  facet normal -0 0 -1
    outer loop
      vertex 4.75 8.22724 0
      vertex 2.27226 3.29193 0
      vertex 2.93566 9.03504 0
    endloop
  endfacet
  facet normal 0 0 -1
    outer loop
      vertex 0.482146 3.97083 0
      vertex 2.93566 9.03504 0
      vertex 2.27226 3.29193 0
    endloop
  endfacet
  facet normal -0 0 -1
    outer loop
      vertex 2.93566 9.03504 0
      vertex 0.482146 3.97083 0
      vertex 0.99302 9.44796 0
    endloop
  endfacet
  facet normal 0 0 -1
    outer loop
      vertex 0.482146 3.97083 0
      vertex -0.99302 9.44796 0
      vertex 0.99302 9.44796 0
    endloop
  endfacet
  facet normal 0 0 -1
    outer loop
      vertex -1.41842 3.74006 0
      vertex -0.99302 9.44796 0
      vertex 0.482146 3.97083 0
    endloop
  endfacet
  facet normal 0 0 -1
    outer loop
      vertex -1.41842 3.74006 0
      vertex -2.93566 9.03504 0
      vertex -0.99302 9.44796 0
    endloop
  endfacet
  facet normal 0 0 -1
    outer loop
      vertex -4.75 8.22724 0
      vertex -1.41842 3.74006 0
      vertex -2.99404 2.65249 0
    endloop
  endfacet
  facet normal 0 0 -1
    outer loop
      vertex -8.67868 3.864 0
      vertex -2.99404 2.65249 0
      vertex -3.88377 0.957262 0
    endloop
  endfacet
  facet normal 0 0 -1
    outer loop
      vertex -1.41842 3.74006 0
      vertex -4.75 8.22724 0
      vertex -2.93566 9.03504 0
    endloop
  endfacet
  facet normal 0 0 -1
    outer loop
      vertex -8.67868 -3.864 0
      vertex -2.99404 -2.65249 0
      vertex -7.68566 -5.58396 0
    endloop
  endfacet
  facet normal -0 0 -1
    outer loop
      vertex -2.99404 -2.65249 0
      vertex -8.67868 -3.864 0
      vertex -3.88377 -0.957262 0
    endloop
  endfacet
  facet normal 0 0 -1
    outer loop
      vertex -2.99404 2.65249 0
      vertex -6.35674 7.05988 0
      vertex -4.75 8.22724 0
    endloop
  endfacet
  facet normal 0 0 -1
    outer loop
      vertex -9.2924 -1.97516 0
      vertex -3.88377 -0.957262 0
      vertex -8.67868 -3.864 0
    endloop
  endfacet
  facet normal 0 0 -1
    outer loop
      vertex -2.99404 2.65249 0
      vertex -7.68566 5.58396 0
      vertex -6.35674 7.05988 0
    endloop
  endfacet
  facet normal 0 0 -1
    outer loop
      vertex -9.5 0 0
      vertex -3.88377 -0.957262 0
      vertex -9.2924 -1.97516 0
    endloop
  endfacet
  facet normal 0 0 -1
    outer loop
      vertex -2.99404 2.65249 0
      vertex -8.67868 3.864 0
      vertex -7.68566 5.58396 0
    endloop
  endfacet
  facet normal 0 0 -1
    outer loop
      vertex -3.88377 -0.957262 0
      vertex -9.5 0 0
      vertex -3.88377 0.957262 0
    endloop
  endfacet
  facet normal 0 0 -1
    outer loop
      vertex -3.88377 0.957262 0
      vertex -9.2924 1.97516 0
      vertex -8.67868 3.864 0
    endloop
  endfacet
  facet normal -0 0 -1
    outer loop
      vertex -3.88377 0.957262 0
      vertex -9.5 0 0
      vertex -9.2924 1.97516 0
    endloop
  endfacet
  facet normal 0 -1 0
    outer loop
      vertex -0.99302 -9.44796 0
      vertex 0.99302 -9.44796 25
      vertex -0.99302 -9.44796 25
    endloop
  endfacet
  facet normal 0 -1 -0
    outer loop
      vertex 0.99302 -9.44796 25
      vertex -0.99302 -9.44796 0
      vertex 0.99302 -9.44796 0
    endloop
  endfacet
  facet normal 0.406738 -0.913545 0
    outer loop
      vertex 2.93566 -9.03504 0
      vertex 4.75 -8.22724 25
      vertex 2.93566 -9.03504 25
    endloop
  endfacet
  facet normal 0.406738 -0.913545 0
    outer loop
      vertex 4.75 -8.22724 25
      vertex 2.93566 -9.03504 0
      vertex 4.75 -8.22724 0
    endloop
  endfacet
  facet normal 0 1 -0
    outer loop
      vertex 0.99302 9.44796 0
      vertex -0.99302 9.44796 25
      vertex 0.99302 9.44796 25
    endloop
  endfacet
  facet normal 0 1 0
    outer loop
      vertex -0.99302 9.44796 25
      vertex 0.99302 9.44796 0
      vertex -0.99302 9.44796 0
    endloop
  endfacet
  facet normal -0.587784 0.809018 0
    outer loop
      vertex -4.75 8.22724 0
      vertex -6.35674 7.05988 25
      vertex -4.75 8.22724 25
    endloop
  endfacet
  facet normal -0.587784 0.809018 0
    outer loop
      vertex -6.35674 7.05988 25
      vertex -4.75 8.22724 0
      vertex -6.35674 7.05988 0
    endloop
  endfacet
  facet normal -0.994522 -0.10453 0
    outer loop
      vertex -9.2924 -1.97516 0
      vertex -9.5 0 25
      vertex -9.5 0 0
    endloop
  endfacet
  facet normal -0.994522 -0.10453 0
    outer loop
      vertex -9.5 0 25
      vertex -9.2924 -1.97516 0
      vertex -9.2924 -1.97516 25
    endloop
  endfacet
  facet normal 0.207911 -0.978148 0
    outer loop
      vertex 0.99302 -9.44796 0
      vertex 2.93566 -9.03504 25
      vertex 0.99302 -9.44796 25
    endloop
  endfacet
  facet normal 0.207911 -0.978148 0
    outer loop
      vertex 2.93566 -9.03504 25
      vertex 0.99302 -9.44796 0
      vertex 2.93566 -9.03504 0
    endloop
  endfacet
  facet normal -0.207911 -0.978148 0
    outer loop
      vertex -2.93566 -9.03504 0
      vertex -0.99302 -9.44796 25
      vertex -2.93566 -9.03504 25
    endloop
  endfacet
  facet normal -0.207911 -0.978148 -0
    outer loop
      vertex -0.99302 -9.44796 25
      vertex -2.93566 -9.03504 0
      vertex -0.99302 -9.44796 0
    endloop
  endfacet
  facet normal -0.939694 0.342018 0
    outer loop
      vertex 1.99172 -1.67125 15.9
      vertex 2.6 0 25
      vertex 2.6 0 15.9
    endloop
  endfacet
  facet normal -0.939694 0.342018 0
    outer loop
      vertex 2.6 0 25
      vertex 1.99172 -1.67125 15.9
      vertex 1.99172 -1.67125 25
    endloop
  endfacet
  facet normal -0.499998 -0.866027 0
    outer loop
      vertex 0.451485 2.5605 15.9
      vertex 1.99172 1.67125 25
      vertex 0.451485 2.5605 25
    endloop
  endfacet
  facet normal -0.499998 -0.866027 -0
    outer loop
      vertex 1.99172 1.67125 25
      vertex 0.451485 2.5605 15.9
      vertex 1.99172 1.67125 15.9
    endloop
  endfacet
  facet normal -0.939694 -0.342018 0
    outer loop
      vertex 2.6 0 15.9
      vertex 1.99172 1.67125 25
      vertex 1.99172 1.67125 15.9
    endloop
  endfacet
  facet normal -0.939694 -0.342018 0
    outer loop
      vertex 1.99172 1.67125 25
      vertex 2.6 0 15.9
      vertex 2.6 0 25
    endloop
  endfacet
  facet normal 0.173646 -0.984808 0
    outer loop
      vertex -1.3 2.25167 15.9
      vertex 0.451485 2.5605 25
      vertex -1.3 2.25167 25
    endloop
  endfacet
  facet normal 0.173646 -0.984808 0
    outer loop
      vertex 0.451485 2.5605 25
      vertex -1.3 2.25167 15.9
      vertex 0.451485 2.5605 15.9
    endloop
  endfacet
  facet normal 0.766046 0.642786 0
    outer loop
      vertex -1.3 -2.25167 25
      vertex -2.4432 -0.889252 15.9
      vertex -2.4432 -0.889252 25
    endloop
  endfacet
  facet normal 0.766046 0.642786 0
    outer loop
      vertex -2.4432 -0.889252 15.9
      vertex -1.3 -2.25167 25
      vertex -1.3 -2.25167 15.9
    endloop
  endfacet
  facet normal 1 -0 0
    outer loop
      vertex -2.4432 -0.889252 25
      vertex -2.4432 0.889252 15.9
      vertex -2.4432 0.889252 25
    endloop
  endfacet
  facet normal 1 0 0
    outer loop
      vertex -2.4432 0.889252 15.9
      vertex -2.4432 -0.889252 25
      vertex -2.4432 -0.889252 15.9
    endloop
  endfacet
  facet normal 0.766046 -0.642786 0
    outer loop
      vertex -2.4432 0.889252 25
      vertex -1.3 2.25167 15.9
      vertex -1.3 2.25167 25
    endloop
  endfacet
  facet normal 0.766046 -0.642786 0
    outer loop
      vertex -1.3 2.25167 15.9
      vertex -2.4432 0.889252 25
      vertex -2.4432 0.889252 15.9
    endloop
  endfacet
  facet normal -0.499998 0.866027 0
    outer loop
      vertex 1.99172 -1.67125 15.9
      vertex 0.451485 -2.5605 25
      vertex 1.99172 -1.67125 25
    endloop
  endfacet
  facet normal -0.499998 0.866027 0
    outer loop
      vertex 0.451485 -2.5605 25
      vertex 1.99172 -1.67125 15.9
      vertex 0.451485 -2.5605 15.9
    endloop
  endfacet
  facet normal 0.173646 0.984808 -0
    outer loop
      vertex 0.451485 -2.5605 15.9
      vertex -1.3 -2.25167 25
      vertex 0.451485 -2.5605 25
    endloop
  endfacet
  facet normal 0.173646 0.984808 0
    outer loop
      vertex -1.3 -2.25167 25
      vertex 0.451485 -2.5605 15.9
      vertex -1.3 -2.25167 15.9
    endloop
  endfacet
  facet normal 0.568064 -0.822984 0
    outer loop
      vertex -2.99404 2.65249 0
      vertex -1.41842 3.74006 15.9
      vertex -2.99404 2.65249 15.9
    endloop
  endfacet
  facet normal 0.568064 -0.822984 0
    outer loop
      vertex -1.41842 3.74006 15.9
      vertex -2.99404 2.65249 0
      vertex -1.41842 3.74006 0
    endloop
  endfacet
  facet normal -0.748511 -0.663122 0
    outer loop
      vertex 3.54182 1.85889 0
      vertex 2.27226 3.29193 15.9
      vertex 2.27226 3.29193 0
    endloop
  endfacet
  facet normal -0.748511 -0.663122 0
    outer loop
      vertex 2.27226 3.29193 15.9
      vertex 3.54182 1.85889 0
      vertex 3.54182 1.85889 15.9
    endloop
  endfacet
  facet normal -0.970941 -0.239318 0
    outer loop
      vertex 4 0 0
      vertex 3.54182 1.85889 15.9
      vertex 3.54182 1.85889 0
    endloop
  endfacet
  facet normal -0.970941 -0.239318 0
    outer loop
      vertex 3.54182 1.85889 15.9
      vertex 4 0 0
      vertex 4 0 15.9
    endloop
  endfacet
  facet normal -0.748511 0.663122 0
    outer loop
      vertex 2.27226 -3.29193 0
      vertex 3.54182 -1.85889 15.9
      vertex 3.54182 -1.85889 0
    endloop
  endfacet
  facet normal -0.748511 0.663122 0
    outer loop
      vertex 3.54182 -1.85889 15.9
      vertex 2.27226 -3.29193 0
      vertex 2.27226 -3.29193 15.9
    endloop
  endfacet
  facet normal 0.885455 0.464726 0
    outer loop
      vertex -2.99404 -2.65249 15.9
      vertex -3.88377 -0.957262 0
      vertex -3.88377 -0.957262 15.9
    endloop
  endfacet
  facet normal 0.885455 0.464726 0
    outer loop
      vertex -3.88377 -0.957262 0
      vertex -2.99404 -2.65249 15.9
      vertex -2.99404 -2.65249 0
    endloop
  endfacet
  facet normal 1 -0 0
    outer loop
      vertex -3.88377 -0.957262 15.9
      vertex -3.88377 0.957262 0
      vertex -3.88377 0.957262 15.9
    endloop
  endfacet
  facet normal 1 0 0
    outer loop
      vertex -3.88377 0.957262 0
      vertex -3.88377 -0.957262 15.9
      vertex -3.88377 -0.957262 0
    endloop
  endfacet
  facet normal -0.970941 0.239318 0
    outer loop
      vertex 3.54182 -1.85889 0
      vertex 4 0 15.9
      vertex 4 0 0
    endloop
  endfacet
  facet normal -0.970941 0.239318 0
    outer loop
      vertex 4 0 15.9
      vertex 3.54182 -1.85889 0
      vertex 3.54182 -1.85889 15.9
    endloop
  endfacet
  facet normal -0.354605 -0.935016 0
    outer loop
      vertex 0.482146 3.97083 0
      vertex 2.27226 3.29193 15.9
      vertex 0.482146 3.97083 15.9
    endloop
  endfacet
  facet normal -0.354605 -0.935016 -0
    outer loop
      vertex 2.27226 3.29193 15.9
      vertex 0.482146 3.97083 0
      vertex 2.27226 3.29193 0
    endloop
  endfacet
  facet normal 0.568064 0.822984 -0
    outer loop
      vertex -1.41842 -3.74006 0
      vertex -2.99404 -2.65249 15.9
      vertex -1.41842 -3.74006 15.9
    endloop
  endfacet
  facet normal 0.568064 0.822984 0
    outer loop
      vertex -2.99404 -2.65249 15.9
      vertex -1.41842 -3.74006 0
      vertex -2.99404 -2.65249 0
    endloop
  endfacet
  facet normal 0.885455 -0.464726 0
    outer loop
      vertex -3.88377 0.957262 15.9
      vertex -2.99404 2.65249 0
      vertex -2.99404 2.65249 15.9
    endloop
  endfacet
  facet normal 0.885455 -0.464726 0
    outer loop
      vertex -2.99404 2.65249 0
      vertex -3.88377 0.957262 15.9
      vertex -3.88377 0.957262 0
    endloop
  endfacet
  facet normal 0.120536 -0.992709 0
    outer loop
      vertex -1.41842 3.74006 0
      vertex 0.482146 3.97083 15.9
      vertex -1.41842 3.74006 15.9
    endloop
  endfacet
  facet normal 0.120536 -0.992709 0
    outer loop
      vertex 0.482146 3.97083 15.9
      vertex -1.41842 3.74006 0
      vertex 0.482146 3.97083 0
    endloop
  endfacet
  facet normal 0.120536 0.992709 -0
    outer loop
      vertex 0.482146 -3.97083 0
      vertex -1.41842 -3.74006 15.9
      vertex 0.482146 -3.97083 15.9
    endloop
  endfacet
  facet normal 0.120536 0.992709 0
    outer loop
      vertex -1.41842 -3.74006 15.9
      vertex 0.482146 -3.97083 0
      vertex -1.41842 -3.74006 0
    endloop
  endfacet
  facet normal -0.354605 0.935016 0
    outer loop
      vertex 2.27226 -3.29193 0
      vertex 0.482146 -3.97083 15.9
      vertex 2.27226 -3.29193 15.9
    endloop
  endfacet
  facet normal -0.354605 0.935016 0
    outer loop
      vertex 0.482146 -3.97083 15.9
      vertex 2.27226 -3.29193 0
      vertex 0.482146 -3.97083 0
    endloop
  endfacet
  facet normal 0 0 -1
    outer loop
      vertex 2.6 0 15.9
      vertex 4 0 15.9
      vertex 3.54182 -1.85889 15.9
    endloop
  endfacet
  facet normal 0 0 -1
    outer loop
      vertex 4 0 15.9
      vertex 2.6 0 15.9
      vertex 3.54182 1.85889 15.9
    endloop
  endfacet
  facet normal 0 0 -1
    outer loop
      vertex 1.99172 -1.67125 15.9
      vertex 3.54182 -1.85889 15.9
      vertex 2.27226 -3.29193 15.9
    endloop
  endfacet
  facet normal 0 0 -1
    outer loop
      vertex 3.54182 -1.85889 15.9
      vertex 1.99172 -1.67125 15.9
      vertex 2.6 0 15.9
    endloop
  endfacet
  facet normal 0 0 -1
    outer loop
      vertex 0.451485 -2.5605 15.9
      vertex 2.27226 -3.29193 15.9
      vertex 0.482146 -3.97083 15.9
    endloop
  endfacet
  facet normal 0 0 -1
    outer loop
      vertex 2.27226 -3.29193 15.9
      vertex 0.451485 -2.5605 15.9
      vertex 1.99172 -1.67125 15.9
    endloop
  endfacet
  facet normal 0 0 -1
    outer loop
      vertex -1.41842 -3.74006 15.9
      vertex 0.451485 -2.5605 15.9
      vertex 0.482146 -3.97083 15.9
    endloop
  endfacet
  facet normal -0 0 -1
    outer loop
      vertex 0.451485 -2.5605 15.9
      vertex -1.41842 -3.74006 15.9
      vertex -1.3 -2.25167 15.9
    endloop
  endfacet
  facet normal 0 0 -1
    outer loop
      vertex -2.99404 -2.65249 15.9
      vertex -1.3 -2.25167 15.9
      vertex -1.41842 -3.74006 15.9
    endloop
  endfacet
  facet normal 0 0 -1
    outer loop
      vertex -3.88377 -0.957262 15.9
      vertex -2.4432 -0.889252 15.9
      vertex -2.99404 -2.65249 15.9
    endloop
  endfacet
  facet normal -0 0 -1
    outer loop
      vertex -1.3 -2.25167 15.9
      vertex -2.99404 -2.65249 15.9
      vertex -2.4432 -0.889252 15.9
    endloop
  endfacet
  facet normal 0 0 -1
    outer loop
      vertex 1.99172 1.67125 15.9
      vertex 3.54182 1.85889 15.9
      vertex 2.6 0 15.9
    endloop
  endfacet
  facet normal -0 0 -1
    outer loop
      vertex 3.54182 1.85889 15.9
      vertex 1.99172 1.67125 15.9
      vertex 2.27226 3.29193 15.9
    endloop
  endfacet
  facet normal 0 0 -1
    outer loop
      vertex 0.451485 2.5605 15.9
      vertex 2.27226 3.29193 15.9
      vertex 1.99172 1.67125 15.9
    endloop
  endfacet
  facet normal -0 0 -1
    outer loop
      vertex 2.27226 3.29193 15.9
      vertex 0.451485 2.5605 15.9
      vertex 0.482146 3.97083 15.9
    endloop
  endfacet
  facet normal 0 0 -1
    outer loop
      vertex -1.41842 3.74006 15.9
      vertex 0.451485 2.5605 15.9
      vertex -1.3 2.25167 15.9
    endloop
  endfacet
  facet normal 0 0 -1
    outer loop
      vertex 0.451485 2.5605 15.9
      vertex -1.41842 3.74006 15.9
      vertex 0.482146 3.97083 15.9
    endloop
  endfacet
  facet normal 0 0 -1
    outer loop
      vertex -2.99404 2.65249 15.9
      vertex -1.3 2.25167 15.9
      vertex -2.4432 0.889252 15.9
    endloop
  endfacet
  facet normal 0 0 -1
    outer loop
      vertex -1.3 2.25167 15.9
      vertex -2.99404 2.65249 15.9
      vertex -1.41842 3.74006 15.9
    endloop
  endfacet
  facet normal -0 0 -1
    outer loop
      vertex -2.4432 -0.889252 15.9
      vertex -3.88377 -0.957262 15.9
      vertex -2.4432 0.889252 15.9
    endloop
  endfacet
  facet normal 0 0 -1
    outer loop
      vertex -3.88377 0.957262 15.9
      vertex -2.4432 0.889252 15.9
      vertex -3.88377 -0.957262 15.9
    endloop
  endfacet
  facet normal 0 0 -1
    outer loop
      vertex -2.4432 0.889252 15.9
      vertex -3.88377 0.957262 15.9
      vertex -2.99404 2.65249 15.9
    endloop
  endfacet
endsolid OpenSCAD_Model
