  0
SECTION
  2
HEADER
  9
$ACADVER
  1
AC1009
  9
$FILLMODE
 70
 0
  9
$SPLFRAME
 70
 1
  9
$EXTMIN
 10
0
 20
0
 30
0.0
  9
$EXTMAX
 10
1058.33
 20
1058.33
 30
0.0
  0
ENDSEC
  0
SECTION
  2
TABLES
  0
TABLE
  2
LAYER
 70
1
  0
LAYER
  2
0
 70
     0
 62
     7
  6
CONTINUOUS
  0
ENDTAB
  0
ENDSEC
  0
SECTION
  2
ENTITIES
  0
LINE
  8
0
 62
     12
 10
86.3921
 20
52.0266
 30
0.0
 11
60.7522
 21
43.6771
 31
0.0
  0
LINE
  8
0
 62
     12
 10
60.7522
 20
43.6771
 30
0.0
 11
41.8207
 21
37.6661
 31
0.0
  0
LINE
  8
0
 62
     252
 10
86.469
 20
58.3805
 30
0.0
 11
80.9748
 21
55.8366
 31
0.0
  0
LINE
  8
0
 62
     252
 10
80.9748
 20
55.8366
 30
0.0
 11
64.5171
 21
48.1542
 31
0.0
  0
LINE
  8
0
 62
     252
 10
64.5171
 20
48.1542
 30
0.0
 11
43.1684
 21
38.1247
 31
0.0
  0
LINE
  8
0
 62
     252
 10
43.1684
 20
38.1247
 30
0.0
 11
22.0817
 21
28.1809
 31
0.0
  0
LINE
  8
0
 62
     252
 10
22.0817
 20
28.1809
 30
0.0
 11
6.20808
 21
20.6981
 31
0.0
  0
LINE
  8
0
 62
     252
 10
6.20808
 20
20.6981
 30
0.0
 11
0.915017
 21
18.2094
 31
0.0
  0
LINE
  8
0
 62
     252
 10
21.558
 20
1.32567
 30
0.0
 11
64.0443
 21
78.9933
 31
0.0
  0
LINE
  8
0
 62
     0
 10
0.507118
 20
4.01835
 30
0.0
 11
86.5808
 21
74.2555
 31
0.0
  0
LINE
  8
0
 62
     0
 10
86.5808
 20
74.2555
 30
0.0
 11
0.507118
 21
4.01835
 31
0.0
  0
LINE
  8
0
 62
     252
 10
0.507118
 20
4.01835
 30
0.0
 11
86.5808
 21
74.2555
 31
0.0
  0
LINE
  8
0
 62
     252
 10
86.5808
 20
74.2555
 30
0.0
 11
0.507118
 21
4.01835
 31
0.0
  0
LINE
  8
0
 62
     0
 10
38.6514
 20
58.7252
 30
0.0
 11
38.1332
 21
58.7252
 31
0.0
  0
LINE
  8
0
 62
     0
 10
38.1332
 20
58.7252
 30
0.0
 11
37.8947
 21
58.674
 31
0.0
  0
LINE
  8
0
 62
     0
 10
37.8947
 20
58.674
 30
0.0
 11
36.9369
 21
58.5047
 31
0.0
  0
LINE
  8
0
 62
     0
 10
36.9369
 20
58.5047
 30
0.0
 11
36.0274
 21
58.4013
 31
0.0
  0
LINE
  8
0
 62
     0
 10
36.0274
 20
58.4013
 30
0.0
 11
35.8126
 21
58.3833
 31
0.0
  0
LINE
  8
0
 62
     0
 10
35.8126
 20
58.3833
 30
0.0
 11
35.8126
 21
57.8707
 31
0.0
  0
LINE
  8
0
 62
     0
 10
35.8126
 20
57.8707
 30
0.0
 11
36.1819
 21
57.8376
 31
0.0
  0
LINE
  8
0
 62
     0
 10
36.1819
 20
57.8376
 30
0.0
 11
36.3072
 21
57.8224
 31
0.0
  0
LINE
  8
0
 62
     0
 10
36.3072
 20
57.8224
 30
0.0
 11
36.6818
 21
57.7219
 31
0.0
  0
LINE
  8
0
 62
     0
 10
36.6818
 20
57.7219
 30
0.0
 11
36.9919
 21
57.4834
 31
0.0
  0
LINE
  8
0
 62
     0
 10
36.9919
 20
57.4834
 30
0.0
 11
37.1507
 21
57.0713
 31
0.0
  0
LINE
  8
0
 62
     0
 10
37.1507
 20
57.0713
 30
0.0
 11
37.1962
 21
56.5877
 31
0.0
  0
LINE
  8
0
 62
     0
 10
37.1962
 20
56.5877
 30
0.0
 11
37.1962
 21
56.4265
 31
0.0
  0
LINE
  8
0
 62
     0
 10
37.1962
 20
56.4265
 30
0.0
 11
37.1962
 21
52.4192
 31
0.0
  0
LINE
  8
0
 62
     0
 10
37.1962
 20
52.4192
 30
0.0
 11
37.1962
 21
52.1614
 31
0.0
  0
LINE
  8
0
 62
     0
 10
37.1962
 20
52.1614
 30
0.0
 11
36.9715
 21
51.387
 31
0.0
  0
LINE
  8
0
 62
     0
 10
36.9715
 20
51.387
 30
0.0
 11
36.4105
 21
51.0247
 31
0.0
  0
LINE
  8
0
 62
     0
 10
36.4105
 20
51.0247
 30
0.0
 11
36.2423
 21
51.0081
 31
0.0
  0
LINE
  8
0
 62
     0
 10
36.2423
 20
51.0081
 30
0.0
 11
35.8567
 21
50.975
 31
0.0
  0
LINE
  8
0
 62
     0
 10
35.8567
 20
50.975
 30
0.0
 11
35.8567
 21
50.4624
 31
0.0
  0
LINE
  8
0
 62
     0
 10
35.8567
 20
50.4624
 30
0.0
 11
39.9905
 21
50.4624
 31
0.0
  0
LINE
  8
0
 62
     0
 10
39.9905
 20
50.4624
 30
0.0
 11
39.9905
 21
50.975
 31
0.0
  0
LINE
  8
0
 62
     0
 10
39.9905
 20
50.975
 30
0.0
 11
39.6049
 21
51.0081
 31
0.0
  0
LINE
  8
0
 62
     0
 10
39.6049
 20
51.0081
 30
0.0
 11
39.4367
 21
51.0247
 31
0.0
  0
LINE
  8
0
 62
     0
 10
39.4367
 20
51.0247
 30
0.0
 11
38.8758
 21
51.387
 31
0.0
  0
LINE
  8
0
 62
     0
 10
38.8758
 20
51.387
 30
0.0
 11
38.6514
 21
52.1614
 31
0.0
  0
LINE
  8
0
 62
     0
 10
38.6514
 20
52.1614
 30
0.0
 11
38.6514
 21
52.4192
 31
0.0
  0
LINE
  8
0
 62
     0
 10
38.6514
 20
52.4192
 30
0.0
 11
38.6514
 21
56.5976
 31
0.0
  0
LINE
  8
0
 62
     0
 10
38.6514
 20
56.5976
 30
0.0
 11
38.7904
 21
56.7669
 31
0.0
  0
LINE
  8
0
 62
     0
 10
38.7904
 20
56.7669
 30
0.0
 11
39.401
 21
57.3292
 31
0.0
  0
LINE
  8
0
 62
     0
 10
39.401
 20
57.3292
 30
0.0
 11
39.9009
 21
57.5511
 31
0.0
  0
LINE
  8
0
 62
     0
 10
39.9009
 20
57.5511
 30
0.0
 11
40.0678
 21
57.5511
 31
0.0
  0
LINE
  8
0
 62
     0
 10
40.0678
 20
57.5511
 30
0.0
 11
40.1465
 21
57.5511
 31
0.0
  0
LINE
  8
0
 62
     0
 10
40.1465
 20
57.5511
 30
0.0
 11
40.3835
 21
57.4957
 31
0.0
  0
LINE
  8
0
 62
     0
 10
40.3835
 20
57.4957
 30
0.0
 11
40.6439
 21
57.3306
 31
0.0
  0
LINE
  8
0
 62
     0
 10
40.6439
 20
57.3306
 30
0.0
 11
40.7127
 21
57.2752
 31
0.0
  0
LINE
  8
0
 62
     0
 10
40.7127
 20
57.2752
 30
0.0
 11
40.7818
 21
57.2244
 31
0.0
  0
LINE
  8
0
 62
     0
 10
40.7818
 20
57.2244
 30
0.0
 11
41.3286
 21
56.9888
 31
0.0
  0
LINE
  8
0
 62
     0
 10
41.3286
 20
56.9888
 30
0.0
 11
41.5121
 21
56.9888
 31
0.0
  0
LINE
  8
0
 62
     0
 10
41.5121
 20
56.9888
 30
0.0
 11
41.6648
 21
56.9888
 31
0.0
  0
LINE
  8
0
 62
     0
 10
41.6648
 20
56.9888
 30
0.0
 11
42.1252
 21
57.2534
 31
0.0
  0
LINE
  8
0
 62
     0
 10
42.1252
 20
57.2534
 30
0.0
 11
42.3718
 21
57.7578
 31
0.0
  0
LINE
  8
0
 62
     0
 10
42.3718
 20
57.7578
 30
0.0
 11
42.3718
 21
57.9258
 31
0.0
  0
LINE
  8
0
 62
     0
 10
42.3718
 20
57.9258
 30
0.0
 11
42.3718
 21
58.0983
 31
0.0
  0
LINE
  8
0
 62
     0
 10
42.3718
 20
58.0983
 30
0.0
 11
42.0578
 21
58.6133
 31
0.0
  0
LINE
  8
0
 62
     0
 10
42.0578
 20
58.6133
 30
0.0
 11
41.4542
 21
58.8793
 31
0.0
  0
LINE
  8
0
 62
     0
 10
41.4542
 20
58.8793
 30
0.0
 11
41.2531
 21
58.8793
 31
0.0
  0
LINE
  8
0
 62
     0
 10
41.2531
 20
58.8793
 30
0.0
 11
40.9801
 21
58.8793
 31
0.0
  0
LINE
  8
0
 62
     0
 10
40.9801
 20
58.8793
 30
0.0
 11
40.2537
 21
58.6507
 31
0.0
  0
LINE
  8
0
 62
     0
 10
40.2537
 20
58.6507
 30
0.0
 11
40.1616
 21
58.6038
 31
0.0
  0
LINE
  8
0
 62
     0
 10
40.1616
 20
58.6038
 30
0.0
 11
40.101
 21
58.5763
 31
0.0
  0
LINE
  8
0
 62
     0
 10
40.101
 20
58.5763
 30
0.0
 11
39.9232
 21
58.4839
 31
0.0
  0
LINE
  8
0
 62
     0
 10
39.9232
 20
58.4839
 30
0.0
 11
39.7069
 21
58.3336
 31
0.0
  0
LINE
  8
0
 62
     0
 10
39.7069
 20
58.3336
 30
0.0
 11
39.4201
 21
58.0856
 31
0.0
  0
LINE
  8
0
 62
     0
 10
39.4201
 20
58.0856
 30
0.0
 11
39.0867
 21
57.7716
 31
0.0
  0
LINE
  8
0
 62
     0
 10
39.0867
 20
57.7716
 30
0.0
 11
38.9763
 21
57.6668
 31
0.0
  0
LINE
  8
0
 62
     0
 10
38.9763
 20
57.6668
 30
0.0
 11
38.9654
 21
57.6584
 31
0.0
  0
LINE
  8
0
 62
     0
 10
38.9654
 20
57.6584
 30
0.0
 11
38.6898
 21
57.3966
 31
0.0
  0
LINE
  8
0
 62
     0
 10
38.6898
 20
57.3966
 30
0.0
 11
38.6514
 21
57.3634
 31
0.0
  0
LINE
  8
0
 62
     0
 10
38.6514
 20
57.3634
 30
0.0
 11
38.6514
 21
58.7252
 31
0.0
  0
LINE
  8
0
 62
     0
 10
45.7867
 20
58.7252
 30
0.0
 11
45.2632
 21
58.7252
 31
0.0
  0
LINE
  8
0
 62
     0
 10
45.2632
 20
58.7252
 30
0.0
 11
45.0289
 21
58.6782
 31
0.0
  0
LINE
  8
0
 62
     0
 10
45.0289
 20
58.6782
 30
0.0
 11
44.0877
 21
58.5114
 31
0.0
  0
LINE
  8
0
 62
     0
 10
44.0877
 20
58.5114
 30
0.0
 11
43.211
 21
58.4013
 31
0.0
  0
LINE
  8
0
 62
     0
 10
43.211
 20
58.4013
 30
0.0
 11
43.0086
 21
58.3833
 31
0.0
  0
LINE
  8
0
 62
     0
 10
43.0086
 20
58.3833
 30
0.0
 11
43.0086
 21
57.8707
 31
0.0
  0
LINE
  8
0
 62
     0
 10
43.0086
 20
57.8707
 30
0.0
 11
43.3116
 21
57.8376
 31
0.0
  0
LINE
  8
0
 62
     0
 10
43.3116
 20
57.8376
 30
0.0
 11
43.4386
 21
57.8224
 31
0.0
  0
LINE
  8
0
 62
     0
 10
43.4386
 20
57.8224
 30
0.0
 11
43.8132
 21
57.7219
 31
0.0
  0
LINE
  8
0
 62
     0
 10
43.8132
 20
57.7219
 30
0.0
 11
44.1247
 21
57.4834
 31
0.0
  0
LINE
  8
0
 62
     0
 10
44.1247
 20
57.4834
 30
0.0
 11
44.2817
 21
57.0713
 31
0.0
  0
LINE
  8
0
 62
     0
 10
44.2817
 20
57.0713
 30
0.0
 11
44.3258
 21
56.5877
 31
0.0
  0
LINE
  8
0
 62
     0
 10
44.3258
 20
56.5877
 30
0.0
 11
44.3258
 21
56.4265
 31
0.0
  0
LINE
  8
0
 62
     0
 10
44.3258
 20
56.4265
 30
0.0
 11
44.3258
 21
52.4192
 31
0.0
  0
LINE
  8
0
 62
     0
 10
44.3258
 20
52.4192
 30
0.0
 11
44.3258
 21
52.1614
 31
0.0
  0
LINE
  8
0
 62
     0
 10
44.3258
 20
52.1614
 30
0.0
 11
44.1029
 21
51.387
 31
0.0
  0
LINE
  8
0
 62
     0
 10
44.1029
 20
51.387
 30
0.0
 11
43.542
 21
51.0247
 31
0.0
  0
LINE
  8
0
 62
     0
 10
43.542
 20
51.0247
 30
0.0
 11
43.3723
 21
51.0081
 31
0.0
  0
LINE
  8
0
 62
     0
 10
43.3723
 20
51.0081
 30
0.0
 11
42.992
 21
50.975
 31
0.0
  0
LINE
  8
0
 62
     0
 10
42.992
 20
50.975
 30
0.0
 11
42.992
 21
50.4624
 31
0.0
  0
LINE
  8
0
 62
     0
 10
42.992
 20
50.4624
 30
0.0
 11
47.1096
 21
50.4624
 31
0.0
  0
LINE
  8
0
 62
     0
 10
47.1096
 20
50.4624
 30
0.0
 11
47.1096
 21
50.975
 31
0.0
  0
LINE
  8
0
 62
     0
 10
47.1096
 20
50.975
 30
0.0
 11
46.7402
 21
51.0081
 31
0.0
  0
LINE
  8
0
 62
     0
 10
46.7402
 20
51.0081
 30
0.0
 11
46.5709
 21
51.0247
 31
0.0
  0
LINE
  8
0
 62
     0
 10
46.5709
 20
51.0247
 30
0.0
 11
46.0086
 21
51.387
 31
0.0
  0
LINE
  8
0
 62
     0
 10
46.0086
 20
51.387
 30
0.0
 11
45.7867
 21
52.1614
 31
0.0
  0
LINE
  8
0
 62
     0
 10
45.7867
 20
52.1614
 30
0.0
 11
45.7867
 21
52.4192
 31
0.0
  0
LINE
  8
0
 62
     0
 10
45.7867
 20
52.4192
 30
0.0
 11
45.7867
 21
58.7252
 31
0.0
  0
LINE
  8
0
 62
     0
 10
45.0811
 20
61.6024
 30
0.0
 11
44.9143
 21
61.6024
 31
0.0
  0
LINE
  8
0
 62
     0
 10
44.9143
 20
61.6024
 30
0.0
 11
44.4154
 21
61.3033
 31
0.0
  0
LINE
  8
0
 62
     0
 10
44.4154
 20
61.3033
 30
0.0
 11
44.1441
 21
60.7632
 31
0.0
  0
LINE
  8
0
 62
     0
 10
44.1441
 20
60.7632
 30
0.0
 11
44.1441
 21
60.5825
 31
0.0
  0
LINE
  8
0
 62
     0
 10
44.1441
 20
60.5825
 30
0.0
 11
44.1441
 21
60.3994
 31
0.0
  0
LINE
  8
0
 62
     0
 10
44.1441
 20
60.3994
 30
0.0
 11
44.4154
 21
59.8456
 31
0.0
  0
LINE
  8
0
 62
     0
 10
44.4154
 20
59.8456
 30
0.0
 11
44.9143
 21
59.5408
 31
0.0
  0
LINE
  8
0
 62
     0
 10
44.9143
 20
59.5408
 30
0.0
 11
45.0811
 21
59.5408
 31
0.0
  0
LINE
  8
0
 62
     0
 10
45.0811
 20
59.5408
 30
0.0
 11
45.2438
 21
59.5408
 31
0.0
  0
LINE
  8
0
 62
     0
 10
45.2438
 20
59.5408
 30
0.0
 11
45.7316
 21
59.8456
 31
0.0
  0
LINE
  8
0
 62
     0
 10
45.7316
 20
59.8456
 30
0.0
 11
46.0015
 21
60.3994
 31
0.0
  0
LINE
  8
0
 62
     0
 10
46.0015
 20
60.3994
 30
0.0
 11
46.0015
 21
60.5825
 31
0.0
  0
LINE
  8
0
 62
     0
 10
46.0015
 20
60.5825
 30
0.0
 11
46.0015
 21
60.7632
 31
0.0
  0
LINE
  8
0
 62
     0
 10
46.0015
 20
60.7632
 30
0.0
 11
45.7316
 21
61.3033
 31
0.0
  0
LINE
  8
0
 62
     0
 10
45.7316
 20
61.3033
 30
0.0
 11
45.2438
 21
61.6024
 31
0.0
  0
LINE
  8
0
 62
     0
 10
45.2438
 20
61.6024
 30
0.0
 11
45.0811
 21
61.6024
 31
0.0
  0
LINE
  8
0
 62
     0
 10
50.2571
 20
51.653
 30
0.0
 11
50.0849
 21
51.6791
 31
0.0
  0
LINE
  8
0
 62
     0
 10
50.0849
 20
51.6791
 30
0.0
 11
49.4993
 21
51.8954
 31
0.0
  0
LINE
  8
0
 62
     0
 10
49.4993
 20
51.8954
 30
0.0
 11
49.2594
 21
52.2386
 31
0.0
  0
LINE
  8
0
 62
     0
 10
49.2594
 20
52.2386
 30
0.0
 11
49.2594
 21
52.3529
 31
0.0
  0
LINE
  8
0
 62
     0
 10
49.2594
 20
52.3529
 30
0.0
 11
49.2594
 21
52.4729
 31
0.0
  0
LINE
  8
0
 62
     0
 10
49.2594
 20
52.4729
 30
0.0
 11
49.4467
 21
52.8327
 31
0.0
  0
LINE
  8
0
 62
     0
 10
49.4467
 20
52.8327
 30
0.0
 11
49.8546
 21
53.1936
 31
0.0
  0
LINE
  8
0
 62
     0
 10
49.8546
 20
53.1936
 30
0.0
 11
49.965
 21
53.2571
 31
0.0
  0
LINE
  8
0
 62
     0
 10
49.965
 20
53.2571
 30
0.0
 11
50.1234
 21
53.2021
 31
0.0
  0
LINE
  8
0
 62
     0
 10
50.1234
 20
53.2021
 30
0.0
 11
50.7298
 21
53.0366
 31
0.0
  0
LINE
  8
0
 62
     0
 10
50.7298
 20
53.0366
 30
0.0
 11
51.2382
 21
52.9816
 31
0.0
  0
LINE
  8
0
 62
     0
 10
51.2382
 20
52.9816
 30
0.0
 11
51.4092
 21
52.9816
 31
0.0
  0
LINE
  8
0
 62
     0
 10
51.4092
 20
52.9816
 30
0.0
 11
51.7744
 21
52.9816
 31
0.0
  0
LINE
  8
0
 62
     0
 10
51.7744
 20
52.9816
 30
0.0
 11
52.8697
 21
53.2211
 31
0.0
  0
LINE
  8
0
 62
     0
 10
52.8697
 20
53.2211
 30
0.0
 11
53.7778
 21
53.7655
 31
0.0
  0
LINE
  8
0
 62
     0
 10
53.7778
 20
53.7655
 30
0.0
 11
53.9171
 21
53.9186
 31
0.0
  0
LINE
  8
0
 62
     0
 10
53.9171
 20
53.9186
 30
0.0
 11
54.0286
 21
54.0424
 31
0.0
  0
LINE
  8
0
 62
     0
 10
54.0286
 20
54.0424
 30
0.0
 11
54.4449
 21
54.8199
 31
0.0
  0
LINE
  8
0
 62
     0
 10
54.4449
 20
54.8199
 30
0.0
 11
54.6393
 21
55.5914
 31
0.0
  0
LINE
  8
0
 62
     0
 10
54.6393
 20
55.5914
 30
0.0
 11
54.6393
 21
55.8479
 31
0.0
  0
LINE
  8
0
 62
     0
 10
54.6393
 20
55.8479
 30
0.0
 11
54.6393
 21
56.1827
 31
0.0
  0
LINE
  8
0
 62
     0
 10
54.6393
 20
56.1827
 30
0.0
 11
54.2988
 21
57.1846
 31
0.0
  0
LINE
  8
0
 62
     0
 10
54.2988
 20
57.1846
 30
0.0
 11
53.5601
 21
58.1173
 31
0.0
  0
LINE
  8
0
 62
     0
 10
53.5601
 20
58.1173
 30
0.0
 11
53.3605
 21
58.2676
 31
0.0
  0
LINE
  8
0
 62
     0
 10
53.3605
 20
58.2676
 30
0.0
 11
53.4416
 21
58.3985
 31
0.0
  0
LINE
  8
0
 62
     0
 10
53.4416
 20
58.3985
 30
0.0
 11
53.793
 21
58.8285
 31
0.0
  0
LINE
  8
0
 62
     0
 10
53.793
 20
58.8285
 30
0.0
 11
54.0798
 21
58.995
 31
0.0
  0
LINE
  8
0
 62
     0
 10
54.0798
 20
58.995
 30
0.0
 11
54.1761
 21
58.995
 31
0.0
  0
LINE
  8
0
 62
     0
 10
54.1761
 20
58.995
 30
0.0
 11
54.2135
 21
58.995
 31
0.0
  0
LINE
  8
0
 62
     0
 10
54.2135
 20
58.995
 30
0.0
 11
54.325
 21
58.9703
 31
0.0
  0
LINE
  8
0
 62
     0
 10
54.325
 20
58.9703
 30
0.0
 11
54.4834
 21
58.8793
 31
0.0
  0
LINE
  8
0
 62
     0
 10
54.4834
 20
58.8793
 30
0.0
 11
54.5289
 21
58.8465
 31
0.0
  0
LINE
  8
0
 62
     0
 10
54.5289
 20
58.8465
 30
0.0
 11
54.5715
 21
58.8162
 31
0.0
  0
LINE
  8
0
 62
     0
 10
54.5715
 20
58.8162
 30
0.0
 11
54.8859
 21
58.6754
 31
0.0
  0
LINE
  8
0
 62
     0
 10
54.8859
 20
58.6754
 30
0.0
 11
54.9921
 21
58.6754
 31
0.0
  0
LINE
  8
0
 62
     0
 10
54.9921
 20
58.6754
 30
0.0
 11
55.0982
 21
58.6754
 31
0.0
  0
LINE
  8
0
 62
     0
 10
55.0982
 20
58.6754
 30
0.0
 11
55.4164
 21
58.8518
 31
0.0
  0
LINE
  8
0
 62
     0
 10
55.4164
 20
58.8518
 30
0.0
 11
55.5763
 21
59.2032
 31
0.0
  0
LINE
  8
0
 62
     0
 10
55.5763
 20
59.2032
 30
0.0
 11
55.5763
 21
59.3203
 31
0.0
  0
LINE
  8
0
 62
     0
 10
55.5763
 20
59.3203
 30
0.0
 11
55.5763
 21
59.4526
 31
0.0
  0
LINE
  8
0
 62
     0
 10
55.5763
 20
59.4526
 30
0.0
 11
55.3462
 21
59.847
 31
0.0
  0
LINE
  8
0
 62
     0
 10
55.3462
 20
59.847
 30
0.0
 11
54.894
 21
60.0534
 31
0.0
  0
LINE
  8
0
 62
     0
 10
54.894
 20
60.0534
 30
0.0
 11
54.7441
 21
60.0534
 31
0.0
  0
LINE
  8
0
 62
     0
 10
54.7441
 20
60.0534
 30
0.0
 11
54.5663
 21
60.0534
 31
0.0
  0
LINE
  8
0
 62
     0
 10
54.5663
 20
60.0534
 30
0.0
 11
54.0371
 21
59.8992
 31
0.0
  0
LINE
  8
0
 62
     0
 10
54.0371
 20
59.8992
 30
0.0
 11
53.5312
 21
59.5644
 31
0.0
  0
LINE
  8
0
 62
     0
 10
53.5312
 20
59.5644
 30
0.0
 11
53.4539
 21
59.4748
 31
0.0
  0
LINE
  8
0
 62
     0
 10
53.4539
 20
59.4748
 30
0.0
 11
53.4088
 21
59.4237
 31
0.0
  0
LINE
  8
0
 62
     0
 10
53.4088
 20
59.4237
 30
0.0
 11
53.2035
 21
59.1414
 31
0.0
  0
LINE
  8
0
 62
     0
 10
53.2035
 20
59.1414
 30
0.0
 11
52.9428
 21
58.6782
 31
0.0
  0
LINE
  8
0
 62
     0
 10
52.9428
 20
58.6782
 30
0.0
 11
52.8697
 21
58.5378
 31
0.0
  0
LINE
  8
0
 62
     0
 10
52.8697
 20
58.5378
 30
0.0
 11
52.717
 21
58.601
 31
0.0
  0
LINE
  8
0
 62
     0
 10
52.717
 20
58.601
 30
0.0
 11
52.1021
 21
58.8038
 31
0.0
  0
LINE
  8
0
 62
     0
 10
52.1021
 20
58.8038
 30
0.0
 11
51.5938
 21
58.8793
 31
0.0
  0
LINE
  8
0
 62
     0
 10
51.5938
 20
58.8793
 30
0.0
 11
51.4255
 21
58.8793
 31
0.0
  0
LINE
  8
0
 62
     0
 10
51.4255
 20
58.8793
 30
0.0
 11
51.1168
 21
58.8793
 31
0.0
  0
LINE
  8
0
 62
     0
 10
51.1168
 20
58.8793
 30
0.0
 11
50.1908
 21
58.6437
 31
0.0
  0
LINE
  8
0
 62
     0
 10
50.1908
 20
58.6437
 30
0.0
 11
49.1864
 21
57.996
 31
0.0
  0
LINE
  8
0
 62
     0
 10
49.1864
 20
57.996
 30
0.0
 11
48.5084
 21
57.0343
 31
0.0
  0
LINE
  8
0
 62
     0
 10
48.5084
 20
57.0343
 30
0.0
 11
48.2618
 21
56.1453
 31
0.0
  0
LINE
  8
0
 62
     0
 10
48.2618
 20
56.1453
 30
0.0
 11
48.2618
 21
55.8479
 31
0.0
  0
LINE
  8
0
 62
     0
 10
48.2618
 20
55.8479
 30
0.0
 11
48.2618
 21
55.5113
 31
0.0
  0
LINE
  8
0
 62
     0
 10
48.2618
 20
55.5113
 30
0.0
 11
48.5662
 21
54.5013
 31
0.0
  0
LINE
  8
0
 62
     0
 10
48.5662
 20
54.5013
 30
0.0
 11
49.295
 21
53.5852
 31
0.0
  0
LINE
  8
0
 62
     0
 10
49.295
 20
53.5852
 30
0.0
 11
49.5074
 21
53.4278
 31
0.0
  0
LINE
  8
0
 62
     0
 10
49.5074
 20
53.4278
 30
0.0
 11
49.2495
 21
53.3344
 31
0.0
  0
LINE
  8
0
 62
     0
 10
49.2495
 20
53.3344
 30
0.0
 11
48.3676
 21
52.736
 31
0.0
  0
LINE
  8
0
 62
     0
 10
48.3676
 20
52.736
 30
0.0
 11
48.0025
 21
51.9783
 31
0.0
  0
LINE
  8
0
 62
     0
 10
48.0025
 20
51.9783
 30
0.0
 11
48.0025
 21
51.7246
 31
0.0
  0
LINE
  8
0
 62
     0
 10
48.0025
 20
51.7246
 30
0.0
 11
48.0025
 21
51.5126
 31
0.0
  0
LINE
  8
0
 62
     0
 10
48.0025
 20
51.5126
 30
0.0
 11
48.2685
 21
50.8744
 31
0.0
  0
LINE
  8
0
 62
     0
 10
48.2685
 20
50.8744
 30
0.0
 11
48.926
 21
50.3728
 31
0.0
  0
LINE
  8
0
 62
     0
 10
48.926
 20
50.3728
 30
0.0
 11
49.1215
 21
50.2916
 31
0.0
  0
LINE
  8
0
 62
     0
 10
49.1215
 20
50.2916
 30
0.0
 11
48.9327
 21
50.213
 31
0.0
  0
LINE
  8
0
 62
     0
 10
48.9327
 20
50.213
 30
0.0
 11
48.3898
 21
49.9195
 31
0.0
  0
LINE
  8
0
 62
     0
 10
48.3898
 20
49.9195
 30
0.0
 11
47.8882
 21
49.4993
 31
0.0
  0
LINE
  8
0
 62
     0
 10
47.8882
 20
49.4993
 30
0.0
 11
47.5989
 21
49.0114
 31
0.0
  0
LINE
  8
0
 62
     0
 10
47.5989
 20
49.0114
 30
0.0
 11
47.5065
 21
48.5786
 31
0.0
  0
LINE
  8
0
 62
     0
 10
47.5065
 20
48.5786
 30
0.0
 11
47.5065
 21
48.4339
 31
0.0
  0
LINE
  8
0
 62
     0
 10
47.5065
 20
48.4339
 30
0.0
 11
47.5065
 21
48.2244
 31
0.0
  0
LINE
  8
0
 62
     0
 10
47.5065
 20
48.2244
 30
0.0
 11
47.7919
 21
47.5933
 31
0.0
  0
LINE
  8
0
 62
     0
 10
47.7919
 20
47.5933
 30
0.0
 11
48.5937
 21
46.936
 31
0.0
  0
LINE
  8
0
 62
     0
 10
48.5937
 20
46.936
 30
0.0
 11
49.827
 21
46.5088
 31
0.0
  0
LINE
  8
0
 62
     0
 10
49.827
 20
46.5088
 30
0.0
 11
51.0134
 21
46.3557
 31
0.0
  0
LINE
  8
0
 62
     0
 10
51.0134
 20
46.3557
 30
0.0
 11
51.4092
 21
46.3557
 31
0.0
  0
LINE
  8
0
 62
     0
 10
51.4092
 20
46.3557
 30
0.0
 11
51.8336
 21
46.3557
 31
0.0
  0
LINE
  8
0
 62
     0
 10
51.8336
 20
46.3557
 30
0.0
 11
53.1082
 21
46.5501
 31
0.0
  0
LINE
  8
0
 62
     0
 10
53.1082
 20
46.5501
 30
0.0
 11
54.4022
 21
47.1039
 31
0.0
  0
LINE
  8
0
 62
     0
 10
54.4022
 20
47.1039
 30
0.0
 11
55.2263
 21
47.975
 31
0.0
  0
LINE
  8
0
 62
     0
 10
55.2263
 20
47.975
 30
0.0
 11
55.5156
 21
48.8322
 31
0.0
  0
LINE
  8
0
 62
     0
 10
55.5156
 20
48.8322
 30
0.0
 11
55.5156
 21
49.1172
 31
0.0
  0
LINE
  8
0
 62
     0
 10
55.5156
 20
49.1172
 30
0.0
 11
55.5156
 21
49.2855
 31
0.0
  0
LINE
  8
0
 62
     0
 10
55.5156
 20
49.2855
 30
0.0
 11
55.4232
 21
49.7872
 31
0.0
  0
LINE
  8
0
 62
     0
 10
55.4232
 20
49.7872
 30
0.0
 11
55.2192
 21
50.2613
 31
0.0
  0
LINE
  8
0
 62
     0
 10
55.2192
 20
50.2613
 30
0.0
 11
55.1628
 21
50.341
 31
0.0
  0
LINE
  8
0
 62
     0
 10
55.1628
 20
50.341
 30
0.0
 11
55.0774
 21
50.4567
 31
0.0
  0
LINE
  8
0
 62
     0
 10
55.0774
 20
50.4567
 30
0.0
 11
54.453
 21
50.8868
 31
0.0
  0
LINE
  8
0
 62
     0
 10
54.453
 20
50.8868
 30
0.0
 11
53.4638
 21
51.1694
 31
0.0
  0
LINE
  8
0
 62
     0
 10
53.4638
 20
51.1694
 30
0.0
 11
53.195
 21
51.212
 31
0.0
  0
LINE
  8
0
 62
     0
 10
53.195
 20
51.212
 30
0.0
 11
50.2571
 21
51.653
 31
0.0
  0
LINE
  8
0
 62
     0
 10
51.5027
 20
58.3336
 30
0.0
 11
51.6749
 21
58.3336
 31
0.0
  0
LINE
  8
0
 62
     0
 10
51.6749
 20
58.3336
 30
0.0
 11
52.1931
 21
58.1865
 31
0.0
  0
LINE
  8
0
 62
     0
 10
52.1931
 20
58.1865
 30
0.0
 11
52.6824
 21
57.7398
 31
0.0
  0
LINE
  8
0
 62
     0
 10
52.6824
 20
57.7398
 30
0.0
 11
52.9717
 21
56.9902
 31
0.0
  0
LINE
  8
0
 62
     0
 10
52.9717
 20
56.9902
 30
0.0
 11
53.0684
 21
56.1964
 31
0.0
  0
LINE
  8
0
 62
     0
 10
53.0684
 20
56.1964
 30
0.0
 11
53.0684
 21
55.9304
 31
0.0
  0
LINE
  8
0
 62
     0
 10
53.0684
 20
55.9304
 30
0.0
 11
53.0684
 21
55.6673
 31
0.0
  0
LINE
  8
0
 62
     0
 10
53.0684
 20
55.6673
 30
0.0
 11
52.9689
 21
54.8749
 31
0.0
  0
LINE
  8
0
 62
     0
 10
52.9689
 20
54.8749
 30
0.0
 11
52.6729
 21
54.1239
 31
0.0
  0
LINE
  8
0
 62
     0
 10
52.6729
 20
54.1239
 30
0.0
 11
52.1698
 21
53.6758
 31
0.0
  0
LINE
  8
0
 62
     0
 10
52.1698
 20
53.6758
 30
0.0
 11
51.6364
 21
53.527
 31
0.0
  0
LINE
  8
0
 62
     0
 10
51.6364
 20
53.527
 30
0.0
 11
51.4586
 21
53.527
 31
0.0
  0
LINE
  8
0
 62
     0
 10
51.4586
 20
53.527
 30
0.0
 11
51.277
 21
53.527
 31
0.0
  0
LINE
  8
0
 62
     0
 10
51.277
 20
53.527
 30
0.0
 11
50.7351
 21
53.6758
 31
0.0
  0
LINE
  8
0
 62
     0
 10
50.7351
 20
53.6758
 30
0.0
 11
50.2267
 21
54.1253
 31
0.0
  0
LINE
  8
0
 62
     0
 10
50.2267
 20
54.1253
 30
0.0
 11
49.9251
 21
54.8816
 31
0.0
  0
LINE
  8
0
 62
     0
 10
49.9251
 20
54.8816
 30
0.0
 11
49.827
 21
55.681
 31
0.0
  0
LINE
  8
0
 62
     0
 10
49.827
 20
55.681
 30
0.0
 11
49.827
 21
55.947
 31
0.0
  0
LINE
  8
0
 62
     0
 10
49.827
 20
55.947
 30
0.0
 11
49.827
 21
56.1993
 31
0.0
  0
LINE
  8
0
 62
     0
 10
49.827
 20
56.1993
 30
0.0
 11
49.9403
 21
56.9528
 31
0.0
  0
LINE
  8
0
 62
     0
 10
49.9403
 20
56.9528
 30
0.0
 11
50.268
 21
57.7024
 31
0.0
  0
LINE
  8
0
 62
     0
 10
50.268
 20
57.7024
 30
0.0
 11
50.7944
 21
58.1723
 31
0.0
  0
LINE
  8
0
 62
     0
 10
50.7944
 20
58.1723
 30
0.0
 11
51.3249
 21
58.3336
 31
0.0
  0
LINE
  8
0
 62
     0
 10
51.3249
 20
58.3336
 30
0.0
 11
51.5027
 21
58.3336
 31
0.0
  0
LINE
  8
0
 62
     0
 10
52.8532
 20
49.7127
 30
0.0
 11
53.0366
 21
49.688
 31
0.0
  0
LINE
  8
0
 62
     0
 10
53.0366
 20
49.688
 30
0.0
 11
53.5824
 21
49.5625
 31
0.0
  0
LINE
  8
0
 62
     0
 10
53.5824
 20
49.5625
 30
0.0
 11
54.0741
 21
49.3324
 31
0.0
  0
LINE
  8
0
 62
     0
 10
54.0741
 20
49.3324
 30
0.0
 11
54.3525
 21
49.0086
 31
0.0
  0
LINE
  8
0
 62
     0
 10
54.3525
 20
49.0086
 30
0.0
 11
54.4407
 21
48.6819
 31
0.0
  0
LINE
  8
0
 62
     0
 10
54.4407
 20
48.6819
 30
0.0
 11
54.4407
 21
48.5719
 31
0.0
  0
LINE
  8
0
 62
     0
 10
54.4407
 20
48.5719
 30
0.0
 11
54.4407
 21
48.4078
 31
0.0
  0
LINE
  8
0
 62
     0
 10
54.4407
 20
48.4078
 30
0.0
 11
54.2258
 21
47.9143
 31
0.0
  0
LINE
  8
0
 62
     0
 10
54.2258
 20
47.9143
 30
0.0
 11
53.6166
 21
47.414
 31
0.0
  0
LINE
  8
0
 62
     0
 10
53.6166
 20
47.414
 30
0.0
 11
52.6616
 21
47.0958
 31
0.0
  0
LINE
  8
0
 62
     0
 10
52.6616
 20
47.0958
 30
0.0
 11
51.7218
 21
46.9844
 31
0.0
  0
LINE
  8
0
 62
     0
 10
51.7218
 20
46.9844
 30
0.0
 11
51.4092
 21
46.9844
 31
0.0
  0
LINE
  8
0
 62
     0
 10
51.4092
 20
46.9844
 30
0.0
 11
51.1059
 21
46.9844
 31
0.0
  0
LINE
  8
0
 62
     0
 10
51.1059
 20
46.9844
 30
0.0
 11
50.1992
 21
47.1039
 31
0.0
  0
LINE
  8
0
 62
     0
 10
50.1992
 20
47.1039
 30
0.0
 11
49.2594
 21
47.4377
 31
0.0
  0
LINE
  8
0
 62
     0
 10
49.2594
 20
47.4377
 30
0.0
 11
48.6488
 21
47.9503
 31
0.0
  0
LINE
  8
0
 62
     0
 10
48.6488
 20
47.9503
 30
0.0
 11
48.4325
 21
48.442
 31
0.0
  0
LINE
  8
0
 62
     0
 10
48.4325
 20
48.442
 30
0.0
 11
48.4325
 21
48.6047
 31
0.0
  0
LINE
  8
0
 62
     0
 10
48.4325
 20
48.6047
 30
0.0
 11
48.4325
 21
48.8251
 31
0.0
  0
LINE
  8
0
 62
     0
 10
48.4325
 20
48.8251
 30
0.0
 11
48.7564
 21
49.4866
 31
0.0
  0
LINE
  8
0
 62
     0
 10
48.7564
 20
49.4866
 30
0.0
 11
49.4979
 21
50.0518
 31
0.0
  0
LINE
  8
0
 62
     0
 10
49.4979
 20
50.0518
 30
0.0
 11
49.7057
 21
50.1371
 31
0.0
  0
LINE
  8
0
 62
     0
 10
49.7057
 20
50.1371
 30
0.0
 11
52.8532
 21
49.7127
 31
0.0
  0
LINE
  8
0
 62
     0
 10
58.8063
 20
62.6773
 30
0.0
 11
58.1946
 21
62.6773
 31
0.0
  0
LINE
  8
0
 62
     0
 10
58.1946
 20
62.6773
 30
0.0
 11
57.9974
 21
62.5919
 31
0.0
  0
LINE
  8
0
 62
     0
 10
57.9974
 20
62.5919
 30
0.0
 11
57.1941
 21
62.3122
 31
0.0
  0
LINE
  8
0
 62
     0
 10
57.1941
 20
62.3122
 30
0.0
 11
56.2695
 21
62.133
 31
0.0
  0
LINE
  8
0
 62
     0
 10
56.2695
 20
62.133
 30
0.0
 11
56.0116
 21
62.0984
 31
0.0
  0
LINE
  8
0
 62
     0
 10
56.0116
 20
62.0984
 30
0.0
 11
56.0116
 21
61.5692
 31
0.0
  0
LINE
  8
0
 62
     0
 10
56.0116
 20
61.5692
 30
0.0
 11
56.3481
 21
61.5364
 31
0.0
  0
LINE
  8
0
 62
     0
 10
56.3481
 20
61.5364
 30
0.0
 11
56.4776
 21
61.5184
 31
0.0
  0
LINE
  8
0
 62
     0
 10
56.4776
 20
61.5184
 30
0.0
 11
56.8621
 21
61.3943
 31
0.0
  0
LINE
  8
0
 62
     0
 10
56.8621
 20
61.3943
 30
0.0
 11
57.1694
 21
61.087
 31
0.0
  0
LINE
  8
0
 62
     0
 10
57.1694
 20
61.087
 30
0.0
 11
57.3155
 21
60.5289
 31
0.0
  0
LINE
  8
0
 62
     0
 10
57.3155
 20
60.5289
 30
0.0
 11
57.3472
 21
59.8537
 31
0.0
  0
LINE
  8
0
 62
     0
 10
57.3472
 20
59.8537
 30
0.0
 11
57.3458
 21
59.629
 31
0.0
  0
LINE
  8
0
 62
     0
 10
57.3458
 20
59.629
 30
0.0
 11
57.3458
 21
52.4192
 31
0.0
  0
LINE
  8
0
 62
     0
 10
57.3458
 20
52.4192
 30
0.0
 11
57.3458
 21
52.1614
 31
0.0
  0
LINE
  8
0
 62
     0
 10
57.3458
 20
52.1614
 30
0.0
 11
57.1225
 21
51.387
 31
0.0
  0
LINE
  8
0
 62
     0
 10
57.1225
 20
51.387
 30
0.0
 11
56.5616
 21
51.0247
 31
0.0
  0
LINE
  8
0
 62
     0
 10
56.5616
 20
51.0247
 30
0.0
 11
56.3922
 21
51.0081
 31
0.0
  0
LINE
  8
0
 62
     0
 10
56.3922
 20
51.0081
 30
0.0
 11
56.0116
 21
50.975
 31
0.0
  0
LINE
  8
0
 62
     0
 10
56.0116
 20
50.975
 30
0.0
 11
56.0116
 21
50.4624
 31
0.0
  0
LINE
  8
0
 62
     0
 10
56.0116
 20
50.4624
 30
0.0
 11
60.1458
 21
50.4624
 31
0.0
  0
LINE
  8
0
 62
     0
 10
60.1458
 20
50.4624
 30
0.0
 11
60.1458
 21
50.975
 31
0.0
  0
LINE
  8
0
 62
     0
 10
60.1458
 20
50.975
 30
0.0
 11
59.7598
 21
51.0081
 31
0.0
  0
LINE
  8
0
 62
     0
 10
59.7598
 20
51.0081
 30
0.0
 11
59.5905
 21
51.0247
 31
0.0
  0
LINE
  8
0
 62
     0
 10
59.5905
 20
51.0247
 30
0.0
 11
59.0282
 21
51.387
 31
0.0
  0
LINE
  8
0
 62
     0
 10
59.0282
 20
51.387
 30
0.0
 11
58.8063
 21
52.1614
 31
0.0
  0
LINE
  8
0
 62
     0
 10
58.8063
 20
52.1614
 30
0.0
 11
58.8063
 21
52.4192
 31
0.0
  0
LINE
  8
0
 62
     0
 10
58.8063
 20
52.4192
 30
0.0
 11
58.8063
 21
56.6635
 31
0.0
  0
LINE
  8
0
 62
     0
 10
58.8063
 20
56.6635
 30
0.0
 11
59.0338
 21
56.8978
 31
0.0
  0
LINE
  8
0
 62
     0
 10
59.0338
 20
56.8978
 30
0.0
 11
60.143
 21
57.7123
 31
0.0
  0
LINE
  8
0
 62
     0
 10
60.143
 20
57.7123
 30
0.0
 11
61.1325
 21
58.0581
 31
0.0
  0
LINE
  8
0
 62
     0
 10
61.1325
 20
58.0581
 30
0.0
 11
61.4634
 21
58.0581
 31
0.0
  0
LINE
  8
0
 62
     0
 10
61.4634
 20
58.0581
 30
0.0
 11
61.6066
 21
58.0581
 31
0.0
  0
LINE
  8
0
 62
     0
 10
61.6066
 20
58.0581
 30
0.0
 11
62.0391
 21
57.9508
 31
0.0
  0
LINE
  8
0
 62
     0
 10
62.0391
 20
57.9508
 30
0.0
 11
62.4526
 21
57.627
 31
0.0
  0
LINE
  8
0
 62
     0
 10
62.4526
 20
57.627
 30
0.0
 11
62.702
 21
57.0893
 31
0.0
  0
LINE
  8
0
 62
     0
 10
62.702
 20
57.0893
 30
0.0
 11
62.7863
 21
56.527
 31
0.0
  0
LINE
  8
0
 62
     0
 10
62.7863
 20
56.527
 30
0.0
 11
62.7863
 21
56.3383
 31
0.0
  0
LINE
  8
0
 62
     0
 10
62.7863
 20
56.3383
 30
0.0
 11
62.7863
 21
52.4192
 31
0.0
  0
LINE
  8
0
 62
     0
 10
62.7863
 20
52.4192
 30
0.0
 11
62.7863
 21
52.1614
 31
0.0
  0
LINE
  8
0
 62
     0
 10
62.7863
 20
52.1614
 30
0.0
 11
62.563
 21
51.387
 31
0.0
  0
LINE
  8
0
 62
     0
 10
62.563
 20
51.387
 30
0.0
 11
62.0021
 21
51.0247
 31
0.0
  0
LINE
  8
0
 62
     0
 10
62.0021
 20
51.0247
 30
0.0
 11
61.8324
 21
51.0081
 31
0.0
  0
LINE
  8
0
 62
     0
 10
61.8324
 20
51.0081
 30
0.0
 11
61.4521
 21
50.975
 31
0.0
  0
LINE
  8
0
 62
     0
 10
61.4521
 20
50.975
 30
0.0
 11
61.4521
 21
50.4624
 31
0.0
  0
LINE
  8
0
 62
     0
 10
61.4521
 20
50.4624
 30
0.0
 11
65.5807
 21
50.4624
 31
0.0
  0
LINE
  8
0
 62
     0
 10
65.5807
 20
50.4624
 30
0.0
 11
65.5807
 21
50.975
 31
0.0
  0
LINE
  8
0
 62
     0
 10
65.5807
 20
50.975
 30
0.0
 11
65.2004
 21
51.0081
 31
0.0
  0
LINE
  8
0
 62
     0
 10
65.2004
 20
51.0081
 30
0.0
 11
65.0311
 21
51.0247
 31
0.0
  0
LINE
  8
0
 62
     0
 10
65.0311
 20
51.0247
 30
0.0
 11
64.4687
 21
51.387
 31
0.0
  0
LINE
  8
0
 62
     0
 10
64.4687
 20
51.387
 30
0.0
 11
64.2468
 21
52.1614
 31
0.0
  0
LINE
  8
0
 62
     0
 10
64.2468
 20
52.1614
 30
0.0
 11
64.2468
 21
52.4192
 31
0.0
  0
LINE
  8
0
 62
     0
 10
64.2468
 20
52.4192
 30
0.0
 11
64.2468
 21
56.443
 31
0.0
  0
LINE
  8
0
 62
     0
 10
64.2468
 20
56.443
 30
0.0
 11
64.2468
 21
56.7475
 31
0.0
  0
LINE
  8
0
 62
     0
 10
64.2468
 20
56.7475
 30
0.0
 11
64.0955
 21
57.6612
 31
0.0
  0
LINE
  8
0
 62
     0
 10
64.0955
 20
57.6612
 30
0.0
 11
63.6834
 21
58.2856
 31
0.0
  0
LINE
  8
0
 62
     0
 10
63.6834
 20
58.2856
 30
0.0
 11
63.5522
 21
58.3833
 31
0.0
  0
LINE
  8
0
 62
     0
 10
63.5522
 20
58.3833
 30
0.0
 11
63.445
 21
58.4648
 31
0.0
  0
LINE
  8
0
 62
     0
 10
63.445
 20
58.4648
 30
0.0
 11
62.7959
 21
58.7541
 31
0.0
  0
LINE
  8
0
 62
     0
 10
62.7959
 20
58.7541
 30
0.0
 11
62.0723
 21
58.8793
 31
0.0
  0
LINE
  8
0
 62
     0
 10
62.0723
 20
58.8793
 30
0.0
 11
61.8324
 21
58.8793
 31
0.0
  0
LINE
  8
0
 62
     0
 10
61.8324
 20
58.8793
 30
0.0
 11
61.4468
 21
58.8793
 31
0.0
  0
LINE
  8
0
 62
     0
 10
61.4468
 20
58.8793
 30
0.0
 11
60.2904
 21
58.535
 31
0.0
  0
LINE
  8
0
 62
     0
 10
60.2904
 20
58.535
 30
0.0
 11
59.0557
 21
57.7053
 31
0.0
  0
LINE
  8
0
 62
     0
 10
59.0557
 20
57.7053
 30
0.0
 11
58.8063
 21
57.4629
 31
0.0
  0
LINE
  8
0
 62
     0
 10
58.8063
 20
57.4629
 30
0.0
 11
58.8063
 21
62.6773
 31
0.0
  0
LINE
  8
0
 62
     0
 10
71.1013
 20
58.7252
 30
0.0
 11
68.9074
 21
58.7252
 31
0.0
  0
LINE
  8
0
 62
     0
 10
68.9074
 20
58.7252
 30
0.0
 11
68.9074
 21
61.8285
 31
0.0
  0
LINE
  8
0
 62
     0
 10
68.9074
 20
61.8285
 30
0.0
 11
68.3232
 21
61.8285
 31
0.0
  0
LINE
  8
0
 62
     0
 10
68.3232
 20
61.8285
 30
0.0
 11
68.3246
 21
61.4895
 31
0.0
  0
LINE
  8
0
 62
     0
 10
68.3246
 20
61.4895
 30
0.0
 11
68.2032
 21
60.4668
 31
0.0
  0
LINE
  8
0
 62
     0
 10
68.2032
 20
60.4668
 30
0.0
 11
67.8106
 21
59.5147
 31
0.0
  0
LINE
  8
0
 62
     0
 10
67.8106
 20
59.5147
 30
0.0
 11
67.1326
 21
58.9428
 31
0.0
  0
LINE
  8
0
 62
     0
 10
67.1326
 20
58.9428
 30
0.0
 11
66.4023
 21
58.7361
 31
0.0
  0
LINE
  8
0
 62
     0
 10
66.4023
 20
58.7361
 30
0.0
 11
66.1568
 21
58.7252
 31
0.0
  0
LINE
  8
0
 62
     0
 10
66.1568
 20
58.7252
 30
0.0
 11
66.1568
 21
58.1628
 31
0.0
  0
LINE
  8
0
 62
     0
 10
66.1568
 20
58.1628
 30
0.0
 11
67.4469
 21
58.1628
 31
0.0
  0
LINE
  8
0
 62
     0
 10
67.4469
 20
58.1628
 30
0.0
 11
67.4469
 21
52.4577
 31
0.0
  0
LINE
  8
0
 62
     0
 10
67.4469
 20
52.4577
 30
0.0
 11
67.4469
 21
52.1988
 31
0.0
  0
LINE
  8
0
 62
     0
 10
67.4469
 20
52.1988
 30
0.0
 11
67.6148
 21
51.4188
 31
0.0
  0
LINE
  8
0
 62
     0
 10
67.6148
 20
51.4188
 30
0.0
 11
68.0297
 21
50.8385
 31
0.0
  0
LINE
  8
0
 62
     0
 10
68.0297
 20
50.8385
 30
0.0
 11
68.1524
 21
50.7545
 31
0.0
  0
LINE
  8
0
 62
     0
 10
68.1524
 20
50.7545
 30
0.0
 11
68.253
 21
50.6815
 31
0.0
  0
LINE
  8
0
 62
     0
 10
68.253
 20
50.6815
 30
0.0
 11
68.8414
 21
50.4225
 31
0.0
  0
LINE
  8
0
 62
     0
 10
68.8414
 20
50.4225
 30
0.0
 11
69.445
 21
50.3079
 31
0.0
  0
LINE
  8
0
 62
     0
 10
69.445
 20
50.3079
 30
0.0
 11
69.6461
 21
50.3079
 31
0.0
  0
LINE
  8
0
 62
     0
 10
69.6461
 20
50.3079
 30
0.0
 11
69.9491
 21
50.3079
 31
0.0
  0
LINE
  8
0
 62
     0
 10
69.9491
 20
50.3079
 30
0.0
 11
70.8586
 21
50.6042
 31
0.0
  0
LINE
  8
0
 62
     0
 10
70.8586
 20
50.6042
 30
0.0
 11
71.6732
 21
51.3031
 31
0.0
  0
LINE
  8
0
 62
     0
 10
71.6732
 20
51.3031
 30
0.0
 11
71.8125
 21
51.5041
 31
0.0
  0
LINE
  8
0
 62
     0
 10
71.8125
 20
51.5041
 30
0.0
 11
71.3934
 21
51.8791
 31
0.0
  0
LINE
  8
0
 62
     0
 10
71.3934
 20
51.8791
 30
0.0
 11
71.2639
 21
51.7123
 31
0.0
  0
LINE
  8
0
 62
     0
 10
71.2639
 20
51.7123
 30
0.0
 11
70.703
 21
51.1859
 31
0.0
  0
LINE
  8
0
 62
     0
 10
70.703
 20
51.1859
 30
0.0
 11
70.2194
 21
50.9916
 31
0.0
  0
LINE
  8
0
 62
     0
 10
70.2194
 20
50.9916
 30
0.0
 11
70.0595
 21
50.9916
 31
0.0
  0
LINE
  8
0
 62
     0
 10
70.0595
 20
50.9916
 30
0.0
 11
69.9311
 21
50.9916
 31
0.0
  0
LINE
  8
0
 62
     0
 10
69.9311
 20
50.9916
 30
0.0
 11
69.5484
 21
51.1253
 31
0.0
  0
LINE
  8
0
 62
     0
 10
69.5484
 20
51.1253
 30
0.0
 11
69.19
 21
51.5359
 31
0.0
  0
LINE
  8
0
 62
     0
 10
69.19
 20
51.5359
 30
0.0
 11
68.9762
 21
52.2358
 31
0.0
  0
LINE
  8
0
 62
     0
 10
68.9762
 20
52.2358
 30
0.0
 11
68.9074
 21
52.9897
 31
0.0
  0
LINE
  8
0
 62
     0
 10
68.9074
 20
52.9897
 30
0.0
 11
68.9074
 21
53.2405
 31
0.0
  0
LINE
  8
0
 62
     0
 10
68.9074
 20
53.2405
 30
0.0
 11
68.9074
 21
58.1628
 31
0.0
  0
LINE
  8
0
 62
     0
 10
68.9074
 20
58.1628
 30
0.0
 11
71.1013
 21
58.1628
 31
0.0
  0
LINE
  8
0
 62
     0
 10
71.1013
 20
58.1628
 30
0.0
 11
71.1013
 21
58.7252
 31
0.0
  0
LINE
  8
0
 62
     0
 10
43.9801
 20
27.6159
 30
0.0
 11
43.4453
 21
27.6159
 31
0.0
  0
LINE
  8
0
 62
     0
 10
43.4453
 20
27.6159
 30
0.0
 11
43.1987
 21
27.5676
 31
0.0
  0
LINE
  8
0
 62
     0
 10
43.1987
 20
27.5676
 30
0.0
 11
42.212
 21
27.4092
 31
0.0
  0
LINE
  8
0
 62
     0
 10
42.212
 20
27.4092
 30
0.0
 11
41.275
 21
27.3127
 31
0.0
  0
LINE
  8
0
 62
     0
 10
41.275
 20
27.3127
 30
0.0
 11
41.0531
 21
27.2962
 31
0.0
  0
LINE
  8
0
 62
     0
 10
41.0531
 20
27.2962
 30
0.0
 11
41.0531
 21
26.8222
 31
0.0
  0
LINE
  8
0
 62
     0
 10
41.0531
 20
26.8222
 30
0.0
 11
41.4334
 21
26.7891
 31
0.0
  0
LINE
  8
0
 62
     0
 10
41.4334
 20
26.7891
 30
0.0
 11
41.5629
 21
26.7753
 31
0.0
  0
LINE
  8
0
 62
     0
 10
41.5629
 20
26.7753
 30
0.0
 11
41.9488
 21
26.6802
 31
0.0
  0
LINE
  8
0
 62
     0
 10
41.9488
 20
26.6802
 30
0.0
 11
42.2684
 21
26.4597
 31
0.0
  0
LINE
  8
0
 62
     0
 10
42.2684
 20
26.4597
 30
0.0
 11
42.4296
 21
26.0739
 31
0.0
  0
LINE
  8
0
 62
     0
 10
42.4296
 20
26.0739
 30
0.0
 11
42.4752
 21
25.6232
 31
0.0
  0
LINE
  8
0
 62
     0
 10
42.4752
 20
25.6232
 30
0.0
 11
42.4752
 21
25.4717
 31
0.0
  0
LINE
  8
0
 62
     0
 10
42.4752
 20
25.4717
 30
0.0
 11
42.4752
 21
21.751
 31
0.0
  0
LINE
  8
0
 62
     0
 10
42.4752
 20
21.751
 30
0.0
 11
42.4752
 21
21.5112
 31
0.0
  0
LINE
  8
0
 62
     0
 10
42.4752
 20
21.5112
 30
0.0
 11
42.2465
 21
20.7905
 31
0.0
  0
LINE
  8
0
 62
     0
 10
42.2465
 20
20.7905
 30
0.0
 11
41.6691
 21
20.4501
 31
0.0
  0
LINE
  8
0
 62
     0
 10
41.6691
 20
20.4501
 30
0.0
 11
41.4941
 21
20.4336
 31
0.0
  0
LINE
  8
0
 62
     0
 10
41.4941
 20
20.4336
 30
0.0
 11
41.0972
 21
20.4005
 31
0.0
  0
LINE
  8
0
 62
     0
 10
41.0972
 20
20.4005
 30
0.0
 11
41.0972
 21
19.9264
 31
0.0
  0
LINE
  8
0
 62
     0
 10
41.0972
 20
19.9264
 30
0.0
 11
45.3637
 21
19.9264
 31
0.0
  0
LINE
  8
0
 62
     0
 10
45.3637
 20
19.9264
 30
0.0
 11
45.3637
 21
20.4005
 31
0.0
  0
LINE
  8
0
 62
     0
 10
45.3637
 20
20.4005
 30
0.0
 11
44.9668
 21
20.4336
 31
0.0
  0
LINE
  8
0
 62
     0
 10
44.9668
 20
20.4336
 30
0.0
 11
44.7918
 21
20.4501
 31
0.0
  0
LINE
  8
0
 62
     0
 10
44.7918
 20
20.4501
 30
0.0
 11
44.2101
 21
20.7905
 31
0.0
  0
LINE
  8
0
 62
     0
 10
44.2101
 20
20.7905
 30
0.0
 11
43.9801
 21
21.5112
 31
0.0
  0
LINE
  8
0
 62
     0
 10
43.9801
 20
21.5112
 30
0.0
 11
43.9801
 21
21.751
 31
0.0
  0
LINE
  8
0
 62
     0
 10
43.9801
 20
21.751
 30
0.0
 11
43.9801
 21
25.6315
 31
0.0
  0
LINE
  8
0
 62
     0
 10
43.9801
 20
25.6315
 30
0.0
 11
44.1233
 21
25.79
 31
0.0
  0
LINE
  8
0
 62
     0
 10
44.1233
 20
25.79
 30
0.0
 11
44.753
 21
26.3136
 31
0.0
  0
LINE
  8
0
 62
     0
 10
44.753
 20
26.3136
 30
0.0
 11
45.2684
 21
26.519
 31
0.0
  0
LINE
  8
0
 62
     0
 10
45.2684
 20
26.519
 30
0.0
 11
45.441
 21
26.519
 31
0.0
  0
LINE
  8
0
 62
     0
 10
45.441
 20
26.519
 30
0.0
 11
45.5221
 21
26.519
 31
0.0
  0
LINE
  8
0
 62
     0
 10
45.5221
 20
26.519
 30
0.0
 11
45.7673
 21
26.4708
 31
0.0
  0
LINE
  8
0
 62
     0
 10
45.7673
 20
26.4708
 30
0.0
 11
46.0361
 21
26.3178
 31
0.0
  0
LINE
  8
0
 62
     0
 10
46.0361
 20
26.3178
 30
0.0
 11
46.1077
 21
26.2654
 31
0.0
  0
LINE
  8
0
 62
     0
 10
46.1077
 20
26.2654
 30
0.0
 11
46.1793
 21
26.2185
 31
0.0
  0
LINE
  8
0
 62
     0
 10
46.1793
 20
26.2185
 30
0.0
 11
46.7416
 21
25.9953
 31
0.0
  0
LINE
  8
0
 62
     0
 10
46.7416
 20
25.9953
 30
0.0
 11
46.929
 21
25.9953
 31
0.0
  0
LINE
  8
0
 62
     0
 10
46.929
 20
25.9953
 30
0.0
 11
47.0877
 21
25.9953
 31
0.0
  0
LINE
  8
0
 62
     0
 10
47.0877
 20
25.9953
 30
0.0
 11
47.5629
 21
26.242
 31
0.0
  0
LINE
  8
0
 62
     0
 10
47.5629
 20
26.242
 30
0.0
 11
47.8166
 21
26.7147
 31
0.0
  0
LINE
  8
0
 62
     0
 10
47.8166
 20
26.7147
 30
0.0
 11
47.8166
 21
26.8718
 31
0.0
  0
LINE
  8
0
 62
     0
 10
47.8166
 20
26.8718
 30
0.0
 11
47.8166
 21
27.0316
 31
0.0
  0
LINE
  8
0
 62
     0
 10
47.8166
 20
27.0316
 30
0.0
 11
47.4941
 21
27.5098
 31
0.0
  0
LINE
  8
0
 62
     0
 10
47.4941
 20
27.5098
 30
0.0
 11
46.8672
 21
27.7592
 31
0.0
  0
LINE
  8
0
 62
     0
 10
46.8672
 20
27.7592
 30
0.0
 11
46.6591
 21
27.7592
 31
0.0
  0
LINE
  8
0
 62
     0
 10
46.6591
 20
27.7592
 30
0.0
 11
46.3779
 21
27.7592
 31
0.0
  0
LINE
  8
0
 62
     0
 10
46.3779
 20
27.7592
 30
0.0
 11
45.6297
 21
27.5483
 31
0.0
  0
LINE
  8
0
 62
     0
 10
45.6297
 20
27.5483
 30
0.0
 11
45.5344
 21
27.5057
 31
0.0
  0
LINE
  8
0
 62
     0
 10
45.5344
 20
27.5057
 30
0.0
 11
45.4723
 21
27.4808
 31
0.0
  0
LINE
  8
0
 62
     0
 10
45.4723
 20
27.4808
 30
0.0
 11
45.2907
 21
27.394
 31
0.0
  0
LINE
  8
0
 62
     0
 10
45.2907
 20
27.394
 30
0.0
 11
45.0674
 21
27.2521
 31
0.0
  0
LINE
  8
0
 62
     0
 10
45.0674
 20
27.2521
 30
0.0
 11
44.7738
 21
27.0192
 31
0.0
  0
LINE
  8
0
 62
     0
 10
44.7738
 20
27.0192
 30
0.0
 11
44.4292
 21
26.727
 31
0.0
  0
LINE
  8
0
 62
     0
 10
44.4292
 20
26.727
 30
0.0
 11
44.3163
 21
26.6292
 31
0.0
  0
LINE
  8
0
 62
     0
 10
44.3163
 20
26.6292
 30
0.0
 11
44.3039
 21
26.6223
 31
0.0
  0
LINE
  8
0
 62
     0
 10
44.3039
 20
26.6223
 30
0.0
 11
44.02
 21
26.3798
 31
0.0
  0
LINE
  8
0
 62
     0
 10
44.02
 20
26.3798
 30
0.0
 11
43.9801
 21
26.3481
 31
0.0
  0
LINE
  8
0
 62
     0
 10
43.9801
 20
26.3481
 30
0.0
 11
43.9801
 21
27.6159
 31
0.0
  0
LINE
  8
0
 62
     0
 10
52.0238
 20
27.7592
 30
0.0
 11
51.6378
 21
27.7592
 31
0.0
  0
LINE
  8
0
 62
     0
 10
51.6378
 20
27.7592
 30
0.0
 11
50.4843
 21
27.4919
 31
0.0
  0
LINE
  8
0
 62
     0
 10
50.4843
 20
27.4919
 30
0.0
 11
49.4591
 21
26.8938
 31
0.0
  0
LINE
  8
0
 62
     0
 10
49.4591
 20
26.8938
 30
0.0
 11
49.3007
 21
26.7284
 31
0.0
  0
LINE
  8
0
 62
     0
 10
49.3007
 20
26.7284
 30
0.0
 11
49.1338
 21
26.5534
 31
0.0
  0
LINE
  8
0
 62
     0
 10
49.1338
 20
26.5534
 30
0.0
 11
48.4932
 21
25.3904
 31
0.0
  0
LINE
  8
0
 62
     0
 10
48.4932
 20
25.3904
 30
0.0
 11
48.1873
 21
24.1584
 31
0.0
  0
LINE
  8
0
 62
     0
 10
48.1873
 20
24.1584
 30
0.0
 11
48.1873
 21
23.7464
 31
0.0
  0
LINE
  8
0
 62
     0
 10
48.1873
 20
23.7464
 30
0.0
 11
48.1873
 21
23.3398
 31
0.0
  0
LINE
  8
0
 62
     0
 10
48.1873
 20
23.3398
 30
0.0
 11
48.4643
 21
22.1189
 31
0.0
  0
LINE
  8
0
 62
     0
 10
48.4643
 20
22.1189
 30
0.0
 11
49.251
 21
20.8676
 31
0.0
  0
LINE
  8
0
 62
     0
 10
49.251
 20
20.8676
 30
0.0
 11
50.4818
 21
20.067
 31
0.0
  0
LINE
  8
0
 62
     0
 10
50.4818
 20
20.067
 30
0.0
 11
51.6876
 21
19.7831
 31
0.0
  0
LINE
  8
0
 62
     0
 10
51.6876
 20
19.7831
 30
0.0
 11
52.0898
 21
19.7831
 31
0.0
  0
LINE
  8
0
 62
     0
 10
52.0898
 20
19.7831
 30
0.0
 11
52.4828
 21
19.7831
 31
0.0
  0
LINE
  8
0
 62
     0
 10
52.4828
 20
19.7831
 30
0.0
 11
53.6607
 21
20.0684
 31
0.0
  0
LINE
  8
0
 62
     0
 10
53.6607
 20
20.0684
 30
0.0
 11
54.8778
 21
20.8704
 31
0.0
  0
LINE
  8
0
 62
     0
 10
54.8778
 20
20.8704
 30
0.0
 11
55.663
 21
22.112
 31
0.0
  0
LINE
  8
0
 62
     0
 10
55.663
 20
22.112
 30
0.0
 11
55.9428
 21
23.3136
 31
0.0
  0
LINE
  8
0
 62
     0
 10
55.9428
 20
23.3136
 30
0.0
 11
55.9428
 21
23.7133
 31
0.0
  0
LINE
  8
0
 62
     0
 10
55.9428
 20
23.7133
 30
0.0
 11
55.9428
 21
24.0936
 31
0.0
  0
LINE
  8
0
 62
     0
 10
55.9428
 20
24.0936
 30
0.0
 11
55.6853
 21
25.2305
 31
0.0
  0
LINE
  8
0
 62
     0
 10
55.6853
 20
25.2305
 30
0.0
 11
55.1353
 21
26.3371
 31
0.0
  0
LINE
  8
0
 62
     0
 10
55.1353
 20
26.3371
 30
0.0
 11
54.9892
 21
26.519
 31
0.0
  0
LINE
  8
0
 62
     0
 10
54.9892
 20
26.519
 30
0.0
 11
54.8224
 21
26.7174
 31
0.0
  0
LINE
  8
0
 62
     0
 10
54.8224
 20
26.7174
 30
0.0
 11
53.7214
 21
27.4367
 31
0.0
  0
LINE
  8
0
 62
     0
 10
53.7214
 20
27.4367
 30
0.0
 11
52.4482
 21
27.7592
 31
0.0
  0
LINE
  8
0
 62
     0
 10
52.4482
 20
27.7592
 30
0.0
 11
52.0238
 21
27.7592
 31
0.0
  0
LINE
  8
0
 62
     0
 10
52.0404
 20
27.1253
 30
0.0
 11
52.2785
 21
27.1253
 31
0.0
  0
LINE
  8
0
 62
     0
 10
52.2785
 20
27.1253
 30
0.0
 11
52.9978
 21
26.8883
 31
0.0
  0
LINE
  8
0
 62
     0
 10
52.9978
 20
26.8883
 30
0.0
 11
53.7161
 21
26.202
 31
0.0
  0
LINE
  8
0
 62
     0
 10
53.7161
 20
26.202
 30
0.0
 11
54.1651
 21
25.1051
 31
0.0
  0
LINE
  8
0
 62
     0
 10
54.1651
 20
25.1051
 30
0.0
 11
54.3221
 21
24.0041
 31
0.0
  0
LINE
  8
0
 62
     0
 10
54.3221
 20
24.0041
 30
0.0
 11
54.3221
 21
23.6361
 31
0.0
  0
LINE
  8
0
 62
     0
 10
54.3221
 20
23.6361
 30
0.0
 11
54.3221
 21
23.2985
 31
0.0
  0
LINE
  8
0
 62
     0
 10
54.3221
 20
23.2985
 30
0.0
 11
54.1722
 21
22.2856
 31
0.0
  0
LINE
  8
0
 62
     0
 10
54.1722
 20
22.2856
 30
0.0
 11
53.7365
 21
21.2728
 31
0.0
  0
LINE
  8
0
 62
     0
 10
53.7365
 20
21.2728
 30
0.0
 11
53.0408
 21
20.6375
 31
0.0
  0
LINE
  8
0
 62
     0
 10
53.0408
 20
20.6375
 30
0.0
 11
52.3392
 21
20.417
 31
0.0
  0
LINE
  8
0
 62
     0
 10
52.3392
 20
20.417
 30
0.0
 11
52.1063
 21
20.417
 31
0.0
  0
LINE
  8
0
 62
     0
 10
52.1063
 20
20.417
 30
0.0
 11
51.8597
 21
20.417
 31
0.0
  0
LINE
  8
0
 62
     0
 10
51.8597
 20
20.417
 30
0.0
 11
51.1238
 21
20.6416
 31
0.0
  0
LINE
  8
0
 62
     0
 10
51.1238
 20
20.6416
 30
0.0
 11
50.4031
 21
21.2962
 31
0.0
  0
LINE
  8
0
 62
     0
 10
50.4031
 20
21.2962
 30
0.0
 11
49.9579
 21
22.3518
 31
0.0
  0
LINE
  8
0
 62
     0
 10
49.9579
 20
22.3518
 30
0.0
 11
49.808
 21
23.4225
 31
0.0
  0
LINE
  8
0
 62
     0
 10
49.808
 20
23.4225
 30
0.0
 11
49.808
 21
23.7794
 31
0.0
  0
LINE
  8
0
 62
     0
 10
49.808
 20
23.7794
 30
0.0
 11
49.808
 21
24.1253
 31
0.0
  0
LINE
  8
0
 62
     0
 10
49.808
 20
24.1253
 30
0.0
 11
49.965
 21
25.1588
 31
0.0
  0
LINE
  8
0
 62
     0
 10
49.965
 20
25.1588
 30
0.0
 11
50.4126
 21
26.213
 31
0.0
  0
LINE
  8
0
 62
     0
 10
50.4126
 20
26.213
 30
0.0
 11
51.1168
 21
26.8883
 31
0.0
  0
LINE
  8
0
 62
     0
 10
51.1168
 20
26.8883
 30
0.0
 11
51.8086
 21
27.1253
 31
0.0
  0
LINE
  8
0
 62
     0
 10
51.8086
 20
27.1253
 30
0.0
 11
52.0404
 21
27.1253
 31
0.0
  0
LINE
  8
0
 62
     0
 10
63.93
 20
19.9264
 30
0.0
 11
66.8182
 21
19.9264
 31
0.0
  0
LINE
  8
0
 62
     0
 10
66.8182
 20
19.9264
 30
0.0
 11
66.8182
 21
20.4005
 31
0.0
  0
LINE
  8
0
 62
     0
 10
66.8182
 20
20.4005
 30
0.0
 11
66.4214
 21
20.4336
 31
0.0
  0
LINE
  8
0
 62
     0
 10
66.4214
 20
20.4336
 30
0.0
 11
66.2464
 21
20.4501
 31
0.0
  0
LINE
  8
0
 62
     0
 10
66.2464
 20
20.4501
 30
0.0
 11
65.6678
 21
20.7905
 31
0.0
  0
LINE
  8
0
 62
     0
 10
65.6678
 20
20.7905
 30
0.0
 11
65.4403
 21
21.5112
 31
0.0
  0
LINE
  8
0
 62
     0
 10
65.4403
 20
21.5112
 30
0.0
 11
65.4403
 21
21.751
 31
0.0
  0
LINE
  8
0
 62
     0
 10
65.4403
 20
21.751
 30
0.0
 11
65.4403
 21
27.6159
 31
0.0
  0
LINE
  8
0
 62
     0
 10
65.4403
 20
27.6159
 30
0.0
 11
64.9002
 21
27.6159
 31
0.0
  0
LINE
  8
0
 62
     0
 10
64.9002
 20
27.6159
 30
0.0
 11
64.7637
 21
27.5842
 31
0.0
  0
LINE
  8
0
 62
     0
 10
64.7637
 20
27.5842
 30
0.0
 11
64.353
 21
27.4987
 31
0.0
  0
LINE
  8
0
 62
     0
 10
64.353
 20
27.4987
 30
0.0
 11
63.8623
 21
27.4188
 31
0.0
  0
LINE
  8
0
 62
     0
 10
63.8623
 20
27.4188
 30
0.0
 11
63.2919
 21
27.3596
 31
0.0
  0
LINE
  8
0
 62
     0
 10
63.2919
 20
27.3596
 30
0.0
 11
62.7034
 21
27.3113
 31
0.0
  0
LINE
  8
0
 62
     0
 10
62.7034
 20
27.3113
 30
0.0
 11
62.508
 21
27.2962
 31
0.0
  0
LINE
  8
0
 62
     0
 10
62.508
 20
27.2962
 30
0.0
 11
62.508
 21
26.8222
 31
0.0
  0
LINE
  8
0
 62
     0
 10
62.508
 20
26.8222
 30
0.0
 11
62.8883
 21
26.7891
 31
0.0
  0
LINE
  8
0
 62
     0
 10
62.8883
 20
26.7891
 30
0.0
 11
63.0178
 21
26.7753
 31
0.0
  0
LINE
  8
0
 62
     0
 10
63.0178
 20
26.7753
 30
0.0
 11
63.4037
 21
26.6802
 31
0.0
  0
LINE
  8
0
 62
     0
 10
63.4037
 20
26.6802
 30
0.0
 11
63.7233
 21
26.4597
 31
0.0
  0
LINE
  8
0
 62
     0
 10
63.7233
 20
26.4597
 30
0.0
 11
63.8845
 21
26.0739
 31
0.0
  0
LINE
  8
0
 62
     0
 10
63.8845
 20
26.0739
 30
0.0
 11
63.93
 21
25.6232
 31
0.0
  0
LINE
  8
0
 62
     0
 10
63.93
 20
25.6232
 30
0.0
 11
63.93
 21
25.4717
 31
0.0
  0
LINE
  8
0
 62
     0
 10
63.93
 20
25.4717
 30
0.0
 11
63.93
 21
21.9384
 31
0.0
  0
LINE
  8
0
 62
     0
 10
63.93
 20
21.9384
 30
0.0
 11
63.6612
 21
21.7055
 31
0.0
  0
LINE
  8
0
 62
     0
 10
63.6612
 20
21.7055
 30
0.0
 11
62.4374
 21
20.8925
 31
0.0
  0
LINE
  8
0
 62
     0
 10
62.4374
 20
20.8925
 30
0.0
 11
61.4772
 21
20.5438
 31
0.0
  0
LINE
  8
0
 62
     0
 10
61.4772
 20
20.5438
 30
0.0
 11
61.1572
 21
20.5438
 31
0.0
  0
LINE
  8
0
 62
     0
 10
61.1572
 20
20.5438
 30
0.0
 11
60.9946
 21
20.5438
 31
0.0
  0
LINE
  8
0
 62
     0
 10
60.9946
 20
20.5438
 30
0.0
 11
60.5095
 21
20.6471
 31
0.0
  0
LINE
  8
0
 62
     0
 10
60.5095
 20
20.6471
 30
0.0
 11
60.0604
 21
20.9641
 31
0.0
  0
LINE
  8
0
 62
     0
 10
60.0604
 20
20.9641
 30
0.0
 11
59.7972
 21
21.507
 31
0.0
  0
LINE
  8
0
 62
     0
 10
59.7972
 20
21.507
 30
0.0
 11
59.7133
 21
22.0913
 31
0.0
  0
LINE
  8
0
 62
     0
 10
59.7133
 20
22.0913
 30
0.0
 11
59.7133
 21
22.2856
 31
0.0
  0
LINE
  8
0
 62
     0
 10
59.7133
 20
22.2856
 30
0.0
 11
59.7133
 21
27.6159
 31
0.0
  0
LINE
  8
0
 62
     0
 10
59.7133
 20
27.6159
 30
0.0
 11
59.1785
 21
27.6159
 31
0.0
  0
LINE
  8
0
 62
     0
 10
59.1785
 20
27.6159
 30
0.0
 11
59.0405
 21
27.5842
 31
0.0
  0
LINE
  8
0
 62
     0
 10
59.0405
 20
27.5842
 30
0.0
 11
58.626
 21
27.4974
 31
0.0
  0
LINE
  8
0
 62
     0
 10
58.626
 20
27.4974
 30
0.0
 11
58.1283
 21
27.4147
 31
0.0
  0
LINE
  8
0
 62
     0
 10
58.1283
 20
27.4147
 30
0.0
 11
57.5564
 21
27.3541
 31
0.0
  0
LINE
  8
0
 62
     0
 10
57.5564
 20
27.3541
 30
0.0
 11
56.9778
 21
27.31
 31
0.0
  0
LINE
  8
0
 62
     0
 10
56.9778
 20
27.31
 30
0.0
 11
56.7863
 21
27.2962
 31
0.0
  0
LINE
  8
0
 62
     0
 10
56.7863
 20
27.2962
 30
0.0
 11
56.7863
 21
26.8222
 31
0.0
  0
LINE
  8
0
 62
     0
 10
56.7863
 20
26.8222
 30
0.0
 11
57.1666
 21
26.7891
 31
0.0
  0
LINE
  8
0
 62
     0
 10
57.1666
 20
26.7891
 30
0.0
 11
57.2961
 21
26.7753
 31
0.0
  0
LINE
  8
0
 62
     0
 10
57.2961
 20
26.7753
 30
0.0
 11
57.682
 21
26.6802
 31
0.0
  0
LINE
  8
0
 62
     0
 10
57.682
 20
26.6802
 30
0.0
 11
58.0016
 21
26.4597
 31
0.0
  0
LINE
  8
0
 62
     0
 10
58.0016
 20
26.4597
 30
0.0
 11
58.1628
 21
26.0739
 31
0.0
  0
LINE
  8
0
 62
     0
 10
58.1628
 20
26.0739
 30
0.0
 11
58.2083
 21
25.6232
 31
0.0
  0
LINE
  8
0
 62
     0
 10
58.2083
 20
25.6232
 30
0.0
 11
58.2083
 21
25.4717
 31
0.0
  0
LINE
  8
0
 62
     0
 10
58.2083
 20
25.4717
 30
0.0
 11
58.2083
 21
22.1589
 31
0.0
  0
LINE
  8
0
 62
     0
 10
58.2083
 20
22.1589
 30
0.0
 11
58.2083
 21
21.9177
 31
0.0
  0
LINE
  8
0
 62
     0
 10
58.2083
 20
21.9177
 30
0.0
 11
58.3255
 21
21.1942
 31
0.0
  0
LINE
  8
0
 62
     0
 10
58.3255
 20
21.1942
 30
0.0
 11
58.6246
 21
20.6141
 31
0.0
  0
LINE
  8
0
 62
     0
 10
58.6246
 20
20.6141
 30
0.0
 11
58.7156
 21
20.5107
 31
0.0
  0
LINE
  8
0
 62
     0
 10
58.7156
 20
20.5107
 30
0.0
 11
58.8229
 21
20.3881
 31
0.0
  0
LINE
  8
0
 62
     0
 10
58.8229
 20
20.3881
 30
0.0
 11
59.4953
 21
19.9636
 31
0.0
  0
LINE
  8
0
 62
     0
 10
59.4953
 20
19.9636
 30
0.0
 11
60.3031
 21
19.7831
 31
0.0
  0
LINE
  8
0
 62
     0
 10
60.3031
 20
19.7831
 30
0.0
 11
60.573
 21
19.7831
 31
0.0
  0
LINE
  8
0
 62
     0
 10
60.573
 20
19.7831
 30
0.0
 11
60.7755
 21
19.7831
 31
0.0
  0
LINE
  8
0
 62
     0
 10
60.7755
 20
19.7831
 30
0.0
 11
61.3876
 21
19.8603
 31
0.0
  0
LINE
  8
0
 62
     0
 10
61.3876
 20
19.8603
 30
0.0
 11
62.169
 21
20.1111
 31
0.0
  0
LINE
  8
0
 62
     0
 10
62.169
 20
20.1111
 30
0.0
 11
62.9916
 21
20.5672
 31
0.0
  0
LINE
  8
0
 62
     0
 10
62.9916
 20
20.5672
 30
0.0
 11
63.7025
 21
21.0785
 31
0.0
  0
LINE
  8
0
 62
     0
 10
63.7025
 20
21.0785
 30
0.0
 11
63.93
 21
21.2604
 31
0.0
  0
LINE
  8
0
 62
     0
 10
63.93
 20
21.2604
 30
0.0
 11
63.93
 21
19.9264
 31
0.0
  0
LINE
  8
0
 62
     0
 10
70.4314
 20
27.6159
 30
0.0
 11
69.8913
 21
27.6159
 31
0.0
  0
LINE
  8
0
 62
     0
 10
69.8913
 20
27.6159
 30
0.0
 11
69.6613
 21
27.5718
 31
0.0
  0
LINE
  8
0
 62
     0
 10
69.6613
 20
27.5718
 30
0.0
 11
68.7243
 21
27.4216
 31
0.0
  0
LINE
  8
0
 62
     0
 10
68.7243
 20
27.4216
 30
0.0
 11
67.7817
 21
27.3169
 31
0.0
  0
LINE
  8
0
 62
     0
 10
67.7817
 20
27.3169
 30
0.0
 11
67.5488
 21
27.2962
 31
0.0
  0
LINE
  8
0
 62
     0
 10
67.5488
 20
27.2962
 30
0.0
 11
67.5488
 21
26.8222
 31
0.0
  0
LINE
  8
0
 62
     0
 10
67.5488
 20
26.8222
 30
0.0
 11
67.8794
 21
26.7891
 31
0.0
  0
LINE
  8
0
 62
     0
 10
67.8794
 20
26.7891
 30
0.0
 11
68.0089
 21
26.7753
 31
0.0
  0
LINE
  8
0
 62
     0
 10
68.0089
 20
26.7753
 30
0.0
 11
68.3962
 21
26.6802
 31
0.0
  0
LINE
  8
0
 62
     0
 10
68.3962
 20
26.6802
 30
0.0
 11
68.7172
 21
26.4597
 31
0.0
  0
LINE
  8
0
 62
     0
 10
68.7172
 20
26.4597
 30
0.0
 11
68.8799
 21
26.0739
 31
0.0
  0
LINE
  8
0
 62
     0
 10
68.8799
 20
26.0739
 30
0.0
 11
68.9268
 21
25.6232
 31
0.0
  0
LINE
  8
0
 62
     0
 10
68.9268
 20
25.6232
 30
0.0
 11
68.9268
 21
25.4717
 31
0.0
  0
LINE
  8
0
 62
     0
 10
68.9268
 20
25.4717
 30
0.0
 11
68.9268
 21
18.135
 31
0.0
  0
LINE
  8
0
 62
     0
 10
68.9268
 20
18.135
 30
0.0
 11
68.9268
 21
17.8952
 31
0.0
  0
LINE
  8
0
 62
     0
 10
68.9268
 20
17.8952
 30
0.0
 11
68.6897
 21
17.1745
 31
0.0
  0
LINE
  8
0
 62
     0
 10
68.6897
 20
17.1745
 30
0.0
 11
68.1108
 21
16.8341
 31
0.0
  0
LINE
  8
0
 62
     0
 10
68.1108
 20
16.8341
 30
0.0
 11
67.9401
 21
16.8176
 31
0.0
  0
LINE
  8
0
 62
     0
 10
67.9401
 20
16.8176
 30
0.0
 11
67.5488
 21
16.79
 31
0.0
  0
LINE
  8
0
 62
     0
 10
67.5488
 20
16.79
 30
0.0
 11
67.5488
 21
16.3105
 31
0.0
  0
LINE
  8
0
 62
     0
 10
67.5488
 20
16.3105
 30
0.0
 11
71.8097
 21
16.3105
 31
0.0
  0
LINE
  8
0
 62
     0
 10
71.8097
 20
16.3105
 30
0.0
 11
71.8097
 21
16.79
 31
0.0
  0
LINE
  8
0
 62
     0
 10
71.8097
 20
16.79
 30
0.0
 11
71.4128
 21
16.8176
 31
0.0
  0
LINE
  8
0
 62
     0
 10
71.4128
 20
16.8176
 30
0.0
 11
71.2431
 21
16.8341
 31
0.0
  0
LINE
  8
0
 62
     0
 10
71.2431
 20
16.8341
 30
0.0
 11
70.667
 21
17.1745
 31
0.0
  0
LINE
  8
0
 62
     0
 10
70.667
 20
17.1745
 30
0.0
 11
70.4314
 21
17.8952
 31
0.0
  0
LINE
  8
0
 62
     0
 10
70.4314
 20
17.8952
 30
0.0
 11
70.4314
 21
18.135
 31
0.0
  0
LINE
  8
0
 62
     0
 10
70.4314
 20
18.135
 30
0.0
 11
70.4314
 21
20.5934
 31
0.0
  0
LINE
  8
0
 62
     0
 10
70.4314
 20
20.5934
 30
0.0
 11
70.6176
 21
20.4501
 31
0.0
  0
LINE
  8
0
 62
     0
 10
70.6176
 20
20.4501
 30
0.0
 11
71.5807
 21
19.9733
 31
0.0
  0
LINE
  8
0
 62
     0
 10
71.5807
 20
19.9733
 30
0.0
 11
72.595
 21
19.7831
 31
0.0
  0
LINE
  8
0
 62
     0
 10
72.595
 20
19.7831
 30
0.0
 11
72.934
 21
19.7831
 31
0.0
  0
LINE
  8
0
 62
     0
 10
72.934
 20
19.7831
 30
0.0
 11
73.2839
 21
19.7831
 31
0.0
  0
LINE
  8
0
 62
     0
 10
73.2839
 20
19.7831
 30
0.0
 11
74.3342
 21
20.0904
 31
0.0
  0
LINE
  8
0
 62
     0
 10
74.3342
 20
20.0904
 30
0.0
 11
75.4546
 21
20.9365
 31
0.0
  0
LINE
  8
0
 62
     0
 10
75.4546
 20
20.9365
 30
0.0
 11
76.1972
 21
22.214
 31
0.0
  0
LINE
  8
0
 62
     0
 10
76.1972
 20
22.214
 30
0.0
 11
76.4674
 21
23.4129
 31
0.0
  0
LINE
  8
0
 62
     0
 10
76.4674
 20
23.4129
 30
0.0
 11
76.4674
 21
23.8125
 31
0.0
  0
LINE
  8
0
 62
     0
 10
76.4674
 20
23.8125
 30
0.0
 11
76.4674
 21
24.1791
 31
0.0
  0
LINE
  8
0
 62
     0
 10
76.4674
 20
24.1791
 30
0.0
 11
76.2346
 21
25.276
 31
0.0
  0
LINE
  8
0
 62
     0
 10
76.2346
 20
25.276
 30
0.0
 11
75.7315
 21
26.3577
 31
0.0
  0
LINE
  8
0
 62
     0
 10
75.7315
 20
26.3577
 30
0.0
 11
75.5964
 21
26.5355
 31
0.0
  0
LINE
  8
0
 62
     0
 10
75.5964
 20
26.5355
 30
0.0
 11
75.4546
 21
26.7257
 31
0.0
  0
LINE
  8
0
 62
     0
 10
75.4546
 20
26.7257
 30
0.0
 11
74.4774
 21
27.4326
 31
0.0
  0
LINE
  8
0
 62
     0
 10
74.4774
 20
27.4326
 30
0.0
 11
73.382
 21
27.7592
 31
0.0
  0
LINE
  8
0
 62
     0
 10
73.382
 20
27.7592
 30
0.0
 11
73.0169
 21
27.7592
 31
0.0
  0
LINE
  8
0
 62
     0
 10
73.0169
 20
27.7592
 30
0.0
 11
72.6613
 21
27.7592
 31
0.0
  0
LINE
  8
0
 62
     0
 10
72.6613
 20
27.7592
 30
0.0
 11
71.5973
 21
27.4684
 31
0.0
  0
LINE
  8
0
 62
     0
 10
71.5973
 20
27.4684
 30
0.0
 11
70.6092
 21
26.7711
 31
0.0
  0
LINE
  8
0
 62
     0
 10
70.6092
 20
26.7711
 30
0.0
 11
70.4314
 21
26.5686
 31
0.0
  0
LINE
  8
0
 62
     0
 10
70.4314
 20
26.5686
 30
0.0
 11
70.4314
 21
27.6159
 31
0.0
  0
LINE
  8
0
 62
     0
 10
70.4314
 20
25.7748
 30
0.0
 11
70.5982
 21
26.0008
 31
0.0
  0
LINE
  8
0
 62
     0
 10
70.5982
 20
26.0008
 30
0.0
 11
71.4237
 21
26.7477
 31
0.0
  0
LINE
  8
0
 62
     0
 10
71.4237
 20
26.7477
 30
0.0
 11
72.2464
 21
27.0426
 31
0.0
  0
LINE
  8
0
 62
     0
 10
72.2464
 20
27.0426
 30
0.0
 11
72.5205
 21
27.0426
 31
0.0
  0
LINE
  8
0
 62
     0
 10
72.5205
 20
27.0426
 30
0.0
 11
72.7604
 21
27.0426
 31
0.0
  0
LINE
  8
0
 62
     0
 10
72.7604
 20
27.0426
 30
0.0
 11
73.4797
 21
26.8001
 31
0.0
  0
LINE
  8
0
 62
     0
 10
73.4797
 20
26.8001
 30
0.0
 11
74.2156
 21
26.1111
 31
0.0
  0
LINE
  8
0
 62
     0
 10
74.2156
 20
26.1111
 30
0.0
 11
74.6855
 21
25.0321
 31
0.0
  0
LINE
  8
0
 62
     0
 10
74.6855
 20
25.0321
 30
0.0
 11
74.8524
 21
23.9737
 31
0.0
  0
LINE
  8
0
 62
     0
 10
74.8524
 20
23.9737
 30
0.0
 11
74.8524
 21
23.6196
 31
0.0
  0
LINE
  8
0
 62
     0
 10
74.8524
 20
23.6196
 30
0.0
 11
74.8524
 21
23.3081
 31
0.0
  0
LINE
  8
0
 62
     0
 10
74.8524
 20
23.3081
 30
0.0
 11
74.6799
 21
22.3697
 31
0.0
  0
LINE
  8
0
 62
     0
 10
74.6799
 20
22.3697
 30
0.0
 11
74.2005
 21
21.3817
 31
0.0
  0
LINE
  8
0
 62
     0
 10
74.2005
 20
21.3817
 30
0.0
 11
73.4674
 21
20.7339
 31
0.0
  0
LINE
  8
0
 62
     0
 10
73.4674
 20
20.7339
 30
0.0
 11
72.7685
 21
20.4997
 31
0.0
  0
LINE
  8
0
 62
     0
 10
72.7685
 20
20.4997
 30
0.0
 11
72.5371
 21
20.4997
 31
0.0
  0
LINE
  8
0
 62
     0
 10
72.5371
 20
20.4997
 30
0.0
 11
72.2559
 21
20.4997
 31
0.0
  0
LINE
  8
0
 62
     0
 10
72.2559
 20
20.4997
 30
0.0
 11
71.4142
 21
20.7147
 31
0.0
  0
LINE
  8
0
 62
     0
 10
71.4142
 20
20.7147
 30
0.0
 11
70.5817
 21
21.2232
 31
0.0
  0
LINE
  8
0
 62
     0
 10
70.5817
 20
21.2232
 30
0.0
 11
70.4314
 21
21.3706
 31
0.0
  0
LINE
  8
0
 62
     0
 10
70.4314
 20
21.3706
 30
0.0
 11
70.4314
 21
25.7748
 31
0.0
  0
LINE
  8
0
 62
     0
 10
22.0238
 20
51.5373
 30
0.0
 11
21.7096
 21
50.8635
 31
0.0
  0
LINE
  8
0
 62
     0
 10
21.7096
 20
50.8635
 30
0.0
 11
20.603
 21
48.9148
 31
0.0
  0
LINE
  8
0
 62
     0
 10
20.603
 20
48.9148
 30
0.0
 11
19.1286
 21
47.0408
 31
0.0
  0
LINE
  8
0
 62
     0
 10
19.1286
 20
47.0408
 30
0.0
 11
17.581
 21
45.89
 31
0.0
  0
LINE
  8
0
 62
     0
 10
17.581
 20
45.89
 30
0.0
 11
16.3532
 21
45.4671
 31
0.0
  0
LINE
  8
0
 62
     0
 10
16.3532
 20
45.4671
 30
0.0
 11
15.9384
 21
45.441
 31
0.0
  0
LINE
  8
0
 62
     0
 10
15.9384
 20
45.441
 30
0.0
 11
15.5925
 21
45.4297
 31
0.0
  0
LINE
  8
0
 62
     0
 10
15.5925
 20
45.4297
 30
0.0
 11
13.9485
 21
45.6942
 31
0.0
  0
LINE
  8
0
 62
     0
 10
13.9485
 20
45.6942
 30
0.0
 11
12.3748
 21
46.3462
 31
0.0
  0
LINE
  8
0
 62
     0
 10
12.3748
 20
46.3462
 30
0.0
 11
12.0633
 21
46.5268
 31
0.0
  0
LINE
  8
0
 62
     0
 10
12.0633
 20
46.5268
 30
0.0
 11
11.8181
 21
46.6492
 31
0.0
  0
LINE
  8
0
 62
     0
 10
11.8181
 20
46.6492
 30
0.0
 11
10.582
 21
47.6913
 31
0.0
  0
LINE
  8
0
 62
     0
 10
10.582
 20
47.6913
 30
0.0
 11
9.28522
 21
49.2457
 31
0.0
  0
LINE
  8
0
 62
     0
 10
9.28522
 20
49.2457
 30
0.0
 11
9.00963
 21
49.6245
 31
0.0
  0
LINE
  8
0
 62
     0
 10
9.00963
 20
49.6245
 30
0.0
 11
8.75467
 21
49.9403
 31
0.0
  0
LINE
  8
0
 62
     0
 10
8.75467
 20
49.9403
 30
0.0
 11
7.68396
 21
51.8887
 31
0.0
  0
LINE
  8
0
 62
     0
 10
7.68396
 20
51.8887
 30
0.0
 11
6.8006
 21
54.2988
 31
0.0
  0
LINE
  8
0
 62
     0
 10
6.8006
 20
54.2988
 30
0.0
 11
6.63938
 21
54.8446
 31
0.0
  0
LINE
  8
0
 62
     0
 10
6.63938
 20
54.8446
 30
0.0
 11
6.54981
 21
55.1448
 31
0.0
  0
LINE
  8
0
 62
     0
 10
6.54981
 20
55.1448
 30
0.0
 11
6.23701
 21
57.3169
 31
0.0
  0
LINE
  8
0
 62
     0
 10
6.23701
 20
57.3169
 30
0.0
 11
6.10471
 21
60.168
 31
0.0
  0
LINE
  8
0
 62
     0
 10
6.10471
 20
60.168
 30
0.0
 11
6.10471
 21
61.1173
 31
0.0
  0
LINE
  8
0
 62
     0
 10
6.10471
 20
61.1173
 30
0.0
 11
6.08954
 21
62.2501
 31
0.0
  0
LINE
  8
0
 62
     0
 10
6.08954
 20
62.2501
 30
0.0
 11
6.43544
 21
67.2758
 31
0.0
  0
LINE
  8
0
 62
     0
 10
6.43544
 20
67.2758
 30
0.0
 11
7.2843
 21
71.3521
 31
0.0
  0
LINE
  8
0
 62
     0
 10
7.2843
 20
71.3521
 30
0.0
 11
7.52133
 21
72.0094
 31
0.0
  0
LINE
  8
0
 62
     0
 10
7.52133
 20
72.0094
 30
0.0
 11
7.72114
 21
72.5689
 31
0.0
  0
LINE
  8
0
 62
     0
 10
7.72114
 20
72.5689
 30
0.0
 11
9.37754
 21
75.1886
 31
0.0
  0
LINE
  8
0
 62
     0
 10
9.37754
 20
75.1886
 30
0.0
 11
11.8429
 21
77.4869
 31
0.0
  0
LINE
  8
0
 62
     0
 10
11.8429
 20
77.4869
 30
0.0
 11
12.4492
 21
77.8852
 31
0.0
  0
LINE
  8
0
 62
     0
 10
12.4492
 20
77.8852
 30
0.0
 11
14.858
 21
77.8852
 31
0.0
  0
LINE
  8
0
 62
     0
 10
14.858
 20
77.8852
 30
0.0
 11
14.858
 21
76.0995
 31
0.0
  0
LINE
  8
0
 62
     0
 10
14.858
 20
76.0995
 30
0.0
 11
14.497
 21
75.8529
 31
0.0
  0
LINE
  8
0
 62
     0
 10
14.497
 20
75.8529
 30
0.0
 11
12.9026
 21
74.2417
 31
0.0
  0
LINE
  8
0
 62
     0
 10
12.9026
 20
74.2417
 30
0.0
 11
11.548
 21
72.0947
 31
0.0
  0
LINE
  8
0
 62
     0
 10
11.548
 20
72.0947
 30
0.0
 11
11.3082
 21
71.5793
 31
0.0
  0
LINE
  8
0
 62
     0
 10
11.3082
 20
71.5793
 30
0.0
 11
11.1676
 21
71.2833
 31
0.0
  0
LINE
  8
0
 62
     0
 10
11.1676
 20
71.2833
 30
0.0
 11
10.9457
 21
70.2952
 31
0.0
  0
LINE
  8
0
 62
     0
 10
10.9457
 20
70.2952
 30
0.0
 11
10.6977
 21
68.2142
 31
0.0
  0
LINE
  8
0
 62
     0
 10
10.6977
 20
68.2142
 30
0.0
 11
10.5544
 21
65.3232
 31
0.0
  0
LINE
  8
0
 62
     0
 10
10.5544
 20
65.3232
 30
0.0
 11
10.5089
 21
62.5327
 31
0.0
  0
LINE
  8
0
 62
     0
 10
10.5089
 20
62.5327
 30
0.0
 11
10.5089
 21
61.6024
 31
0.0
  0
LINE
  8
0
 62
     0
 10
10.5089
 20
61.6024
 30
0.0
 11
10.48
 21
60.6365
 31
0.0
  0
LINE
  8
0
 62
     0
 10
10.48
 20
60.6365
 30
0.0
 11
10.7611
 21
56.4624
 31
0.0
  0
LINE
  8
0
 62
     0
 10
10.7611
 20
56.4624
 30
0.0
 11
11.4956
 21
53.1414
 31
0.0
  0
LINE
  8
0
 62
     0
 10
11.4956
 20
53.1414
 30
0.0
 11
11.694
 21
52.6009
 31
0.0
  0
LINE
  8
0
 62
     0
 10
11.694
 20
52.6009
 30
0.0
 11
11.8497
 21
52.1381
 31
0.0
  0
LINE
  8
0
 62
     0
 10
11.8497
 20
52.1381
 30
0.0
 11
12.4919
 21
50.8042
 31
0.0
  0
LINE
  8
0
 62
     0
 10
12.4919
 20
50.8042
 30
0.0
 11
13.4731
 21
49.5639
 31
0.0
  0
LINE
  8
0
 62
     0
 10
13.4731
 20
49.5639
 30
0.0
 11
14.6251
 21
48.8541
 31
0.0
  0
LINE
  8
0
 62
     0
 10
14.6251
 20
48.8541
 30
0.0
 11
15.6118
 21
48.6435
 31
0.0
  0
LINE
  8
0
 62
     0
 10
15.6118
 20
48.6435
 30
0.0
 11
15.9384
 21
48.6544
 31
0.0
  0
LINE
  8
0
 62
     0
 10
15.9384
 20
48.6544
 30
0.0
 11
16.1699
 21
48.6449
 31
0.0
  0
LINE
  8
0
 62
     0
 10
16.1699
 20
48.6449
 30
0.0
 11
17.2641
 21
49.1105
 31
0.0
  0
LINE
  8
0
 62
     0
 10
17.2641
 20
49.1105
 30
0.0
 11
18.2259
 21
50.1992
 31
0.0
  0
LINE
  8
0
 62
     0
 10
18.2259
 20
50.1992
 30
0.0
 11
18.3913
 21
50.5008
 31
0.0
  0
LINE
  8
0
 62
     0
 10
18.3913
 20
50.5008
 30
0.0
 11
18.6573
 21
50.9997
 31
0.0
  0
LINE
  8
0
 62
     0
 10
18.6573
 20
50.9997
 30
0.0
 11
19.6164
 21
53.6582
 31
0.0
  0
LINE
  8
0
 62
     0
 10
19.6164
 20
53.6582
 30
0.0
 11
20.0449
 21
56.1813
 31
0.0
  0
LINE
  8
0
 62
     0
 10
20.0449
 20
56.1813
 30
0.0
 11
20.0449
 21
57.0219
 31
0.0
  0
LINE
  8
0
 62
     0
 10
20.0449
 20
57.0219
 30
0.0
 11
20.0449
 21
67.9415
 31
0.0
  0
LINE
  8
0
 62
     0
 10
20.0449
 20
67.9415
 30
0.0
 11
24.0082
 21
67.9415
 31
0.0
  0
LINE
  8
0
 62
     0
 10
24.0082
 20
67.9415
 30
0.0
 11
24.0082
 21
57.0219
 31
0.0
  0
LINE
  8
0
 62
     0
 10
24.0082
 20
57.0219
 30
0.0
 11
23.9999
 21
56.4487
 31
0.0
  0
LINE
  8
0
 62
     0
 10
23.9999
 20
56.4487
 30
0.0
 11
24.4092
 21
53.6815
 31
0.0
  0
LINE
  8
0
 62
     0
 10
24.4092
 20
53.6815
 30
0.0
 11
25.3862
 21
51.0219
 31
0.0
  0
LINE
  8
0
 62
     0
 10
25.3862
 20
51.0219
 30
0.0
 11
25.6618
 21
50.5008
 31
0.0
  0
LINE
  8
0
 62
     0
 10
25.6618
 20
50.5008
 30
0.0
 11
25.7542
 21
50.2818
 31
0.0
  0
LINE
  8
0
 62
     0
 10
25.7542
 20
50.2818
 30
0.0
 11
26.14
 21
49.6686
 31
0.0
  0
LINE
  8
0
 62
     0
 10
26.14
 20
49.6686
 30
0.0
 11
26.7298
 21
49.0996
 31
0.0
  0
LINE
  8
0
 62
     0
 10
26.7298
 20
49.0996
 30
0.0
 11
27.3995
 21
48.7701
 31
0.0
  0
LINE
  8
0
 62
     0
 10
27.3995
 20
48.7701
 30
0.0
 11
27.9397
 21
48.6586
 31
0.0
  0
LINE
  8
0
 62
     0
 10
27.9397
 20
48.6586
 30
0.0
 11
28.1202
 21
48.6544
 31
0.0
  0
LINE
  8
0
 62
     0
 10
28.1202
 20
48.6544
 30
0.0
 11
28.4289
 21
48.6336
 31
0.0
  0
LINE
  8
0
 62
     0
 10
28.4289
 20
48.6336
 30
0.0
 11
29.3784
 21
48.8403
 31
0.0
  0
LINE
  8
0
 62
     0
 10
29.3784
 20
48.8403
 30
0.0
 11
30.5235
 21
49.5723
 31
0.0
  0
LINE
  8
0
 62
     0
 10
30.5235
 20
49.5723
 30
0.0
 11
31.5254
 21
50.8317
 31
0.0
  0
LINE
  8
0
 62
     0
 10
31.5254
 20
50.8317
 30
0.0
 11
32.1882
 21
52.1451
 31
0.0
  0
LINE
  8
0
 62
     0
 10
32.1882
 20
52.1451
 30
0.0
 11
32.3536
 21
52.6009
 31
0.0
  0
LINE
  8
0
 62
     0
 10
32.3536
 20
52.6009
 30
0.0
 11
32.5245
 21
53.1206
 31
0.0
  0
LINE
  8
0
 62
     0
 10
32.5245
 20
53.1206
 30
0.0
 11
33.2025
 21
56.4416
 31
0.0
  0
LINE
  8
0
 62
     0
 10
33.2025
 20
56.4416
 30
0.0
 11
33.5387
 21
60.3127
 31
0.0
  0
LINE
  8
0
 62
     0
 10
33.5387
 20
60.3127
 30
0.0
 11
33.5387
 21
61.6024
 31
0.0
  0
LINE
  8
0
 62
     0
 10
33.5387
 20
61.6024
 30
0.0
 11
33.5332
 21
62.5327
 31
0.0
  0
LINE
  8
0
 62
     0
 10
33.5332
 20
62.5327
 30
0.0
 11
33.4753
 21
65.3203
 31
0.0
  0
LINE
  8
0
 62
     0
 10
33.4753
 20
65.3203
 30
0.0
 11
33.3279
 21
68.2265
 31
0.0
  0
LINE
  8
0
 62
     0
 10
33.3279
 20
68.2265
 30
0.0
 11
33.0867
 21
70.3157
 31
0.0
  0
LINE
  8
0
 62
     0
 10
33.0867
 20
70.3157
 30
0.0
 11
32.8772
 21
71.2971
 31
0.0
  0
LINE
  8
0
 62
     0
 10
32.8772
 20
71.2971
 30
0.0
 11
32.7449
 21
71.5793
 31
0.0
  0
LINE
  8
0
 62
     0
 10
32.7449
 20
71.5793
 30
0.0
 11
32.5038
 21
72.081
 31
0.0
  0
LINE
  8
0
 62
     0
 10
32.5038
 20
72.081
 30
0.0
 11
31.134
 21
74.2336
 31
0.0
  0
LINE
  8
0
 62
     0
 10
31.134
 20
74.2336
 30
0.0
 11
29.5451
 21
75.8624
 31
0.0
  0
LINE
  8
0
 62
     0
 10
29.5451
 20
75.8624
 30
0.0
 11
29.1951
 21
76.0995
 31
0.0
  0
LINE
  8
0
 62
     0
 10
29.1951
 20
76.0995
 30
0.0
 11
29.1951
 21
77.8852
 31
0.0
  0
LINE
  8
0
 62
     0
 10
29.1951
 20
77.8852
 30
0.0
 11
31.5984
 21
77.8852
 31
0.0
  0
LINE
  8
0
 62
     0
 10
31.5984
 20
77.8852
 30
0.0
 11
32.1827
 21
77.476
 31
0.0
  0
LINE
  8
0
 62
     0
 10
32.1827
 20
77.476
 30
0.0
 11
34.6191
 21
75.2038
 31
0.0
  0
LINE
  8
0
 62
     0
 10
34.6191
 20
75.2038
 30
0.0
 11
36.3167
 21
72.5911
 31
0.0
  0
LINE
  8
0
 62
     0
 10
36.3167
 20
72.5911
 30
0.0
 11
36.5319
 21
72.0094
 31
0.0
  0
LINE
  8
0
 62
     0
 10
36.5319
 20
72.0094
 30
0.0
 11
36.7467
 21
71.3313
 31
0.0
  0
LINE
  8
0
 62
     0
 10
36.7467
 20
71.3313
 30
0.0
 11
37.5652
 21
67.2814
 31
0.0
  0
LINE
  8
0
 62
     0
 10
37.5652
 20
67.2814
 30
0.0
 11
37.9539
 21
62.6593
 31
0.0
  0
LINE
  8
0
 62
     0
 10
37.9539
 20
62.6593
 30
0.0
 11
37.9539
 21
61.1173
 31
0.0
  0
LINE
  8
0
 62
     0
 10
37.9539
 20
61.1173
 30
0.0
 11
37.9307
 21
60.3497
 31
0.0
  0
LINE
  8
0
 62
     0
 10
37.9307
 20
60.3497
 30
0.0
 11
37.7832
 21
57.2823
 31
0.0
  0
LINE
  8
0
 62
     0
 10
37.7832
 20
57.2823
 30
0.0
 11
37.5035
 21
55.1476
 31
0.0
  0
LINE
  8
0
 62
     0
 10
37.5035
 20
55.1476
 30
0.0
 11
37.4138
 21
54.8446
 31
0.0
  0
LINE
  8
0
 62
     0
 10
37.4138
 20
54.8446
 30
0.0
 11
37.2442
 21
54.296
 31
0.0
  0
LINE
  8
0
 62
     0
 10
37.2442
 20
54.296
 30
0.0
 11
36.3238
 21
51.8968
 31
0.0
  0
LINE
  8
0
 62
     0
 10
36.3238
 20
51.8968
 30
0.0
 11
35.2764
 21
49.9484
 31
0.0
  0
LINE
  8
0
 62
     0
 10
35.2764
 20
49.9484
 30
0.0
 11
35.0435
 21
49.6245
 31
0.0
  0
LINE
  8
0
 62
     0
 10
35.0435
 20
49.6245
 30
0.0
 11
34.7514
 21
49.2372
 31
0.0
  0
LINE
  8
0
 62
     0
 10
34.7514
 20
49.2372
 30
0.0
 11
33.4284
 21
47.7008
 31
0.0
  0
LINE
  8
0
 62
     0
 10
33.4284
 20
47.7008
 30
0.0
 11
32.2227
 21
46.6644
 31
0.0
  0
LINE
  8
0
 62
     0
 10
32.2227
 20
46.6644
 30
0.0
 11
31.9898
 21
46.5268
 31
0.0
  0
LINE
  8
0
 62
     0
 10
31.9898
 20
46.5268
 30
0.0
 11
31.6508
 21
46.3324
 31
0.0
  0
LINE
  8
0
 62
     0
 10
31.6508
 20
46.3324
 30
0.0
 11
30.0454
 21
45.6918
 31
0.0
  0
LINE
  8
0
 62
     0
 10
30.0454
 20
45.6918
 30
0.0
 11
28.6012
 21
45.441
 31
0.0
  0
LINE
  8
0
 62
     0
 10
28.6012
 20
45.441
 30
0.0
 11
28.1202
 21
45.441
 31
0.0
  0
LINE
  8
0
 62
     0
 10
28.1202
 20
45.441
 30
0.0
 11
27.6944
 21
45.4572
 31
0.0
  0
LINE
  8
0
 62
     0
 10
27.6944
 20
45.4572
 30
0.0
 11
26.4322
 21
45.8819
 31
0.0
  0
LINE
  8
0
 62
     0
 10
26.4322
 20
45.8819
 30
0.0
 11
24.8736
 21
47.0531
 31
0.0
  0
LINE
  8
0
 62
     0
 10
24.8736
 20
47.0531
 30
0.0
 11
23.4142
 21
48.9423
 31
0.0
  0
LINE
  8
0
 62
     0
 10
23.4142
 20
48.9423
 30
0.0
 11
22.3325
 21
50.8716
 31
0.0
  0
LINE
  8
0
 62
     0
 10
22.3325
 20
50.8716
 30
0.0
 11
22.0238
 21
51.5373
 31
0.0
  0
LINE
  8
0
 62
     0
 10
32.3674
 20
19.4855
 30
0.0
 11
34.1092
 21
27.5498
 31
0.0
  0
LINE
  8
0
 62
     0
 10
34.1092
 20
27.5498
 30
0.0
 11
26.6788
 21
27.5498
 31
0.0
  0
LINE
  8
0
 62
     0
 10
26.6788
 20
27.5498
 30
0.0
 11
27.3734
 21
30.7248
 31
0.0
  0
LINE
  8
0
 62
     0
 10
27.3734
 20
30.7248
 30
0.0
 11
39.2356
 21
30.7248
 31
0.0
  0
LINE
  8
0
 62
     0
 10
39.2356
 20
30.7248
 30
0.0
 11
36.347
 21
17.4405
 31
0.0
  0
LINE
  8
0
 62
     0
 10
36.347
 20
17.4405
 30
0.0
 11
35.8415
 21
17.1952
 31
0.0
  0
LINE
  8
0
 62
     0
 10
35.8415
 20
17.1952
 30
0.0
 11
33.2355
 21
16.1754
 31
0.0
  0
LINE
  8
0
 62
     0
 10
33.2355
 20
16.1754
 30
0.0
 11
30.4753
 21
15.3913
 31
0.0
  0
LINE
  8
0
 62
     0
 10
30.4753
 20
15.3913
 30
0.0
 11
29.8924
 21
15.2631
 31
0.0
  0
LINE
  8
0
 62
     0
 10
29.8924
 20
15.2631
 30
0.0
 11
29.3054
 21
15.1309
 31
0.0
  0
LINE
  8
0
 62
     0
 10
29.3054
 20
15.1309
 30
0.0
 11
24.4698
 21
14.497
 31
0.0
  0
LINE
  8
0
 62
     0
 10
24.4698
 20
14.497
 30
0.0
 11
22.8589
 21
14.497
 31
0.0
  0
LINE
  8
0
 62
     0
 10
22.8589
 20
14.497
 30
0.0
 11
22.1161
 21
14.497
 31
0.0
  0
LINE
  8
0
 62
     0
 10
22.1161
 20
14.497
 30
0.0
 11
19.8906
 21
14.6954
 31
0.0
  0
LINE
  8
0
 62
     0
 10
19.8906
 20
14.6954
 30
0.0
 11
17.2751
 21
15.2866
 31
0.0
  0
LINE
  8
0
 62
     0
 10
17.2751
 20
15.2866
 30
0.0
 11
15.0055
 21
16.2746
 31
0.0
  0
LINE
  8
0
 62
     0
 10
15.0055
 20
16.2746
 30
0.0
 11
13.513
 21
17.2627
 31
0.0
  0
LINE
  8
0
 62
     0
 10
13.513
 20
17.2627
 30
0.0
 11
13.0748
 21
17.6554
 31
0.0
  0
LINE
  8
0
 62
     0
 10
13.0748
 20
17.6554
 30
0.0
 11
12.6352
 21
18.0206
 31
0.0
  0
LINE
  8
0
 62
     0
 10
12.6352
 20
18.0206
 30
0.0
 11
11.5066
 21
19.3449
 31
0.0
  0
LINE
  8
0
 62
     0
 10
11.5066
 20
19.3449
 30
0.0
 11
10.4069
 21
21.3968
 31
0.0
  0
LINE
  8
0
 62
     0
 10
10.4069
 20
21.3968
 30
0.0
 11
9.75928
 21
23.778
 31
0.0
  0
LINE
  8
0
 62
     0
 10
9.75928
 20
23.778
 30
0.0
 11
9.54705
 21
25.7886
 31
0.0
  0
LINE
  8
0
 62
     0
 10
9.54705
 20
25.7886
 30
0.0
 11
9.54705
 21
26.4583
 31
0.0
  0
LINE
  8
0
 62
     0
 10
9.54705
 20
26.4583
 30
0.0
 11
9.53325
 21
27.2121
 31
0.0
  0
LINE
  8
0
 62
     0
 10
9.53325
 20
27.2121
 30
0.0
 11
10.0597
 21
30.9838
 31
0.0
  0
LINE
  8
0
 62
     0
 10
10.0597
 20
30.9838
 30
0.0
 11
11.3247
 21
34.6577
 31
0.0
  0
LINE
  8
0
 62
     0
 10
11.3247
 20
34.6577
 30
0.0
 11
11.6803
 21
35.3603
 31
0.0
  0
LINE
  8
0
 62
     0
 10
11.6803
 20
35.3603
 30
0.0
 11
12.0206
 21
36.062
 31
0.0
  0
LINE
  8
0
 62
     0
 10
12.0206
 20
36.062
 30
0.0
 11
14.2021
 21
39.2314
 31
0.0
  0
LINE
  8
0
 62
     0
 10
14.2021
 20
39.2314
 30
0.0
 11
16.9554
 21
41.9407
 31
0.0
  0
LINE
  8
0
 62
     0
 10
16.9554
 20
41.9407
 30
0.0
 11
17.5838
 21
42.4106
 31
0.0
  0
LINE
  8
0
 62
     0
 10
17.5838
 20
42.4106
 30
0.0
 11
17.9696
 21
42.6999
 31
0.0
  0
LINE
  8
0
 62
     0
 10
17.9696
 20
42.6999
 30
0.0
 11
20.0477
 21
43.9388
 31
0.0
  0
LINE
  8
0
 62
     0
 10
20.0477
 20
43.9388
 30
0.0
 11
22.2911
 21
44.8853
 31
0.0
  0
LINE
  8
0
 62
     0
 10
22.2911
 20
44.8853
 30
0.0
 11
22.7597
 21
45.0289
 31
0.0
  0
LINE
  8
0
 62
     0
 10
22.7597
 20
45.0289
 30
0.0
 11
23.202
 21
45.157
 31
0.0
  0
LINE
  8
0
 62
     0
 10
23.202
 20
45.157
 30
0.0
 11
25.6894
 21
45.6544
 31
0.0
  0
LINE
  8
0
 62
     0
 10
25.6894
 20
45.6544
 30
0.0
 11
28.1795
 21
45.8943
 31
0.0
  0
LINE
  8
0
 62
     0
 10
28.1795
 20
45.8943
 30
0.0
 11
29.0105
 21
45.8943
 31
0.0
  0
LINE
  8
0
 62
     0
 10
29.0105
 20
45.8943
 30
0.0
 11
30.496
 21
45.8943
 31
0.0
  0
LINE
  8
0
 62
     0
 10
30.496
 20
45.8943
 30
0.0
 11
34.4785
 21
45.3072
 31
0.0
  0
LINE
  8
0
 62
     0
 10
34.4785
 20
45.3072
 30
0.0
 11
34.9526
 21
45.1887
 31
0.0
  0
LINE
  8
0
 62
     0
 10
34.9526
 20
45.1887
 30
0.0
 11
35.4129
 21
45.0716
 31
0.0
  0
LINE
  8
0
 62
     0
 10
35.4129
 20
45.0716
 30
0.0
 11
37.7155
 21
44.3068
 31
0.0
  0
LINE
  8
0
 62
     0
 10
37.7155
 20
44.3068
 30
0.0
 11
39.9602
 21
43.3077
 31
0.0
  0
LINE
  8
0
 62
     0
 10
39.9602
 20
43.3077
 30
0.0
 11
40.3931
 21
43.0721
 31
0.0
  0
LINE
  8
0
 62
     0
 10
40.3931
 20
43.0721
 30
0.0
 11
39.6049
 21
38.8387
 31
0.0
  0
LINE
  8
0
 62
     0
 10
39.6049
 20
38.8387
 30
0.0
 11
39.2494
 21
39.1541
 31
0.0
  0
LINE
  8
0
 62
     0
 10
39.2494
 20
39.1541
 30
0.0
 11
37.3902
 21
40.5045
 31
0.0
  0
LINE
  8
0
 62
     0
 10
37.3902
 20
40.5045
 30
0.0
 11
35.3413
 21
41.5562
 31
0.0
  0
LINE
  8
0
 62
     0
 10
35.3413
 20
41.5562
 30
0.0
 11
34.8919
 21
41.7216
 31
0.0
  0
LINE
  8
0
 62
     0
 10
34.8919
 20
41.7216
 30
0.0
 11
34.4317
 21
41.8828
 31
0.0
  0
LINE
  8
0
 62
     0
 10
34.4317
 20
41.8828
 30
0.0
 11
32.0862
 21
42.4628
 31
0.0
  0
LINE
  8
0
 62
     0
 10
32.0862
 20
42.4628
 30
0.0
 11
29.8704
 21
42.7193
 31
0.0
  0
LINE
  8
0
 62
     0
 10
29.8704
 20
42.7193
 30
0.0
 11
29.1317
 21
42.7193
 31
0.0
  0
LINE
  8
0
 62
     0
 10
29.1317
 20
42.7193
 30
0.0
 11
28.2856
 21
42.7193
 31
0.0
  0
LINE
  8
0
 62
     0
 10
28.2856
 20
42.7193
 30
0.0
 11
25.75
 21
42.4092
 31
0.0
  0
LINE
  8
0
 62
     0
 10
25.75
 20
42.4092
 30
0.0
 11
23.3302
 21
41.6856
 31
0.0
  0
LINE
  8
0
 62
     0
 10
23.3302
 20
41.6856
 30
0.0
 11
22.881
 21
41.4789
 31
0.0
  0
LINE
  8
0
 62
     0
 10
22.881
 20
41.4789
 30
0.0
 11
22.4221
 21
41.2584
 31
0.0
  0
LINE
  8
0
 62
     0
 10
22.4221
 20
41.2584
 30
0.0
 11
20.3123
 21
39.8762
 31
0.0
  0
LINE
  8
0
 62
     0
 10
20.3123
 20
39.8762
 30
0.0
 11
18.4106
 21
38.0668
 31
0.0
  0
LINE
  8
0
 62
     0
 10
18.4106
 20
38.0668
 30
0.0
 11
18.0578
 21
37.6315
 31
0.0
  0
LINE
  8
0
 62
     0
 10
18.0578
 20
37.6315
 30
0.0
 11
17.7381
 21
37.2456
 31
0.0
  0
LINE
  8
0
 62
     0
 10
17.7381
 20
37.2456
 30
0.0
 11
16.4138
 21
35.1937
 31
0.0
  0
LINE
  8
0
 62
     0
 10
16.4138
 20
35.1937
 30
0.0
 11
15.3817
 21
32.9131
 31
0.0
  0
LINE
  8
0
 62
     0
 10
15.3817
 20
32.9131
 30
0.0
 11
15.208
 21
32.4115
 31
0.0
  0
LINE
  8
0
 62
     0
 10
15.208
 20
32.4115
 30
0.0
 11
15.0192
 21
31.8878
 31
0.0
  0
LINE
  8
0
 62
     0
 10
15.0192
 20
31.8878
 30
0.0
 11
14.4074
 21
29.344
 31
0.0
  0
LINE
  8
0
 62
     0
 10
14.4074
 20
29.344
 30
0.0
 11
14.1718
 21
27.0523
 31
0.0
  0
LINE
  8
0
 62
     0
 10
14.1718
 20
27.0523
 30
0.0
 11
14.1718
 21
26.2874
 31
0.0
  0
LINE
  8
0
 62
     0
 10
14.1718
 20
26.2874
 30
0.0
 11
14.1538
 21
25.5612
 31
0.0
  0
LINE
  8
0
 62
     0
 10
14.1538
 20
25.5612
 30
0.0
 11
14.7436
 21
22.5116
 31
0.0
  0
LINE
  8
0
 62
     0
 10
14.7436
 20
22.5116
 30
0.0
 11
16.1644
 21
20.1938
 31
0.0
  0
LINE
  8
0
 62
     0
 10
16.1644
 20
20.1938
 30
0.0
 11
16.564
 21
19.8327
 31
0.0
  0
LINE
  8
0
 62
     0
 10
16.564
 20
19.8327
 30
0.0
 11
16.9526
 21
19.4689
 31
0.0
  0
LINE
  8
0
 62
     0
 10
16.9526
 20
19.4689
 30
0.0
 11
19.5309
 21
18.2067
 31
0.0
  0
LINE
  8
0
 62
     0
 10
19.5309
 20
18.2067
 30
0.0
 11
22.6591
 21
17.672
 31
0.0
  0
LINE
  8
0
 62
     0
 10
22.6591
 20
17.672
 30
0.0
 11
23.7023
 21
17.672
 31
0.0
  0
LINE
  8
0
 62
     0
 10
23.7023
 20
17.672
 30
0.0
 11
24.2783
 21
17.672
 31
0.0
  0
LINE
  8
0
 62
     0
 10
24.2783
 20
17.672
 30
0.0
 11
26.0105
 21
17.7877
 31
0.0
  0
LINE
  8
0
 62
     0
 10
26.0105
 20
17.7877
 30
0.0
 11
27.9246
 21
18.0578
 31
0.0
  0
LINE
  8
0
 62
     0
 10
27.9246
 20
18.0578
 30
0.0
 11
28.2939
 21
18.135
 31
0.0
  0
LINE
  8
0
 62
     0
 10
28.2939
 20
18.135
 30
0.0
 11
28.6453
 21
18.2039
 31
0.0
  0
LINE
  8
0
 62
     0
 10
28.6453
 20
18.2039
 30
0.0
 11
30.3926
 21
18.6903
 31
0.0
  0
LINE
  8
0
 62
     0
 10
30.3926
 20
18.6903
 30
0.0
 11
32.0573
 21
19.338
 31
0.0
  0
LINE
  8
0
 62
     0
 10
32.0573
 20
19.338
 30
0.0
 11
32.3674
 21
19.4855
 31
0.0
  0
LINE
  8
0
 62
     0
 10
0.205328
 20
3.689
 30
0.0
 11
86.9707
 21
74.4996
 31
0.0
  0
LINE
  8
0
 62
     0
 10
21.2714
 20
0.78686
 30
0.0
 11
64.2705
 21
79.3764
 31
0.0
  0
LINE
  8
0
 62
     0
 10
0.350022
 20
18.0041
 30
0.0
 11
86.9569
 21
58.5929
 31
0.0
  0
LINE
  8
0
 62
     0
 10
42.8142
 20
37.8629
 30
0.0
 11
86.9213
 21
52.1836
 31
0.0
  0
LINE
  8
0
 62
     0
 10
63.7727
 20
79.8862
 30
0.0
 11
65.0131
 21
79.1379
 31
0.0
  0
LINE
  8
0
 62
     0
 10
65.0131
 20
79.1379
 30
0.0
 11
21.6449
 21
0.538812
 31
0.0
  0
LINE
  8
0
 62
     0
 10
21.6449
 20
0.538812
 30
0.0
 11
20.4046
 21
1.28709
 31
0.0
  0
LINE
  8
0
 62
     0
 10
20.4046
 20
1.28709
 30
0.0
 11
63.7727
 21
79.8862
 31
0.0
  0
LINE
  8
0
 62
     0
 10
86.2859
 20
59.847
 30
0.0
 11
87.165
 21
57.9286
 31
0.0
  0
LINE
  8
0
 62
     0
 10
87.165
 20
57.9286
 30
0.0
 11
0.125402
 21
16.6095
 31
0.0
  0
LINE
  8
0
 62
     0
 10
0.125402
 20
16.6095
 30
0.0
 11
-0.753787
 21
18.5277
 31
0.0
  0
LINE
  8
0
 62
     0
 10
-0.753787
 20
18.5277
 30
0.0
 11
86.2859
 21
59.847
 31
0.0
  0
LINE
  8
0
 62
     0
 10
86.2323
 20
75.274
 30
0.0
 11
87.3661
 21
73.951
 31
0.0
  0
LINE
  8
0
 62
     0
 10
87.3661
 20
73.951
 30
0.0
 11
1.39733
 21
3.34174
 31
0.0
  0
LINE
  8
0
 62
     0
 10
1.39733
 20
3.34174
 30
0.0
 11
0.261827
 21
4.66605
 31
0.0
  0
LINE
  8
0
 62
     0
 10
0.261827
 20
4.66605
 30
0.0
 11
86.2323
 21
75.274
 31
0.0
  0
LINE
  8
0
 62
     0
 10
86.7971
 20
52.5046
 30
0.0
 11
87.2024
 21
51.5359
 31
0.0
  0
LINE
  8
0
 62
     0
 10
87.2024
 20
51.5359
 30
0.0
 11
41.2295
 21
36.9644
 31
0.0
  0
LINE
  8
0
 62
     0
 10
41.2295
 20
36.9644
 30
0.0
 11
40.8245
 21
37.9331
 31
0.0
  0
LINE
  8
0
 62
     0
 10
40.8245
 20
37.9331
 30
0.0
 11
86.7971
 21
52.5046
 31
0.0
  0
ENDSEC
  0
EOF
