%TF.GenerationSoftware,KiCad,Pcbnew,5.1.8+dfsg1-1+b1*%
%TF.CreationDate,2021-02-16T13:38:33-06:00*%
%TF.ProjectId,interrupt-hat,696e7465-7272-4757-9074-2d6861742e6b,A*%
%TF.SameCoordinates,Original*%
%TF.FileFunction,Soldermask,Top*%
%TF.FilePolarity,Negative*%
%FSLAX46Y46*%
G04 Gerber Fmt 4.6, Leading zero omitted, Abs format (unit mm)*
G04 Created by KiCad (PCBNEW 5.1.8+dfsg1-1+b1) date 2021-02-16 13:38:33*
%MOMM*%
%LPD*%
G01*
G04 APERTURE LIST*
%ADD10R,1.220000X0.650000*%
%ADD11C,1.524000*%
%ADD12O,1.727200X1.727200*%
%ADD13R,1.727200X1.727200*%
%ADD14C,6.200000*%
G04 APERTURE END LIST*
D10*
%TO.C,Q16*%
X92670000Y-83185000D03*
X95290000Y-82235000D03*
X95290000Y-84135000D03*
%TD*%
%TO.C,Q15*%
X92670000Y-66675000D03*
X95290000Y-65725000D03*
X95290000Y-67625000D03*
%TD*%
%TO.C,Q14*%
X92670000Y-86995000D03*
X95290000Y-86045000D03*
X95290000Y-87945000D03*
%TD*%
%TO.C,Q13*%
X79970000Y-86995000D03*
X82590000Y-86045000D03*
X82590000Y-87945000D03*
%TD*%
%TO.C,Q12*%
X67270000Y-86995000D03*
X69890000Y-86045000D03*
X69890000Y-87945000D03*
%TD*%
%TO.C,Q11*%
X54570000Y-86995000D03*
X57190000Y-86045000D03*
X57190000Y-87945000D03*
%TD*%
%TO.C,Q10*%
X79970000Y-83185000D03*
X82590000Y-82235000D03*
X82590000Y-84135000D03*
%TD*%
%TO.C,Q9*%
X79970000Y-66675000D03*
X82590000Y-65725000D03*
X82590000Y-67625000D03*
%TD*%
%TO.C,Q8*%
X67270000Y-83185000D03*
X69890000Y-82235000D03*
X69890000Y-84135000D03*
%TD*%
%TO.C,Q7*%
X67270000Y-66675000D03*
X69890000Y-65725000D03*
X69890000Y-67625000D03*
%TD*%
%TO.C,Q6*%
X92670000Y-70485000D03*
X95290000Y-69535000D03*
X95290000Y-71435000D03*
%TD*%
%TO.C,Q5*%
X79970000Y-70485000D03*
X82590000Y-69535000D03*
X82590000Y-71435000D03*
%TD*%
%TO.C,Q4*%
X67270000Y-70485000D03*
X69890000Y-69535000D03*
X69890000Y-71435000D03*
%TD*%
%TO.C,Q3*%
X54570000Y-70485000D03*
X57190000Y-69535000D03*
X57190000Y-71435000D03*
%TD*%
%TO.C,Q2*%
X54570000Y-83185000D03*
X57190000Y-82235000D03*
X57190000Y-84135000D03*
%TD*%
%TO.C,Q1*%
X54570000Y-66675000D03*
X57190000Y-65725000D03*
X57190000Y-67625000D03*
%TD*%
%TO.C,R1*%
G36*
G01*
X56145000Y-63490001D02*
X56145000Y-62239999D01*
G75*
G02*
X56394999Y-61990000I249999J0D01*
G01*
X57195001Y-61990000D01*
G75*
G02*
X57445000Y-62239999I0J-249999D01*
G01*
X57445000Y-63490001D01*
G75*
G02*
X57195001Y-63740000I-249999J0D01*
G01*
X56394999Y-63740000D01*
G75*
G02*
X56145000Y-63490001I0J249999D01*
G01*
G37*
G36*
G01*
X53045000Y-63490001D02*
X53045000Y-62239999D01*
G75*
G02*
X53294999Y-61990000I249999J0D01*
G01*
X54095001Y-61990000D01*
G75*
G02*
X54345000Y-62239999I0J-249999D01*
G01*
X54345000Y-63490001D01*
G75*
G02*
X54095001Y-63740000I-249999J0D01*
G01*
X53294999Y-63740000D01*
G75*
G02*
X53045000Y-63490001I0J249999D01*
G01*
G37*
%TD*%
%TO.C,R24*%
G36*
G01*
X99325000Y-80000001D02*
X99325000Y-78749999D01*
G75*
G02*
X99574999Y-78500000I249999J0D01*
G01*
X100375001Y-78500000D01*
G75*
G02*
X100625000Y-78749999I0J-249999D01*
G01*
X100625000Y-80000001D01*
G75*
G02*
X100375001Y-80250000I-249999J0D01*
G01*
X99574999Y-80250000D01*
G75*
G02*
X99325000Y-80000001I0J249999D01*
G01*
G37*
G36*
G01*
X96225000Y-80000001D02*
X96225000Y-78749999D01*
G75*
G02*
X96474999Y-78500000I249999J0D01*
G01*
X97275001Y-78500000D01*
G75*
G02*
X97525000Y-78749999I0J-249999D01*
G01*
X97525000Y-80000001D01*
G75*
G02*
X97275001Y-80250000I-249999J0D01*
G01*
X96474999Y-80250000D01*
G75*
G02*
X96225000Y-80000001I0J249999D01*
G01*
G37*
%TD*%
%TO.C,R23*%
G36*
G01*
X94245000Y-80000001D02*
X94245000Y-78749999D01*
G75*
G02*
X94494999Y-78500000I249999J0D01*
G01*
X95295001Y-78500000D01*
G75*
G02*
X95545000Y-78749999I0J-249999D01*
G01*
X95545000Y-80000001D01*
G75*
G02*
X95295001Y-80250000I-249999J0D01*
G01*
X94494999Y-80250000D01*
G75*
G02*
X94245000Y-80000001I0J249999D01*
G01*
G37*
G36*
G01*
X91145000Y-80000001D02*
X91145000Y-78749999D01*
G75*
G02*
X91394999Y-78500000I249999J0D01*
G01*
X92195001Y-78500000D01*
G75*
G02*
X92445000Y-78749999I0J-249999D01*
G01*
X92445000Y-80000001D01*
G75*
G02*
X92195001Y-80250000I-249999J0D01*
G01*
X91394999Y-80250000D01*
G75*
G02*
X91145000Y-80000001I0J249999D01*
G01*
G37*
%TD*%
%TO.C,R22*%
G36*
G01*
X99325000Y-63490001D02*
X99325000Y-62239999D01*
G75*
G02*
X99574999Y-61990000I249999J0D01*
G01*
X100375001Y-61990000D01*
G75*
G02*
X100625000Y-62239999I0J-249999D01*
G01*
X100625000Y-63490001D01*
G75*
G02*
X100375001Y-63740000I-249999J0D01*
G01*
X99574999Y-63740000D01*
G75*
G02*
X99325000Y-63490001I0J249999D01*
G01*
G37*
G36*
G01*
X96225000Y-63490001D02*
X96225000Y-62239999D01*
G75*
G02*
X96474999Y-61990000I249999J0D01*
G01*
X97275001Y-61990000D01*
G75*
G02*
X97525000Y-62239999I0J-249999D01*
G01*
X97525000Y-63490001D01*
G75*
G02*
X97275001Y-63740000I-249999J0D01*
G01*
X96474999Y-63740000D01*
G75*
G02*
X96225000Y-63490001I0J249999D01*
G01*
G37*
%TD*%
%TO.C,R21*%
G36*
G01*
X94245000Y-63490001D02*
X94245000Y-62239999D01*
G75*
G02*
X94494999Y-61990000I249999J0D01*
G01*
X95295001Y-61990000D01*
G75*
G02*
X95545000Y-62239999I0J-249999D01*
G01*
X95545000Y-63490001D01*
G75*
G02*
X95295001Y-63740000I-249999J0D01*
G01*
X94494999Y-63740000D01*
G75*
G02*
X94245000Y-63490001I0J249999D01*
G01*
G37*
G36*
G01*
X91145000Y-63490001D02*
X91145000Y-62239999D01*
G75*
G02*
X91394999Y-61990000I249999J0D01*
G01*
X92195001Y-61990000D01*
G75*
G02*
X92445000Y-62239999I0J-249999D01*
G01*
X92445000Y-63490001D01*
G75*
G02*
X92195001Y-63740000I-249999J0D01*
G01*
X91394999Y-63740000D01*
G75*
G02*
X91145000Y-63490001I0J249999D01*
G01*
G37*
%TD*%
%TO.C,R20*%
G36*
G01*
X97799999Y-85355000D02*
X99050001Y-85355000D01*
G75*
G02*
X99300000Y-85604999I0J-249999D01*
G01*
X99300000Y-86405001D01*
G75*
G02*
X99050001Y-86655000I-249999J0D01*
G01*
X97799999Y-86655000D01*
G75*
G02*
X97550000Y-86405001I0J249999D01*
G01*
X97550000Y-85604999D01*
G75*
G02*
X97799999Y-85355000I249999J0D01*
G01*
G37*
G36*
G01*
X97799999Y-82255000D02*
X99050001Y-82255000D01*
G75*
G02*
X99300000Y-82504999I0J-249999D01*
G01*
X99300000Y-83305001D01*
G75*
G02*
X99050001Y-83555000I-249999J0D01*
G01*
X97799999Y-83555000D01*
G75*
G02*
X97550000Y-83305001I0J249999D01*
G01*
X97550000Y-82504999D01*
G75*
G02*
X97799999Y-82255000I249999J0D01*
G01*
G37*
%TD*%
%TO.C,R19*%
G36*
G01*
X85099999Y-85355000D02*
X86350001Y-85355000D01*
G75*
G02*
X86600000Y-85604999I0J-249999D01*
G01*
X86600000Y-86405001D01*
G75*
G02*
X86350001Y-86655000I-249999J0D01*
G01*
X85099999Y-86655000D01*
G75*
G02*
X84850000Y-86405001I0J249999D01*
G01*
X84850000Y-85604999D01*
G75*
G02*
X85099999Y-85355000I249999J0D01*
G01*
G37*
G36*
G01*
X85099999Y-82255000D02*
X86350001Y-82255000D01*
G75*
G02*
X86600000Y-82504999I0J-249999D01*
G01*
X86600000Y-83305001D01*
G75*
G02*
X86350001Y-83555000I-249999J0D01*
G01*
X85099999Y-83555000D01*
G75*
G02*
X84850000Y-83305001I0J249999D01*
G01*
X84850000Y-82504999D01*
G75*
G02*
X85099999Y-82255000I249999J0D01*
G01*
G37*
%TD*%
%TO.C,R18*%
G36*
G01*
X72399999Y-85355000D02*
X73650001Y-85355000D01*
G75*
G02*
X73900000Y-85604999I0J-249999D01*
G01*
X73900000Y-86405001D01*
G75*
G02*
X73650001Y-86655000I-249999J0D01*
G01*
X72399999Y-86655000D01*
G75*
G02*
X72150000Y-86405001I0J249999D01*
G01*
X72150000Y-85604999D01*
G75*
G02*
X72399999Y-85355000I249999J0D01*
G01*
G37*
G36*
G01*
X72399999Y-82255000D02*
X73650001Y-82255000D01*
G75*
G02*
X73900000Y-82504999I0J-249999D01*
G01*
X73900000Y-83305001D01*
G75*
G02*
X73650001Y-83555000I-249999J0D01*
G01*
X72399999Y-83555000D01*
G75*
G02*
X72150000Y-83305001I0J249999D01*
G01*
X72150000Y-82504999D01*
G75*
G02*
X72399999Y-82255000I249999J0D01*
G01*
G37*
%TD*%
%TO.C,R17*%
G36*
G01*
X59699999Y-85355000D02*
X60950001Y-85355000D01*
G75*
G02*
X61200000Y-85604999I0J-249999D01*
G01*
X61200000Y-86405001D01*
G75*
G02*
X60950001Y-86655000I-249999J0D01*
G01*
X59699999Y-86655000D01*
G75*
G02*
X59450000Y-86405001I0J249999D01*
G01*
X59450000Y-85604999D01*
G75*
G02*
X59699999Y-85355000I249999J0D01*
G01*
G37*
G36*
G01*
X59699999Y-82255000D02*
X60950001Y-82255000D01*
G75*
G02*
X61200000Y-82504999I0J-249999D01*
G01*
X61200000Y-83305001D01*
G75*
G02*
X60950001Y-83555000I-249999J0D01*
G01*
X59699999Y-83555000D01*
G75*
G02*
X59450000Y-83305001I0J249999D01*
G01*
X59450000Y-82504999D01*
G75*
G02*
X59699999Y-82255000I249999J0D01*
G01*
G37*
%TD*%
%TO.C,R16*%
G36*
G01*
X86625000Y-80000001D02*
X86625000Y-78749999D01*
G75*
G02*
X86874999Y-78500000I249999J0D01*
G01*
X87675001Y-78500000D01*
G75*
G02*
X87925000Y-78749999I0J-249999D01*
G01*
X87925000Y-80000001D01*
G75*
G02*
X87675001Y-80250000I-249999J0D01*
G01*
X86874999Y-80250000D01*
G75*
G02*
X86625000Y-80000001I0J249999D01*
G01*
G37*
G36*
G01*
X83525000Y-80000001D02*
X83525000Y-78749999D01*
G75*
G02*
X83774999Y-78500000I249999J0D01*
G01*
X84575001Y-78500000D01*
G75*
G02*
X84825000Y-78749999I0J-249999D01*
G01*
X84825000Y-80000001D01*
G75*
G02*
X84575001Y-80250000I-249999J0D01*
G01*
X83774999Y-80250000D01*
G75*
G02*
X83525000Y-80000001I0J249999D01*
G01*
G37*
%TD*%
%TO.C,R15*%
G36*
G01*
X81545000Y-80000001D02*
X81545000Y-78749999D01*
G75*
G02*
X81794999Y-78500000I249999J0D01*
G01*
X82595001Y-78500000D01*
G75*
G02*
X82845000Y-78749999I0J-249999D01*
G01*
X82845000Y-80000001D01*
G75*
G02*
X82595001Y-80250000I-249999J0D01*
G01*
X81794999Y-80250000D01*
G75*
G02*
X81545000Y-80000001I0J249999D01*
G01*
G37*
G36*
G01*
X78445000Y-80000001D02*
X78445000Y-78749999D01*
G75*
G02*
X78694999Y-78500000I249999J0D01*
G01*
X79495001Y-78500000D01*
G75*
G02*
X79745000Y-78749999I0J-249999D01*
G01*
X79745000Y-80000001D01*
G75*
G02*
X79495001Y-80250000I-249999J0D01*
G01*
X78694999Y-80250000D01*
G75*
G02*
X78445000Y-80000001I0J249999D01*
G01*
G37*
%TD*%
%TO.C,R14*%
G36*
G01*
X86625000Y-63490001D02*
X86625000Y-62239999D01*
G75*
G02*
X86874999Y-61990000I249999J0D01*
G01*
X87675001Y-61990000D01*
G75*
G02*
X87925000Y-62239999I0J-249999D01*
G01*
X87925000Y-63490001D01*
G75*
G02*
X87675001Y-63740000I-249999J0D01*
G01*
X86874999Y-63740000D01*
G75*
G02*
X86625000Y-63490001I0J249999D01*
G01*
G37*
G36*
G01*
X83525000Y-63490001D02*
X83525000Y-62239999D01*
G75*
G02*
X83774999Y-61990000I249999J0D01*
G01*
X84575001Y-61990000D01*
G75*
G02*
X84825000Y-62239999I0J-249999D01*
G01*
X84825000Y-63490001D01*
G75*
G02*
X84575001Y-63740000I-249999J0D01*
G01*
X83774999Y-63740000D01*
G75*
G02*
X83525000Y-63490001I0J249999D01*
G01*
G37*
%TD*%
%TO.C,R13*%
G36*
G01*
X81545000Y-63490001D02*
X81545000Y-62239999D01*
G75*
G02*
X81794999Y-61990000I249999J0D01*
G01*
X82595001Y-61990000D01*
G75*
G02*
X82845000Y-62239999I0J-249999D01*
G01*
X82845000Y-63490001D01*
G75*
G02*
X82595001Y-63740000I-249999J0D01*
G01*
X81794999Y-63740000D01*
G75*
G02*
X81545000Y-63490001I0J249999D01*
G01*
G37*
G36*
G01*
X78445000Y-63490001D02*
X78445000Y-62239999D01*
G75*
G02*
X78694999Y-61990000I249999J0D01*
G01*
X79495001Y-61990000D01*
G75*
G02*
X79745000Y-62239999I0J-249999D01*
G01*
X79745000Y-63490001D01*
G75*
G02*
X79495001Y-63740000I-249999J0D01*
G01*
X78694999Y-63740000D01*
G75*
G02*
X78445000Y-63490001I0J249999D01*
G01*
G37*
%TD*%
%TO.C,R12*%
G36*
G01*
X73925000Y-80000001D02*
X73925000Y-78749999D01*
G75*
G02*
X74174999Y-78500000I249999J0D01*
G01*
X74975001Y-78500000D01*
G75*
G02*
X75225000Y-78749999I0J-249999D01*
G01*
X75225000Y-80000001D01*
G75*
G02*
X74975001Y-80250000I-249999J0D01*
G01*
X74174999Y-80250000D01*
G75*
G02*
X73925000Y-80000001I0J249999D01*
G01*
G37*
G36*
G01*
X70825000Y-80000001D02*
X70825000Y-78749999D01*
G75*
G02*
X71074999Y-78500000I249999J0D01*
G01*
X71875001Y-78500000D01*
G75*
G02*
X72125000Y-78749999I0J-249999D01*
G01*
X72125000Y-80000001D01*
G75*
G02*
X71875001Y-80250000I-249999J0D01*
G01*
X71074999Y-80250000D01*
G75*
G02*
X70825000Y-80000001I0J249999D01*
G01*
G37*
%TD*%
%TO.C,R11*%
G36*
G01*
X68845000Y-80000001D02*
X68845000Y-78749999D01*
G75*
G02*
X69094999Y-78500000I249999J0D01*
G01*
X69895001Y-78500000D01*
G75*
G02*
X70145000Y-78749999I0J-249999D01*
G01*
X70145000Y-80000001D01*
G75*
G02*
X69895001Y-80250000I-249999J0D01*
G01*
X69094999Y-80250000D01*
G75*
G02*
X68845000Y-80000001I0J249999D01*
G01*
G37*
G36*
G01*
X65745000Y-80000001D02*
X65745000Y-78749999D01*
G75*
G02*
X65994999Y-78500000I249999J0D01*
G01*
X66795001Y-78500000D01*
G75*
G02*
X67045000Y-78749999I0J-249999D01*
G01*
X67045000Y-80000001D01*
G75*
G02*
X66795001Y-80250000I-249999J0D01*
G01*
X65994999Y-80250000D01*
G75*
G02*
X65745000Y-80000001I0J249999D01*
G01*
G37*
%TD*%
%TO.C,R10*%
G36*
G01*
X73925000Y-63490001D02*
X73925000Y-62239999D01*
G75*
G02*
X74174999Y-61990000I249999J0D01*
G01*
X74975001Y-61990000D01*
G75*
G02*
X75225000Y-62239999I0J-249999D01*
G01*
X75225000Y-63490001D01*
G75*
G02*
X74975001Y-63740000I-249999J0D01*
G01*
X74174999Y-63740000D01*
G75*
G02*
X73925000Y-63490001I0J249999D01*
G01*
G37*
G36*
G01*
X70825000Y-63490001D02*
X70825000Y-62239999D01*
G75*
G02*
X71074999Y-61990000I249999J0D01*
G01*
X71875001Y-61990000D01*
G75*
G02*
X72125000Y-62239999I0J-249999D01*
G01*
X72125000Y-63490001D01*
G75*
G02*
X71875001Y-63740000I-249999J0D01*
G01*
X71074999Y-63740000D01*
G75*
G02*
X70825000Y-63490001I0J249999D01*
G01*
G37*
%TD*%
%TO.C,R9*%
G36*
G01*
X68845000Y-63490001D02*
X68845000Y-62239999D01*
G75*
G02*
X69094999Y-61990000I249999J0D01*
G01*
X69895001Y-61990000D01*
G75*
G02*
X70145000Y-62239999I0J-249999D01*
G01*
X70145000Y-63490001D01*
G75*
G02*
X69895001Y-63740000I-249999J0D01*
G01*
X69094999Y-63740000D01*
G75*
G02*
X68845000Y-63490001I0J249999D01*
G01*
G37*
G36*
G01*
X65745000Y-63490001D02*
X65745000Y-62239999D01*
G75*
G02*
X65994999Y-61990000I249999J0D01*
G01*
X66795001Y-61990000D01*
G75*
G02*
X67045000Y-62239999I0J-249999D01*
G01*
X67045000Y-63490001D01*
G75*
G02*
X66795001Y-63740000I-249999J0D01*
G01*
X65994999Y-63740000D01*
G75*
G02*
X65745000Y-63490001I0J249999D01*
G01*
G37*
%TD*%
%TO.C,R8*%
G36*
G01*
X97799999Y-68845000D02*
X99050001Y-68845000D01*
G75*
G02*
X99300000Y-69094999I0J-249999D01*
G01*
X99300000Y-69895001D01*
G75*
G02*
X99050001Y-70145000I-249999J0D01*
G01*
X97799999Y-70145000D01*
G75*
G02*
X97550000Y-69895001I0J249999D01*
G01*
X97550000Y-69094999D01*
G75*
G02*
X97799999Y-68845000I249999J0D01*
G01*
G37*
G36*
G01*
X97799999Y-65745000D02*
X99050001Y-65745000D01*
G75*
G02*
X99300000Y-65994999I0J-249999D01*
G01*
X99300000Y-66795001D01*
G75*
G02*
X99050001Y-67045000I-249999J0D01*
G01*
X97799999Y-67045000D01*
G75*
G02*
X97550000Y-66795001I0J249999D01*
G01*
X97550000Y-65994999D01*
G75*
G02*
X97799999Y-65745000I249999J0D01*
G01*
G37*
%TD*%
%TO.C,R7*%
G36*
G01*
X85099999Y-68845000D02*
X86350001Y-68845000D01*
G75*
G02*
X86600000Y-69094999I0J-249999D01*
G01*
X86600000Y-69895001D01*
G75*
G02*
X86350001Y-70145000I-249999J0D01*
G01*
X85099999Y-70145000D01*
G75*
G02*
X84850000Y-69895001I0J249999D01*
G01*
X84850000Y-69094999D01*
G75*
G02*
X85099999Y-68845000I249999J0D01*
G01*
G37*
G36*
G01*
X85099999Y-65745000D02*
X86350001Y-65745000D01*
G75*
G02*
X86600000Y-65994999I0J-249999D01*
G01*
X86600000Y-66795001D01*
G75*
G02*
X86350001Y-67045000I-249999J0D01*
G01*
X85099999Y-67045000D01*
G75*
G02*
X84850000Y-66795001I0J249999D01*
G01*
X84850000Y-65994999D01*
G75*
G02*
X85099999Y-65745000I249999J0D01*
G01*
G37*
%TD*%
%TO.C,R6*%
G36*
G01*
X72399999Y-68845000D02*
X73650001Y-68845000D01*
G75*
G02*
X73900000Y-69094999I0J-249999D01*
G01*
X73900000Y-69895001D01*
G75*
G02*
X73650001Y-70145000I-249999J0D01*
G01*
X72399999Y-70145000D01*
G75*
G02*
X72150000Y-69895001I0J249999D01*
G01*
X72150000Y-69094999D01*
G75*
G02*
X72399999Y-68845000I249999J0D01*
G01*
G37*
G36*
G01*
X72399999Y-65745000D02*
X73650001Y-65745000D01*
G75*
G02*
X73900000Y-65994999I0J-249999D01*
G01*
X73900000Y-66795001D01*
G75*
G02*
X73650001Y-67045000I-249999J0D01*
G01*
X72399999Y-67045000D01*
G75*
G02*
X72150000Y-66795001I0J249999D01*
G01*
X72150000Y-65994999D01*
G75*
G02*
X72399999Y-65745000I249999J0D01*
G01*
G37*
%TD*%
%TO.C,R5*%
G36*
G01*
X59699999Y-68845000D02*
X60950001Y-68845000D01*
G75*
G02*
X61200000Y-69094999I0J-249999D01*
G01*
X61200000Y-69895001D01*
G75*
G02*
X60950001Y-70145000I-249999J0D01*
G01*
X59699999Y-70145000D01*
G75*
G02*
X59450000Y-69895001I0J249999D01*
G01*
X59450000Y-69094999D01*
G75*
G02*
X59699999Y-68845000I249999J0D01*
G01*
G37*
G36*
G01*
X59699999Y-65745000D02*
X60950001Y-65745000D01*
G75*
G02*
X61200000Y-65994999I0J-249999D01*
G01*
X61200000Y-66795001D01*
G75*
G02*
X60950001Y-67045000I-249999J0D01*
G01*
X59699999Y-67045000D01*
G75*
G02*
X59450000Y-66795001I0J249999D01*
G01*
X59450000Y-65994999D01*
G75*
G02*
X59699999Y-65745000I249999J0D01*
G01*
G37*
%TD*%
%TO.C,R4*%
G36*
G01*
X61225000Y-80000001D02*
X61225000Y-78749999D01*
G75*
G02*
X61474999Y-78500000I249999J0D01*
G01*
X62275001Y-78500000D01*
G75*
G02*
X62525000Y-78749999I0J-249999D01*
G01*
X62525000Y-80000001D01*
G75*
G02*
X62275001Y-80250000I-249999J0D01*
G01*
X61474999Y-80250000D01*
G75*
G02*
X61225000Y-80000001I0J249999D01*
G01*
G37*
G36*
G01*
X58125000Y-80000001D02*
X58125000Y-78749999D01*
G75*
G02*
X58374999Y-78500000I249999J0D01*
G01*
X59175001Y-78500000D01*
G75*
G02*
X59425000Y-78749999I0J-249999D01*
G01*
X59425000Y-80000001D01*
G75*
G02*
X59175001Y-80250000I-249999J0D01*
G01*
X58374999Y-80250000D01*
G75*
G02*
X58125000Y-80000001I0J249999D01*
G01*
G37*
%TD*%
%TO.C,R3*%
G36*
G01*
X56145000Y-80000001D02*
X56145000Y-78749999D01*
G75*
G02*
X56394999Y-78500000I249999J0D01*
G01*
X57195001Y-78500000D01*
G75*
G02*
X57445000Y-78749999I0J-249999D01*
G01*
X57445000Y-80000001D01*
G75*
G02*
X57195001Y-80250000I-249999J0D01*
G01*
X56394999Y-80250000D01*
G75*
G02*
X56145000Y-80000001I0J249999D01*
G01*
G37*
G36*
G01*
X53045000Y-80000001D02*
X53045000Y-78749999D01*
G75*
G02*
X53294999Y-78500000I249999J0D01*
G01*
X54095001Y-78500000D01*
G75*
G02*
X54345000Y-78749999I0J-249999D01*
G01*
X54345000Y-80000001D01*
G75*
G02*
X54095001Y-80250000I-249999J0D01*
G01*
X53294999Y-80250000D01*
G75*
G02*
X53045000Y-80000001I0J249999D01*
G01*
G37*
%TD*%
%TO.C,R2*%
G36*
G01*
X61225000Y-63490001D02*
X61225000Y-62239999D01*
G75*
G02*
X61474999Y-61990000I249999J0D01*
G01*
X62275001Y-61990000D01*
G75*
G02*
X62525000Y-62239999I0J-249999D01*
G01*
X62525000Y-63490001D01*
G75*
G02*
X62275001Y-63740000I-249999J0D01*
G01*
X61474999Y-63740000D01*
G75*
G02*
X61225000Y-63490001I0J249999D01*
G01*
G37*
G36*
G01*
X58125000Y-63490001D02*
X58125000Y-62239999D01*
G75*
G02*
X58374999Y-61990000I249999J0D01*
G01*
X59175001Y-61990000D01*
G75*
G02*
X59425000Y-62239999I0J-249999D01*
G01*
X59425000Y-63490001D01*
G75*
G02*
X59175001Y-63740000I-249999J0D01*
G01*
X58374999Y-63740000D01*
G75*
G02*
X58125000Y-63490001I0J249999D01*
G01*
G37*
%TD*%
%TO.C,D8*%
G36*
G01*
X94755000Y-91430000D02*
X94755000Y-90180000D01*
G75*
G02*
X95005000Y-89930000I250000J0D01*
G01*
X95930000Y-89930000D01*
G75*
G02*
X96180000Y-90180000I0J-250000D01*
G01*
X96180000Y-91430000D01*
G75*
G02*
X95930000Y-91680000I-250000J0D01*
G01*
X95005000Y-91680000D01*
G75*
G02*
X94755000Y-91430000I0J250000D01*
G01*
G37*
G36*
G01*
X91780000Y-91430000D02*
X91780000Y-90180000D01*
G75*
G02*
X92030000Y-89930000I250000J0D01*
G01*
X92955000Y-89930000D01*
G75*
G02*
X93205000Y-90180000I0J-250000D01*
G01*
X93205000Y-91430000D01*
G75*
G02*
X92955000Y-91680000I-250000J0D01*
G01*
X92030000Y-91680000D01*
G75*
G02*
X91780000Y-91430000I0J250000D01*
G01*
G37*
%TD*%
%TO.C,D7*%
G36*
G01*
X82055000Y-91430000D02*
X82055000Y-90180000D01*
G75*
G02*
X82305000Y-89930000I250000J0D01*
G01*
X83230000Y-89930000D01*
G75*
G02*
X83480000Y-90180000I0J-250000D01*
G01*
X83480000Y-91430000D01*
G75*
G02*
X83230000Y-91680000I-250000J0D01*
G01*
X82305000Y-91680000D01*
G75*
G02*
X82055000Y-91430000I0J250000D01*
G01*
G37*
G36*
G01*
X79080000Y-91430000D02*
X79080000Y-90180000D01*
G75*
G02*
X79330000Y-89930000I250000J0D01*
G01*
X80255000Y-89930000D01*
G75*
G02*
X80505000Y-90180000I0J-250000D01*
G01*
X80505000Y-91430000D01*
G75*
G02*
X80255000Y-91680000I-250000J0D01*
G01*
X79330000Y-91680000D01*
G75*
G02*
X79080000Y-91430000I0J250000D01*
G01*
G37*
%TD*%
%TO.C,D6*%
G36*
G01*
X69355000Y-91430000D02*
X69355000Y-90180000D01*
G75*
G02*
X69605000Y-89930000I250000J0D01*
G01*
X70530000Y-89930000D01*
G75*
G02*
X70780000Y-90180000I0J-250000D01*
G01*
X70780000Y-91430000D01*
G75*
G02*
X70530000Y-91680000I-250000J0D01*
G01*
X69605000Y-91680000D01*
G75*
G02*
X69355000Y-91430000I0J250000D01*
G01*
G37*
G36*
G01*
X66380000Y-91430000D02*
X66380000Y-90180000D01*
G75*
G02*
X66630000Y-89930000I250000J0D01*
G01*
X67555000Y-89930000D01*
G75*
G02*
X67805000Y-90180000I0J-250000D01*
G01*
X67805000Y-91430000D01*
G75*
G02*
X67555000Y-91680000I-250000J0D01*
G01*
X66630000Y-91680000D01*
G75*
G02*
X66380000Y-91430000I0J250000D01*
G01*
G37*
%TD*%
%TO.C,D5*%
G36*
G01*
X56655000Y-91430000D02*
X56655000Y-90180000D01*
G75*
G02*
X56905000Y-89930000I250000J0D01*
G01*
X57830000Y-89930000D01*
G75*
G02*
X58080000Y-90180000I0J-250000D01*
G01*
X58080000Y-91430000D01*
G75*
G02*
X57830000Y-91680000I-250000J0D01*
G01*
X56905000Y-91680000D01*
G75*
G02*
X56655000Y-91430000I0J250000D01*
G01*
G37*
G36*
G01*
X53680000Y-91430000D02*
X53680000Y-90180000D01*
G75*
G02*
X53930000Y-89930000I250000J0D01*
G01*
X54855000Y-89930000D01*
G75*
G02*
X55105000Y-90180000I0J-250000D01*
G01*
X55105000Y-91430000D01*
G75*
G02*
X54855000Y-91680000I-250000J0D01*
G01*
X53930000Y-91680000D01*
G75*
G02*
X53680000Y-91430000I0J250000D01*
G01*
G37*
%TD*%
%TO.C,D4*%
G36*
G01*
X94755000Y-74920000D02*
X94755000Y-73670000D01*
G75*
G02*
X95005000Y-73420000I250000J0D01*
G01*
X95930000Y-73420000D01*
G75*
G02*
X96180000Y-73670000I0J-250000D01*
G01*
X96180000Y-74920000D01*
G75*
G02*
X95930000Y-75170000I-250000J0D01*
G01*
X95005000Y-75170000D01*
G75*
G02*
X94755000Y-74920000I0J250000D01*
G01*
G37*
G36*
G01*
X91780000Y-74920000D02*
X91780000Y-73670000D01*
G75*
G02*
X92030000Y-73420000I250000J0D01*
G01*
X92955000Y-73420000D01*
G75*
G02*
X93205000Y-73670000I0J-250000D01*
G01*
X93205000Y-74920000D01*
G75*
G02*
X92955000Y-75170000I-250000J0D01*
G01*
X92030000Y-75170000D01*
G75*
G02*
X91780000Y-74920000I0J250000D01*
G01*
G37*
%TD*%
%TO.C,D3*%
G36*
G01*
X82055000Y-74920000D02*
X82055000Y-73670000D01*
G75*
G02*
X82305000Y-73420000I250000J0D01*
G01*
X83230000Y-73420000D01*
G75*
G02*
X83480000Y-73670000I0J-250000D01*
G01*
X83480000Y-74920000D01*
G75*
G02*
X83230000Y-75170000I-250000J0D01*
G01*
X82305000Y-75170000D01*
G75*
G02*
X82055000Y-74920000I0J250000D01*
G01*
G37*
G36*
G01*
X79080000Y-74920000D02*
X79080000Y-73670000D01*
G75*
G02*
X79330000Y-73420000I250000J0D01*
G01*
X80255000Y-73420000D01*
G75*
G02*
X80505000Y-73670000I0J-250000D01*
G01*
X80505000Y-74920000D01*
G75*
G02*
X80255000Y-75170000I-250000J0D01*
G01*
X79330000Y-75170000D01*
G75*
G02*
X79080000Y-74920000I0J250000D01*
G01*
G37*
%TD*%
%TO.C,D2*%
G36*
G01*
X69355000Y-74920000D02*
X69355000Y-73670000D01*
G75*
G02*
X69605000Y-73420000I250000J0D01*
G01*
X70530000Y-73420000D01*
G75*
G02*
X70780000Y-73670000I0J-250000D01*
G01*
X70780000Y-74920000D01*
G75*
G02*
X70530000Y-75170000I-250000J0D01*
G01*
X69605000Y-75170000D01*
G75*
G02*
X69355000Y-74920000I0J250000D01*
G01*
G37*
G36*
G01*
X66380000Y-74920000D02*
X66380000Y-73670000D01*
G75*
G02*
X66630000Y-73420000I250000J0D01*
G01*
X67555000Y-73420000D01*
G75*
G02*
X67805000Y-73670000I0J-250000D01*
G01*
X67805000Y-74920000D01*
G75*
G02*
X67555000Y-75170000I-250000J0D01*
G01*
X66630000Y-75170000D01*
G75*
G02*
X66380000Y-74920000I0J250000D01*
G01*
G37*
%TD*%
%TO.C,D1*%
G36*
G01*
X56655000Y-74920000D02*
X56655000Y-73670000D01*
G75*
G02*
X56905000Y-73420000I250000J0D01*
G01*
X57830000Y-73420000D01*
G75*
G02*
X58080000Y-73670000I0J-250000D01*
G01*
X58080000Y-74920000D01*
G75*
G02*
X57830000Y-75170000I-250000J0D01*
G01*
X56905000Y-75170000D01*
G75*
G02*
X56655000Y-74920000I0J250000D01*
G01*
G37*
G36*
G01*
X53680000Y-74920000D02*
X53680000Y-73670000D01*
G75*
G02*
X53930000Y-73420000I250000J0D01*
G01*
X54855000Y-73420000D01*
G75*
G02*
X55105000Y-73670000I0J-250000D01*
G01*
X55105000Y-74920000D01*
G75*
G02*
X54855000Y-75170000I-250000J0D01*
G01*
X53930000Y-75170000D01*
G75*
G02*
X53680000Y-74920000I0J250000D01*
G01*
G37*
%TD*%
D11*
%TO.C,J8*%
X105410000Y-59690000D03*
X105410000Y-62230000D03*
G36*
G01*
X105791000Y-65532000D02*
X105029000Y-65532000D01*
G75*
G02*
X104648000Y-65151000I0J381000D01*
G01*
X104648000Y-64389000D01*
G75*
G02*
X105029000Y-64008000I381000J0D01*
G01*
X105791000Y-64008000D01*
G75*
G02*
X106172000Y-64389000I0J-381000D01*
G01*
X106172000Y-65151000D01*
G75*
G02*
X105791000Y-65532000I-381000J0D01*
G01*
G37*
%TD*%
%TO.C,J7*%
X105410000Y-68580000D03*
X105410000Y-71120000D03*
G36*
G01*
X105791000Y-74422000D02*
X105029000Y-74422000D01*
G75*
G02*
X104648000Y-74041000I0J381000D01*
G01*
X104648000Y-73279000D01*
G75*
G02*
X105029000Y-72898000I381000J0D01*
G01*
X105791000Y-72898000D01*
G75*
G02*
X106172000Y-73279000I0J-381000D01*
G01*
X106172000Y-74041000D01*
G75*
G02*
X105791000Y-74422000I-381000J0D01*
G01*
G37*
%TD*%
%TO.C,J6*%
X105410000Y-77470000D03*
X105410000Y-80010000D03*
G36*
G01*
X105791000Y-83312000D02*
X105029000Y-83312000D01*
G75*
G02*
X104648000Y-82931000I0J381000D01*
G01*
X104648000Y-82169000D01*
G75*
G02*
X105029000Y-81788000I381000J0D01*
G01*
X105791000Y-81788000D01*
G75*
G02*
X106172000Y-82169000I0J-381000D01*
G01*
X106172000Y-82931000D01*
G75*
G02*
X105791000Y-83312000I-381000J0D01*
G01*
G37*
%TD*%
%TO.C,J5*%
X105410000Y-86360000D03*
X105410000Y-88900000D03*
G36*
G01*
X105791000Y-92202000D02*
X105029000Y-92202000D01*
G75*
G02*
X104648000Y-91821000I0J381000D01*
G01*
X104648000Y-91059000D01*
G75*
G02*
X105029000Y-90678000I381000J0D01*
G01*
X105791000Y-90678000D01*
G75*
G02*
X106172000Y-91059000I0J-381000D01*
G01*
X106172000Y-91821000D01*
G75*
G02*
X105791000Y-92202000I-381000J0D01*
G01*
G37*
%TD*%
%TO.C,J4*%
X101600000Y-96520000D03*
X99060000Y-96520000D03*
G36*
G01*
X95758000Y-96901000D02*
X95758000Y-96139000D01*
G75*
G02*
X96139000Y-95758000I381000J0D01*
G01*
X96901000Y-95758000D01*
G75*
G02*
X97282000Y-96139000I0J-381000D01*
G01*
X97282000Y-96901000D01*
G75*
G02*
X96901000Y-97282000I-381000J0D01*
G01*
X96139000Y-97282000D01*
G75*
G02*
X95758000Y-96901000I0J381000D01*
G01*
G37*
%TD*%
%TO.C,J3*%
X92710000Y-96520000D03*
X90170000Y-96520000D03*
G36*
G01*
X86868000Y-96901000D02*
X86868000Y-96139000D01*
G75*
G02*
X87249000Y-95758000I381000J0D01*
G01*
X88011000Y-95758000D01*
G75*
G02*
X88392000Y-96139000I0J-381000D01*
G01*
X88392000Y-96901000D01*
G75*
G02*
X88011000Y-97282000I-381000J0D01*
G01*
X87249000Y-97282000D01*
G75*
G02*
X86868000Y-96901000I0J381000D01*
G01*
G37*
%TD*%
%TO.C,J2*%
X83820000Y-96520000D03*
X81280000Y-96520000D03*
G36*
G01*
X77978000Y-96901000D02*
X77978000Y-96139000D01*
G75*
G02*
X78359000Y-95758000I381000J0D01*
G01*
X79121000Y-95758000D01*
G75*
G02*
X79502000Y-96139000I0J-381000D01*
G01*
X79502000Y-96901000D01*
G75*
G02*
X79121000Y-97282000I-381000J0D01*
G01*
X78359000Y-97282000D01*
G75*
G02*
X77978000Y-96901000I0J381000D01*
G01*
G37*
%TD*%
%TO.C,J1*%
X74930000Y-96520000D03*
X72390000Y-96520000D03*
G36*
G01*
X69088000Y-96901000D02*
X69088000Y-96139000D01*
G75*
G02*
X69469000Y-95758000I381000J0D01*
G01*
X70231000Y-95758000D01*
G75*
G02*
X70612000Y-96139000I0J-381000D01*
G01*
X70612000Y-96901000D01*
G75*
G02*
X70231000Y-97282000I-381000J0D01*
G01*
X69469000Y-97282000D01*
G75*
G02*
X69088000Y-96901000I0J381000D01*
G01*
G37*
%TD*%
D12*
%TO.C,J0*%
X103930000Y-49530000D03*
X103930000Y-52070000D03*
X101390000Y-49530000D03*
X101390000Y-52070000D03*
X98850000Y-49530000D03*
X98850000Y-52070000D03*
X96310000Y-49530000D03*
X96310000Y-52070000D03*
X93770000Y-49530000D03*
X93770000Y-52070000D03*
X91230000Y-49530000D03*
X91230000Y-52070000D03*
X88690000Y-49530000D03*
X88690000Y-52070000D03*
X86150000Y-49530000D03*
X86150000Y-52070000D03*
X83610000Y-49530000D03*
X83610000Y-52070000D03*
X81070000Y-49530000D03*
X81070000Y-52070000D03*
X78530000Y-49530000D03*
X78530000Y-52070000D03*
X75990000Y-49530000D03*
X75990000Y-52070000D03*
X73450000Y-49530000D03*
X73450000Y-52070000D03*
X70910000Y-49530000D03*
X70910000Y-52070000D03*
X68370000Y-49530000D03*
X68370000Y-52070000D03*
X65830000Y-49530000D03*
X65830000Y-52070000D03*
X63290000Y-49530000D03*
X63290000Y-52070000D03*
X60750000Y-49530000D03*
X60750000Y-52070000D03*
X58210000Y-49530000D03*
X58210000Y-52070000D03*
X55670000Y-49530000D03*
D13*
X55670000Y-52070000D03*
%TD*%
D14*
%TO.C,*%
X108800000Y-50800000D03*
%TD*%
%TO.C,*%
X108800000Y-99800000D03*
%TD*%
%TO.C,*%
X50800000Y-99800000D03*
%TD*%
%TO.C,*%
X50800000Y-50800000D03*
%TD*%
M02*
