%TF.GenerationSoftware,KiCad,Pcbnew,5.1.8+dfsg1-1+b1*%
%TF.CreationDate,2021-02-16T13:38:33-06:00*%
%TF.ProjectId,interrupt-hat,696e7465-7272-4757-9074-2d6861742e6b,A*%
%TF.SameCoordinates,Original*%
%TF.FileFunction,Legend,Bot*%
%TF.FilePolarity,Positive*%
%FSLAX46Y46*%
G04 Gerber Fmt 4.6, Leading zero omitted, Abs format (unit mm)*
G04 Created by KiCad (PCBNEW 5.1.8+dfsg1-1+b1) date 2021-02-16 13:38:33*
%MOMM*%
%LPD*%
G01*
G04 APERTURE LIST*
%ADD10C,0.150000*%
G04 APERTURE END LIST*
D10*
X55896666Y-99956428D02*
X56039523Y-99908809D01*
X56087142Y-99861190D01*
X56134761Y-99765952D01*
X56134761Y-99623095D01*
X56087142Y-99527857D01*
X56039523Y-99480238D01*
X55944285Y-99432619D01*
X55563333Y-99432619D01*
X55563333Y-100432619D01*
X55896666Y-100432619D01*
X55991904Y-100385000D01*
X56039523Y-100337380D01*
X56087142Y-100242142D01*
X56087142Y-100146904D01*
X56039523Y-100051666D01*
X55991904Y-100004047D01*
X55896666Y-99956428D01*
X55563333Y-99956428D01*
X57039523Y-99432619D02*
X56563333Y-99432619D01*
X56563333Y-100432619D01*
X57325238Y-99718333D02*
X57801428Y-99718333D01*
X57230000Y-99432619D02*
X57563333Y-100432619D01*
X57896666Y-99432619D01*
X58230000Y-99432619D02*
X58230000Y-100432619D01*
X58658571Y-99480238D02*
X58801428Y-99432619D01*
X59039523Y-99432619D01*
X59134761Y-99480238D01*
X59182380Y-99527857D01*
X59230000Y-99623095D01*
X59230000Y-99718333D01*
X59182380Y-99813571D01*
X59134761Y-99861190D01*
X59039523Y-99908809D01*
X58849047Y-99956428D01*
X58753809Y-100004047D01*
X58706190Y-100051666D01*
X58658571Y-100146904D01*
X58658571Y-100242142D01*
X58706190Y-100337380D01*
X58753809Y-100385000D01*
X58849047Y-100432619D01*
X59087142Y-100432619D01*
X59230000Y-100385000D01*
X59658571Y-99956428D02*
X59991904Y-99956428D01*
X60134761Y-99432619D02*
X59658571Y-99432619D01*
X59658571Y-100432619D01*
X60134761Y-100432619D01*
X61182380Y-100432619D02*
X61753809Y-100432619D01*
X61468095Y-99432619D02*
X61468095Y-100432619D01*
X62087142Y-99432619D02*
X62087142Y-100432619D01*
X62087142Y-99956428D02*
X62658571Y-99956428D01*
X62658571Y-99432619D02*
X62658571Y-100432619D01*
X63325238Y-100432619D02*
X63515714Y-100432619D01*
X63610952Y-100385000D01*
X63706190Y-100289761D01*
X63753809Y-100099285D01*
X63753809Y-99765952D01*
X63706190Y-99575476D01*
X63610952Y-99480238D01*
X63515714Y-99432619D01*
X63325238Y-99432619D01*
X63230000Y-99480238D01*
X63134761Y-99575476D01*
X63087142Y-99765952D01*
X63087142Y-100099285D01*
X63134761Y-100289761D01*
X63230000Y-100385000D01*
X63325238Y-100432619D01*
X64182380Y-99432619D02*
X64182380Y-100432619D01*
X64515714Y-99718333D01*
X64849047Y-100432619D01*
X64849047Y-99432619D01*
X65325238Y-99432619D02*
X65325238Y-100432619D01*
X65706190Y-100432619D01*
X65801428Y-100385000D01*
X65849047Y-100337380D01*
X65896666Y-100242142D01*
X65896666Y-100099285D01*
X65849047Y-100004047D01*
X65801428Y-99956428D01*
X65706190Y-99908809D01*
X65325238Y-99908809D01*
X66277619Y-99480238D02*
X66420476Y-99432619D01*
X66658571Y-99432619D01*
X66753809Y-99480238D01*
X66801428Y-99527857D01*
X66849047Y-99623095D01*
X66849047Y-99718333D01*
X66801428Y-99813571D01*
X66753809Y-99861190D01*
X66658571Y-99908809D01*
X66468095Y-99956428D01*
X66372857Y-100004047D01*
X66325238Y-100051666D01*
X66277619Y-100146904D01*
X66277619Y-100242142D01*
X66325238Y-100337380D01*
X66372857Y-100385000D01*
X66468095Y-100432619D01*
X66706190Y-100432619D01*
X66849047Y-100385000D01*
X67468095Y-100432619D02*
X67658571Y-100432619D01*
X67753809Y-100385000D01*
X67849047Y-100289761D01*
X67896666Y-100099285D01*
X67896666Y-99765952D01*
X67849047Y-99575476D01*
X67753809Y-99480238D01*
X67658571Y-99432619D01*
X67468095Y-99432619D01*
X67372857Y-99480238D01*
X67277619Y-99575476D01*
X67230000Y-99765952D01*
X67230000Y-100099285D01*
X67277619Y-100289761D01*
X67372857Y-100385000D01*
X67468095Y-100432619D01*
X68325238Y-99432619D02*
X68325238Y-100432619D01*
X68896666Y-99432619D01*
X68896666Y-100432619D01*
X56730000Y-98782619D02*
X56968095Y-97782619D01*
X57158571Y-98496904D01*
X57349047Y-97782619D01*
X57587142Y-98782619D01*
X58539523Y-97782619D02*
X58206190Y-98258809D01*
X57968095Y-97782619D02*
X57968095Y-98782619D01*
X58349047Y-98782619D01*
X58444285Y-98735000D01*
X58491904Y-98687380D01*
X58539523Y-98592142D01*
X58539523Y-98449285D01*
X58491904Y-98354047D01*
X58444285Y-98306428D01*
X58349047Y-98258809D01*
X57968095Y-98258809D01*
X58968095Y-97782619D02*
X58968095Y-98782619D01*
X59968095Y-98735000D02*
X59872857Y-98782619D01*
X59730000Y-98782619D01*
X59587142Y-98735000D01*
X59491904Y-98639761D01*
X59444285Y-98544523D01*
X59396666Y-98354047D01*
X59396666Y-98211190D01*
X59444285Y-98020714D01*
X59491904Y-97925476D01*
X59587142Y-97830238D01*
X59730000Y-97782619D01*
X59825238Y-97782619D01*
X59968095Y-97830238D01*
X60015714Y-97877857D01*
X60015714Y-98211190D01*
X59825238Y-98211190D01*
X60444285Y-97782619D02*
X60444285Y-98782619D01*
X60444285Y-98306428D02*
X61015714Y-98306428D01*
X61015714Y-97782619D02*
X61015714Y-98782619D01*
X61349047Y-98782619D02*
X61920476Y-98782619D01*
X61634761Y-97782619D02*
X61634761Y-98782619D01*
X63539523Y-98735000D02*
X63444285Y-98782619D01*
X63301428Y-98782619D01*
X63158571Y-98735000D01*
X63063333Y-98639761D01*
X63015714Y-98544523D01*
X62968095Y-98354047D01*
X62968095Y-98211190D01*
X63015714Y-98020714D01*
X63063333Y-97925476D01*
X63158571Y-97830238D01*
X63301428Y-97782619D01*
X63396666Y-97782619D01*
X63539523Y-97830238D01*
X63587142Y-97877857D01*
X63587142Y-98211190D01*
X63396666Y-98211190D01*
X64587142Y-97782619D02*
X64253809Y-98258809D01*
X64015714Y-97782619D02*
X64015714Y-98782619D01*
X64396666Y-98782619D01*
X64491904Y-98735000D01*
X64539523Y-98687380D01*
X64587142Y-98592142D01*
X64587142Y-98449285D01*
X64539523Y-98354047D01*
X64491904Y-98306428D01*
X64396666Y-98258809D01*
X64015714Y-98258809D01*
X65206190Y-98782619D02*
X65396666Y-98782619D01*
X65491904Y-98735000D01*
X65587142Y-98639761D01*
X65634761Y-98449285D01*
X65634761Y-98115952D01*
X65587142Y-97925476D01*
X65491904Y-97830238D01*
X65396666Y-97782619D01*
X65206190Y-97782619D01*
X65110952Y-97830238D01*
X65015714Y-97925476D01*
X64968095Y-98115952D01*
X64968095Y-98449285D01*
X65015714Y-98639761D01*
X65110952Y-98735000D01*
X65206190Y-98782619D01*
X66063333Y-98782619D02*
X66063333Y-97973095D01*
X66110952Y-97877857D01*
X66158571Y-97830238D01*
X66253809Y-97782619D01*
X66444285Y-97782619D01*
X66539523Y-97830238D01*
X66587142Y-97877857D01*
X66634761Y-97973095D01*
X66634761Y-98782619D01*
X67110952Y-97782619D02*
X67110952Y-98782619D01*
X67491904Y-98782619D01*
X67587142Y-98735000D01*
X67634761Y-98687380D01*
X67682380Y-98592142D01*
X67682380Y-98449285D01*
X67634761Y-98354047D01*
X67587142Y-98306428D01*
X67491904Y-98258809D01*
X67110952Y-98258809D01*
X58849047Y-94352619D02*
X58515714Y-94828809D01*
X58277619Y-94352619D02*
X58277619Y-95352619D01*
X58658571Y-95352619D01*
X58753809Y-95305000D01*
X58801428Y-95257380D01*
X58849047Y-95162142D01*
X58849047Y-95019285D01*
X58801428Y-94924047D01*
X58753809Y-94876428D01*
X58658571Y-94828809D01*
X58277619Y-94828809D01*
X59277619Y-94876428D02*
X59610952Y-94876428D01*
X59753809Y-94352619D02*
X59277619Y-94352619D01*
X59277619Y-95352619D01*
X59753809Y-95352619D01*
X60039523Y-95352619D02*
X60372857Y-94352619D01*
X60706190Y-95352619D01*
X61039523Y-94352619D02*
X61039523Y-95352619D01*
X61468095Y-94400238D02*
X61610952Y-94352619D01*
X61849047Y-94352619D01*
X61944285Y-94400238D01*
X61991904Y-94447857D01*
X62039523Y-94543095D01*
X62039523Y-94638333D01*
X61991904Y-94733571D01*
X61944285Y-94781190D01*
X61849047Y-94828809D01*
X61658571Y-94876428D01*
X61563333Y-94924047D01*
X61515714Y-94971666D01*
X61468095Y-95066904D01*
X61468095Y-95162142D01*
X61515714Y-95257380D01*
X61563333Y-95305000D01*
X61658571Y-95352619D01*
X61896666Y-95352619D01*
X62039523Y-95305000D01*
X62468095Y-94352619D02*
X62468095Y-95352619D01*
X63134761Y-95352619D02*
X63325238Y-95352619D01*
X63420476Y-95305000D01*
X63515714Y-95209761D01*
X63563333Y-95019285D01*
X63563333Y-94685952D01*
X63515714Y-94495476D01*
X63420476Y-94400238D01*
X63325238Y-94352619D01*
X63134761Y-94352619D01*
X63039523Y-94400238D01*
X62944285Y-94495476D01*
X62896666Y-94685952D01*
X62896666Y-95019285D01*
X62944285Y-95209761D01*
X63039523Y-95305000D01*
X63134761Y-95352619D01*
X63991904Y-94352619D02*
X63991904Y-95352619D01*
X64563333Y-94352619D01*
X64563333Y-95352619D01*
X65753809Y-94638333D02*
X66230000Y-94638333D01*
X65658571Y-94352619D02*
X65991904Y-95352619D01*
X66325238Y-94352619D01*
X56253809Y-93226428D02*
X55920476Y-93226428D01*
X55920476Y-92702619D02*
X55920476Y-93702619D01*
X56396666Y-93702619D01*
X56777619Y-93226428D02*
X57110952Y-93226428D01*
X57253809Y-92702619D02*
X56777619Y-92702619D01*
X56777619Y-93702619D01*
X57253809Y-93702619D01*
X58015714Y-93226428D02*
X58158571Y-93178809D01*
X58206190Y-93131190D01*
X58253809Y-93035952D01*
X58253809Y-92893095D01*
X58206190Y-92797857D01*
X58158571Y-92750238D01*
X58063333Y-92702619D01*
X57682380Y-92702619D01*
X57682380Y-93702619D01*
X58015714Y-93702619D01*
X58110952Y-93655000D01*
X58158571Y-93607380D01*
X58206190Y-93512142D01*
X58206190Y-93416904D01*
X58158571Y-93321666D01*
X58110952Y-93274047D01*
X58015714Y-93226428D01*
X57682380Y-93226428D01*
X59253809Y-92702619D02*
X58920476Y-93178809D01*
X58682380Y-92702619D02*
X58682380Y-93702619D01*
X59063333Y-93702619D01*
X59158571Y-93655000D01*
X59206190Y-93607380D01*
X59253809Y-93512142D01*
X59253809Y-93369285D01*
X59206190Y-93274047D01*
X59158571Y-93226428D01*
X59063333Y-93178809D01*
X58682380Y-93178809D01*
X59682380Y-93702619D02*
X59682380Y-92893095D01*
X59730000Y-92797857D01*
X59777619Y-92750238D01*
X59872857Y-92702619D01*
X60063333Y-92702619D01*
X60158571Y-92750238D01*
X60206190Y-92797857D01*
X60253809Y-92893095D01*
X60253809Y-93702619D01*
X61301428Y-92702619D02*
X60968095Y-93178809D01*
X60730000Y-92702619D02*
X60730000Y-93702619D01*
X61110952Y-93702619D01*
X61206190Y-93655000D01*
X61253809Y-93607380D01*
X61301428Y-93512142D01*
X61301428Y-93369285D01*
X61253809Y-93274047D01*
X61206190Y-93226428D01*
X61110952Y-93178809D01*
X60730000Y-93178809D01*
X61682380Y-92988333D02*
X62158571Y-92988333D01*
X61587142Y-92702619D02*
X61920476Y-93702619D01*
X62253809Y-92702619D01*
X63158571Y-92702619D02*
X62825238Y-93178809D01*
X62587142Y-92702619D02*
X62587142Y-93702619D01*
X62968095Y-93702619D01*
X63063333Y-93655000D01*
X63110952Y-93607380D01*
X63158571Y-93512142D01*
X63158571Y-93369285D01*
X63110952Y-93274047D01*
X63063333Y-93226428D01*
X62968095Y-93178809D01*
X62587142Y-93178809D01*
X63777619Y-93178809D02*
X63777619Y-92702619D01*
X63444285Y-93702619D02*
X63777619Y-93178809D01*
X64110952Y-93702619D01*
X65158571Y-93607380D02*
X65206190Y-93655000D01*
X65301428Y-93702619D01*
X65539523Y-93702619D01*
X65634761Y-93655000D01*
X65682380Y-93607380D01*
X65730000Y-93512142D01*
X65730000Y-93416904D01*
X65682380Y-93274047D01*
X65110952Y-92702619D01*
X65730000Y-92702619D01*
X66349047Y-93702619D02*
X66444285Y-93702619D01*
X66539523Y-93655000D01*
X66587142Y-93607380D01*
X66634761Y-93512142D01*
X66682380Y-93321666D01*
X66682380Y-93083571D01*
X66634761Y-92893095D01*
X66587142Y-92797857D01*
X66539523Y-92750238D01*
X66444285Y-92702619D01*
X66349047Y-92702619D01*
X66253809Y-92750238D01*
X66206190Y-92797857D01*
X66158571Y-92893095D01*
X66110952Y-93083571D01*
X66110952Y-93321666D01*
X66158571Y-93512142D01*
X66206190Y-93607380D01*
X66253809Y-93655000D01*
X66349047Y-93702619D01*
X67063333Y-93607380D02*
X67110952Y-93655000D01*
X67206190Y-93702619D01*
X67444285Y-93702619D01*
X67539523Y-93655000D01*
X67587142Y-93607380D01*
X67634761Y-93512142D01*
X67634761Y-93416904D01*
X67587142Y-93274047D01*
X67015714Y-92702619D01*
X67634761Y-92702619D01*
X68587142Y-92702619D02*
X68015714Y-92702619D01*
X68301428Y-92702619D02*
X68301428Y-93702619D01*
X68206190Y-93559761D01*
X68110952Y-93464523D01*
X68015714Y-93416904D01*
M02*
