%TF.GenerationSoftware,KiCad,Pcbnew,5.1.8+dfsg1-1+b1*%
%TF.CreationDate,2021-02-16T13:38:33-06:00*%
%TF.ProjectId,interrupt-hat,696e7465-7272-4757-9074-2d6861742e6b,A*%
%TF.SameCoordinates,Original*%
%TF.FileFunction,Soldermask,Bot*%
%TF.FilePolarity,Negative*%
%FSLAX46Y46*%
G04 Gerber Fmt 4.6, Leading zero omitted, Abs format (unit mm)*
G04 Created by KiCad (PCBNEW 5.1.8+dfsg1-1+b1) date 2021-02-16 13:38:33*
%MOMM*%
%LPD*%
G01*
G04 APERTURE LIST*
%ADD10C,1.524000*%
%ADD11O,1.727200X1.727200*%
%ADD12R,1.727200X1.727200*%
%ADD13C,6.200000*%
G04 APERTURE END LIST*
D10*
%TO.C,J8*%
X105410000Y-59690000D03*
X105410000Y-62230000D03*
G36*
G01*
X105791000Y-65532000D02*
X105029000Y-65532000D01*
G75*
G02*
X104648000Y-65151000I0J381000D01*
G01*
X104648000Y-64389000D01*
G75*
G02*
X105029000Y-64008000I381000J0D01*
G01*
X105791000Y-64008000D01*
G75*
G02*
X106172000Y-64389000I0J-381000D01*
G01*
X106172000Y-65151000D01*
G75*
G02*
X105791000Y-65532000I-381000J0D01*
G01*
G37*
%TD*%
%TO.C,J7*%
X105410000Y-68580000D03*
X105410000Y-71120000D03*
G36*
G01*
X105791000Y-74422000D02*
X105029000Y-74422000D01*
G75*
G02*
X104648000Y-74041000I0J381000D01*
G01*
X104648000Y-73279000D01*
G75*
G02*
X105029000Y-72898000I381000J0D01*
G01*
X105791000Y-72898000D01*
G75*
G02*
X106172000Y-73279000I0J-381000D01*
G01*
X106172000Y-74041000D01*
G75*
G02*
X105791000Y-74422000I-381000J0D01*
G01*
G37*
%TD*%
%TO.C,J6*%
X105410000Y-77470000D03*
X105410000Y-80010000D03*
G36*
G01*
X105791000Y-83312000D02*
X105029000Y-83312000D01*
G75*
G02*
X104648000Y-82931000I0J381000D01*
G01*
X104648000Y-82169000D01*
G75*
G02*
X105029000Y-81788000I381000J0D01*
G01*
X105791000Y-81788000D01*
G75*
G02*
X106172000Y-82169000I0J-381000D01*
G01*
X106172000Y-82931000D01*
G75*
G02*
X105791000Y-83312000I-381000J0D01*
G01*
G37*
%TD*%
%TO.C,J5*%
X105410000Y-86360000D03*
X105410000Y-88900000D03*
G36*
G01*
X105791000Y-92202000D02*
X105029000Y-92202000D01*
G75*
G02*
X104648000Y-91821000I0J381000D01*
G01*
X104648000Y-91059000D01*
G75*
G02*
X105029000Y-90678000I381000J0D01*
G01*
X105791000Y-90678000D01*
G75*
G02*
X106172000Y-91059000I0J-381000D01*
G01*
X106172000Y-91821000D01*
G75*
G02*
X105791000Y-92202000I-381000J0D01*
G01*
G37*
%TD*%
%TO.C,J4*%
X101600000Y-96520000D03*
X99060000Y-96520000D03*
G36*
G01*
X95758000Y-96901000D02*
X95758000Y-96139000D01*
G75*
G02*
X96139000Y-95758000I381000J0D01*
G01*
X96901000Y-95758000D01*
G75*
G02*
X97282000Y-96139000I0J-381000D01*
G01*
X97282000Y-96901000D01*
G75*
G02*
X96901000Y-97282000I-381000J0D01*
G01*
X96139000Y-97282000D01*
G75*
G02*
X95758000Y-96901000I0J381000D01*
G01*
G37*
%TD*%
%TO.C,J3*%
X92710000Y-96520000D03*
X90170000Y-96520000D03*
G36*
G01*
X86868000Y-96901000D02*
X86868000Y-96139000D01*
G75*
G02*
X87249000Y-95758000I381000J0D01*
G01*
X88011000Y-95758000D01*
G75*
G02*
X88392000Y-96139000I0J-381000D01*
G01*
X88392000Y-96901000D01*
G75*
G02*
X88011000Y-97282000I-381000J0D01*
G01*
X87249000Y-97282000D01*
G75*
G02*
X86868000Y-96901000I0J381000D01*
G01*
G37*
%TD*%
%TO.C,J2*%
X83820000Y-96520000D03*
X81280000Y-96520000D03*
G36*
G01*
X77978000Y-96901000D02*
X77978000Y-96139000D01*
G75*
G02*
X78359000Y-95758000I381000J0D01*
G01*
X79121000Y-95758000D01*
G75*
G02*
X79502000Y-96139000I0J-381000D01*
G01*
X79502000Y-96901000D01*
G75*
G02*
X79121000Y-97282000I-381000J0D01*
G01*
X78359000Y-97282000D01*
G75*
G02*
X77978000Y-96901000I0J381000D01*
G01*
G37*
%TD*%
%TO.C,J1*%
X74930000Y-96520000D03*
X72390000Y-96520000D03*
G36*
G01*
X69088000Y-96901000D02*
X69088000Y-96139000D01*
G75*
G02*
X69469000Y-95758000I381000J0D01*
G01*
X70231000Y-95758000D01*
G75*
G02*
X70612000Y-96139000I0J-381000D01*
G01*
X70612000Y-96901000D01*
G75*
G02*
X70231000Y-97282000I-381000J0D01*
G01*
X69469000Y-97282000D01*
G75*
G02*
X69088000Y-96901000I0J381000D01*
G01*
G37*
%TD*%
D11*
%TO.C,J0*%
X103930000Y-49530000D03*
X103930000Y-52070000D03*
X101390000Y-49530000D03*
X101390000Y-52070000D03*
X98850000Y-49530000D03*
X98850000Y-52070000D03*
X96310000Y-49530000D03*
X96310000Y-52070000D03*
X93770000Y-49530000D03*
X93770000Y-52070000D03*
X91230000Y-49530000D03*
X91230000Y-52070000D03*
X88690000Y-49530000D03*
X88690000Y-52070000D03*
X86150000Y-49530000D03*
X86150000Y-52070000D03*
X83610000Y-49530000D03*
X83610000Y-52070000D03*
X81070000Y-49530000D03*
X81070000Y-52070000D03*
X78530000Y-49530000D03*
X78530000Y-52070000D03*
X75990000Y-49530000D03*
X75990000Y-52070000D03*
X73450000Y-49530000D03*
X73450000Y-52070000D03*
X70910000Y-49530000D03*
X70910000Y-52070000D03*
X68370000Y-49530000D03*
X68370000Y-52070000D03*
X65830000Y-49530000D03*
X65830000Y-52070000D03*
X63290000Y-49530000D03*
X63290000Y-52070000D03*
X60750000Y-49530000D03*
X60750000Y-52070000D03*
X58210000Y-49530000D03*
X58210000Y-52070000D03*
X55670000Y-49530000D03*
D12*
X55670000Y-52070000D03*
%TD*%
D13*
%TO.C,*%
X108800000Y-50800000D03*
%TD*%
%TO.C,*%
X108800000Y-99800000D03*
%TD*%
%TO.C,*%
X50800000Y-99800000D03*
%TD*%
%TO.C,*%
X50800000Y-50800000D03*
%TD*%
M02*
