M48
; DRILL file {KiCad 5.1.8+dfsg1-1+b1} date Tue Feb 16 13:32:45 2021
; FORMAT={-:-/ absolute / inch / decimal}
; #@! TF.CreationDate,2021-02-16T13:32:45-06:00
; #@! TF.GenerationSoftware,Kicad,Pcbnew,5.1.8+dfsg1-1+b1
; #@! TF.FileFunction,Plated,1,2,PTH
FMAT,2
INCH
T1C0.0157
T2C0.0300
T3C0.0400
%
G90
G05
T1
X2.1Y-2.55
X2.1Y-3.2
X2.175Y-2.475
X2.175Y-3.125
X2.375Y-2.475
X2.375Y-2.675
X2.375Y-3.125
X2.375Y-3.325
X2.5Y-2.95
X2.55Y-2.4
X2.55Y-3.0
X2.6Y-2.55
X2.6Y-3.2
X2.675Y-2.475
X2.675Y-3.125
X2.775Y-2.175
X2.825Y-2.225
X2.875Y-2.475
X2.875Y-2.675
X2.875Y-3.125
X2.875Y-3.325
X3.0Y-3.25
X3.05Y-2.35
X3.1Y-2.55
X3.1Y-3.2
X3.175Y-3.125
X3.25Y-2.4
X3.375Y-2.275
X3.375Y-2.475
X3.375Y-2.675
X3.375Y-3.125
X3.375Y-3.325
X3.45Y-3.6
X3.5Y-3.0
X3.55Y-3.6
X3.6Y-2.55
X3.6Y-3.2
X3.675Y-2.475
X3.675Y-3.125
X3.875Y-2.475
X3.875Y-2.675
X3.875Y-3.125
X3.875Y-3.325
T2
X3.45Y-3.8
X3.55Y-3.8
X3.65Y-3.8
X2.75Y-3.8
X2.85Y-3.8
X2.95Y-3.8
X4.15Y-3.4
X4.15Y-3.5
X4.15Y-3.6
X4.15Y-2.35
X4.15Y-2.45
X4.15Y-2.55
X4.15Y-3.05
X4.15Y-3.15
X4.15Y-3.25
X4.15Y-2.7
X4.15Y-2.8
X4.15Y-2.9
X3.8Y-3.8
X3.9Y-3.8
X4.0Y-3.8
X3.1Y-3.8
X3.2Y-3.8
X3.3Y-3.8
T3
X2.1917Y-1.95
X2.1917Y-2.05
X2.2917Y-1.95
X2.2917Y-2.05
X2.3917Y-1.95
X2.3917Y-2.05
X2.4917Y-1.95
X2.4917Y-2.05
X2.5917Y-1.95
X2.5917Y-2.05
X2.6917Y-1.95
X2.6917Y-2.05
X2.7917Y-1.95
X2.7917Y-2.05
X2.8917Y-1.95
X2.8917Y-2.05
X2.9917Y-1.95
X2.9917Y-2.05
X3.0917Y-1.95
X3.0917Y-2.05
X3.1917Y-1.95
X3.1917Y-2.05
X3.2917Y-1.95
X3.2917Y-2.05
X3.3917Y-1.95
X3.3917Y-2.05
X3.4917Y-1.95
X3.4917Y-2.05
X3.5917Y-1.95
X3.5917Y-2.05
X3.6917Y-1.95
X3.6917Y-2.05
X3.7917Y-1.95
X3.7917Y-2.05
X3.8917Y-1.95
X3.8917Y-2.05
X3.9917Y-1.95
X3.9917Y-2.05
X4.0917Y-1.95
X4.0917Y-2.05
T0
M30
