<?xml version="1.0" standalone="no"?>
<!DOCTYPE svg PUBLIC "-//W3C//DTD SVG 1.1//EN" "http://www.w3.org/Graphics/SVG/1.1/DTD/svg11.dtd">
<svg width="99mm" height="77mm" viewBox="0 -77 99 77" xmlns="http://www.w3.org/2000/svg" version="1.1">
<title>OpenSCAD Model</title>
<path d="
M 0,-0 L 98.425,-0 L 98.425,-76.2 L 0,-76.2 z
M 6.7,-12.7 L 6.71184,-13.0767 L 6.74731,-13.452 L 6.80628,-13.8243 L 6.8885,-14.1921 L 6.99366,-14.5541
 L 7.12134,-14.9087 L 7.27104,-15.2547 L 7.44216,-15.5905 L 7.63403,-15.915 L 7.8459,-16.2267 L 8.07692,-16.5245
 L 8.32619,-16.8073 L 8.59272,-17.0738 L 8.87546,-17.3231 L 9.17329,-17.5541 L 9.48504,-17.766 L 9.80948,-17.9578
 L 10.1453,-18.129 L 10.4913,-18.2787 L 10.8459,-18.4063 L 11.2079,-18.5115 L 11.5757,-18.5937 L 11.948,-18.6527
 L 12.3233,-18.6882 L 12.7,-18.7 L 13.0767,-18.6882 L 13.452,-18.6527 L 13.8243,-18.5937 L 14.1921,-18.5115
 L 14.5541,-18.4063 L 14.9087,-18.2787 L 15.2547,-18.129 L 15.5905,-17.9578 L 15.915,-17.766 L 16.2267,-17.5541
 L 16.5245,-17.3231 L 16.8073,-17.0738 L 17.0738,-16.8073 L 17.3231,-16.5245 L 17.5541,-16.2267 L 17.766,-15.915
 L 17.9578,-15.5905 L 18.129,-15.2547 L 18.2787,-14.9087 L 18.4063,-14.5541 L 18.5115,-14.1921 L 18.5937,-13.8243
 L 18.6527,-13.452 L 18.6882,-13.0767 L 18.7,-12.7 L 18.6882,-12.3233 L 18.6527,-11.948 L 18.5937,-11.5757
 L 18.5115,-11.2079 L 18.4063,-10.8459 L 18.2787,-10.4913 L 18.129,-10.1453 L 17.9578,-9.80948 L 17.766,-9.48504
 L 17.5541,-9.17329 L 17.3231,-8.87546 L 17.0738,-8.59272 L 16.8073,-8.32619 L 16.5245,-8.07692 L 16.2267,-7.8459
 L 15.915,-7.63403 L 15.5905,-7.44216 L 15.2547,-7.27104 L 14.9087,-7.12134 L 14.5541,-6.99366 L 14.1921,-6.8885
 L 13.8243,-6.80628 L 13.452,-6.74731 L 13.0767,-6.71184 L 12.7,-6.7 L 12.3233,-6.71184 L 11.948,-6.74731
 L 11.5757,-6.80628 L 11.2079,-6.8885 L 10.8459,-6.99366 L 10.4913,-7.12134 L 10.1453,-7.27104 L 9.80948,-7.44216
 L 9.48504,-7.63403 L 9.17329,-7.8459 L 8.87546,-8.07692 L 8.59272,-8.32619 L 8.32619,-8.59272 L 8.07692,-8.87546
 L 7.8459,-9.17329 L 7.63403,-9.48504 L 7.44216,-9.80948 L 7.27104,-10.1453 L 7.12134,-10.4913 L 6.99366,-10.8459
 L 6.8885,-11.2079 L 6.80628,-11.5757 L 6.74731,-11.948 L 6.71184,-12.3233 z
M 6.7,-63.5 L 6.71184,-63.8767 L 6.74731,-64.252 L 6.80628,-64.6243 L 6.8885,-64.9921 L 6.99366,-65.3541
 L 7.12134,-65.7087 L 7.27104,-66.0547 L 7.44216,-66.3905 L 7.63403,-66.715 L 7.8459,-67.0267 L 8.07692,-67.3245
 L 8.32619,-67.6073 L 8.59272,-67.8738 L 8.87546,-68.1231 L 9.17329,-68.3541 L 9.48504,-68.566 L 9.80948,-68.7578
 L 10.1453,-68.929 L 10.4913,-69.0787 L 10.8459,-69.2063 L 11.2079,-69.3115 L 11.5757,-69.3937 L 11.948,-69.4527
 L 12.3233,-69.4882 L 12.7,-69.5 L 13.0767,-69.4882 L 13.452,-69.4527 L 13.8243,-69.3937 L 14.1921,-69.3115
 L 14.5541,-69.2063 L 14.9087,-69.0787 L 15.2547,-68.929 L 15.5905,-68.7578 L 15.915,-68.566 L 16.2267,-68.3541
 L 16.5245,-68.1231 L 16.8073,-67.8738 L 17.0738,-67.6073 L 17.3231,-67.3245 L 17.5541,-67.0267 L 17.766,-66.715
 L 17.9578,-66.3905 L 18.129,-66.0547 L 18.2787,-65.7087 L 18.4063,-65.3541 L 18.5115,-64.9921 L 18.5937,-64.6243
 L 18.6527,-64.252 L 18.6882,-63.8767 L 18.7,-63.5 L 18.6882,-63.1233 L 18.6527,-62.748 L 18.5937,-62.3757
 L 18.5115,-62.0079 L 18.4063,-61.6459 L 18.2787,-61.2913 L 18.129,-60.9453 L 17.9578,-60.6095 L 17.766,-60.285
 L 17.5541,-59.9733 L 17.3231,-59.6755 L 17.0738,-59.3927 L 16.8073,-59.1262 L 16.5245,-58.8769 L 16.2267,-58.6459
 L 15.915,-58.434 L 15.5905,-58.2422 L 15.2547,-58.071 L 14.9087,-57.9213 L 14.5541,-57.7937 L 14.1921,-57.6885
 L 13.8243,-57.6063 L 13.452,-57.5473 L 13.0767,-57.5118 L 12.7,-57.5 L 12.3233,-57.5118 L 11.948,-57.5473
 L 11.5757,-57.6063 L 11.2079,-57.6885 L 10.8459,-57.7937 L 10.4913,-57.9213 L 10.1453,-58.071 L 9.80948,-58.2422
 L 9.48504,-58.434 L 9.17329,-58.6459 L 8.87546,-58.8769 L 8.59272,-59.1262 L 8.32619,-59.3927 L 8.07692,-59.6755
 L 7.8459,-59.9733 L 7.63403,-60.285 L 7.44216,-60.6095 L 7.27104,-60.9453 L 7.12134,-61.2913 L 6.99366,-61.6459
 L 6.8885,-62.0079 L 6.80628,-62.3757 L 6.74731,-62.748 L 6.71184,-63.1233 z
M 23.8125,-38.1 L 23.8156,-38.1997 L 23.825,-38.299 L 23.8406,-38.3975 L 23.8624,-38.4948 L 23.8902,-38.5906
 L 23.924,-38.6844 L 23.9636,-38.7759 L 24.0089,-38.8648 L 24.0596,-38.9506 L 24.1157,-39.0331 L 24.1768,-39.1119
 L 24.2428,-39.1867 L 24.3133,-39.2572 L 24.3881,-39.3232 L 24.4669,-39.3843 L 24.5494,-39.4404 L 24.6352,-39.4911
 L 24.7241,-39.5364 L 24.8156,-39.576 L 24.9094,-39.6098 L 25.0052,-39.6376 L 25.1025,-39.6594 L 25.201,-39.675
 L 25.3003,-39.6844 L 25.4,-39.6875 L 25.4997,-39.6844 L 25.599,-39.675 L 25.6975,-39.6594 L 25.7948,-39.6376
 L 25.8906,-39.6098 L 25.9844,-39.576 L 26.0759,-39.5364 L 26.1648,-39.4911 L 26.2506,-39.4404 L 26.3331,-39.3843
 L 26.4119,-39.3232 L 26.4867,-39.2572 L 26.5572,-39.1867 L 26.6232,-39.1119 L 26.6843,-39.0331 L 26.7404,-38.9506
 L 26.7911,-38.8648 L 26.8364,-38.7759 L 26.876,-38.6844 L 26.9098,-38.5906 L 26.9376,-38.4948 L 26.9594,-38.3975
 L 26.975,-38.299 L 26.9844,-38.1997 L 26.9875,-38.1 L 26.9844,-38.0003 L 26.975,-37.901 L 26.9594,-37.8025
 L 26.9376,-37.7052 L 26.9098,-37.6094 L 26.876,-37.5156 L 26.8364,-37.4241 L 26.7911,-37.3352 L 26.7404,-37.2494
 L 26.6843,-37.1669 L 26.6232,-37.0881 L 26.5572,-37.0133 L 26.4867,-36.9428 L 26.4119,-36.8768 L 26.3331,-36.8157
 L 26.2506,-36.7596 L 26.1648,-36.7089 L 26.0759,-36.6636 L 25.9844,-36.624 L 25.8906,-36.5902 L 25.7948,-36.5624
 L 25.6975,-36.5406 L 25.599,-36.525 L 25.4997,-36.5156 L 25.4,-36.5125 L 25.3003,-36.5156 L 25.201,-36.525
 L 25.1025,-36.5406 L 25.0052,-36.5624 L 24.9094,-36.5902 L 24.8156,-36.624 L 24.7241,-36.6636 L 24.6352,-36.7089
 L 24.5494,-36.7596 L 24.4669,-36.8157 L 24.3881,-36.8768 L 24.3133,-36.9428 L 24.2428,-37.0133 L 24.1768,-37.0881
 L 24.1157,-37.1669 L 24.0596,-37.2494 L 24.0089,-37.3352 L 23.9636,-37.4241 L 23.924,-37.5156 L 23.8902,-37.6094
 L 23.8624,-37.7052 L 23.8406,-37.8025 L 23.825,-37.901 L 23.8156,-38.0003 z
M 34.8361,-38.1 L 34.8425,-38.3049 L 34.8618,-38.5091 L 34.8939,-38.7116 L 34.9386,-38.9117 L 34.9958,-39.1086
 L 35.0653,-39.3015 L 35.1467,-39.4897 L 35.2398,-39.6724 L 35.3442,-39.8489 L 35.4594,-40.0185 L 35.5851,-40.1805
 L 35.7207,-40.3343 L 35.8657,-40.4793 L 36.0195,-40.6149 L 36.1815,-40.7406 L 36.3511,-40.8558 L 36.5276,-40.9602
 L 36.7103,-41.0533 L 36.8985,-41.1347 L 37.0914,-41.2042 L 37.2883,-41.2614 L 37.4884,-41.3061 L 37.6909,-41.3382
 L 37.8951,-41.3575 L 38.1,-41.3639 L 38.3049,-41.3575 L 38.5091,-41.3382 L 38.7116,-41.3061 L 38.9117,-41.2614
 L 39.1086,-41.2042 L 39.3015,-41.1347 L 39.4897,-41.0533 L 39.6724,-40.9602 L 39.8489,-40.8558 L 40.0185,-40.7406
 L 40.1805,-40.6149 L 40.3343,-40.4793 L 40.4793,-40.3343 L 40.6149,-40.1805 L 40.7406,-40.0185 L 40.8558,-39.8489
 L 40.9602,-39.6724 L 41.0533,-39.4897 L 41.1347,-39.3015 L 41.2042,-39.1086 L 41.2614,-38.9117 L 41.3061,-38.7116
 L 41.3382,-38.5091 L 41.3575,-38.3049 L 41.3639,-38.1 L 41.3575,-37.8951 L 41.3382,-37.6909 L 41.3061,-37.4884
 L 41.2614,-37.2883 L 41.2042,-37.0914 L 41.1347,-36.8985 L 41.0533,-36.7103 L 40.9602,-36.5276 L 40.8558,-36.3511
 L 40.7406,-36.1815 L 40.6149,-36.0195 L 40.4793,-35.8657 L 40.3343,-35.7207 L 40.1805,-35.5851 L 40.0185,-35.4594
 L 39.8489,-35.3442 L 39.6724,-35.2398 L 39.4897,-35.1467 L 39.3015,-35.0653 L 39.1086,-34.9958 L 38.9117,-34.9386
 L 38.7116,-34.8939 L 38.5091,-34.8618 L 38.3049,-34.8425 L 38.1,-34.8361 L 37.8951,-34.8425 L 37.6909,-34.8618
 L 37.4884,-34.8939 L 37.2883,-34.9386 L 37.0914,-34.9958 L 36.8985,-35.0653 L 36.7103,-35.1467 L 36.5276,-35.2398
 L 36.3511,-35.3442 L 36.1815,-35.4594 L 36.0195,-35.5851 L 35.8657,-35.7207 L 35.7207,-35.8657 L 35.5851,-36.0195
 L 35.4594,-36.1815 L 35.3442,-36.3511 L 35.2398,-36.5276 L 35.1467,-36.7103 L 35.0653,-36.8985 L 34.9958,-37.0914
 L 34.9386,-37.2883 L 34.8939,-37.4884 L 34.8618,-37.6909 L 34.8425,-37.8951 z
M 60.2361,-38.1 L 60.2425,-38.3049 L 60.2618,-38.5091 L 60.2939,-38.7116 L 60.3386,-38.9117 L 60.3958,-39.1086
 L 60.4653,-39.3015 L 60.5467,-39.4897 L 60.6398,-39.6724 L 60.7442,-39.8489 L 60.8594,-40.0185 L 60.9851,-40.1805
 L 61.1207,-40.3343 L 61.2657,-40.4793 L 61.4195,-40.6149 L 61.5815,-40.7406 L 61.7511,-40.8558 L 61.9276,-40.9602
 L 62.1103,-41.0533 L 62.2985,-41.1347 L 62.4914,-41.2042 L 62.6883,-41.2614 L 62.8884,-41.3061 L 63.0909,-41.3382
 L 63.2951,-41.3575 L 63.5,-41.3639 L 63.7049,-41.3575 L 63.9091,-41.3382 L 64.1116,-41.3061 L 64.3117,-41.2614
 L 64.5086,-41.2042 L 64.7015,-41.1347 L 64.8897,-41.0533 L 65.0724,-40.9602 L 65.2489,-40.8558 L 65.4185,-40.7406
 L 65.5805,-40.6149 L 65.7343,-40.4793 L 65.8793,-40.3343 L 66.0149,-40.1805 L 66.1405,-40.0185 L 66.2558,-39.8489
 L 66.3602,-39.6724 L 66.4533,-39.4897 L 66.5347,-39.3015 L 66.6042,-39.1086 L 66.6614,-38.9117 L 66.7061,-38.7116
 L 66.7382,-38.5091 L 66.7575,-38.3049 L 66.7639,-38.1 L 66.7575,-37.8951 L 66.7382,-37.6909 L 66.7061,-37.4884
 L 66.6614,-37.2883 L 66.6042,-37.0914 L 66.5347,-36.8985 L 66.4533,-36.7103 L 66.3602,-36.5276 L 66.2558,-36.3511
 L 66.1405,-36.1815 L 66.0149,-36.0195 L 65.8793,-35.8657 L 65.7343,-35.7207 L 65.5805,-35.5851 L 65.4185,-35.4594
 L 65.2489,-35.3442 L 65.0724,-35.2398 L 64.8897,-35.1467 L 64.7015,-35.0653 L 64.5086,-34.9958 L 64.3117,-34.9386
 L 64.1116,-34.8939 L 63.9091,-34.8618 L 63.7049,-34.8425 L 63.5,-34.8361 L 63.2951,-34.8425 L 63.0909,-34.8618
 L 62.8884,-34.8939 L 62.6883,-34.9386 L 62.4914,-34.9958 L 62.2985,-35.0653 L 62.1103,-35.1467 L 61.9276,-35.2398
 L 61.7511,-35.3442 L 61.5815,-35.4594 L 61.4195,-35.5851 L 61.2657,-35.7207 L 61.1207,-35.8657 L 60.9851,-36.0195
 L 60.8594,-36.1815 L 60.7442,-36.3511 L 60.6398,-36.5276 L 60.5467,-36.7103 L 60.4653,-36.8985 L 60.3958,-37.0914
 L 60.3386,-37.2883 L 60.2939,-37.4884 L 60.2618,-37.6909 L 60.2425,-37.8951 z
M 74.6125,-38.1 L 74.6156,-38.1997 L 74.625,-38.299 L 74.6406,-38.3975 L 74.6624,-38.4948 L 74.6902,-38.5906
 L 74.724,-38.6844 L 74.7636,-38.7759 L 74.8089,-38.8648 L 74.8596,-38.9506 L 74.9157,-39.0331 L 74.9768,-39.1119
 L 75.0428,-39.1867 L 75.1133,-39.2572 L 75.1881,-39.3232 L 75.2669,-39.3843 L 75.3494,-39.4404 L 75.4352,-39.4911
 L 75.5241,-39.5364 L 75.6156,-39.576 L 75.7094,-39.6098 L 75.8052,-39.6376 L 75.9025,-39.6594 L 76.001,-39.675
 L 76.1003,-39.6844 L 76.2,-39.6875 L 76.2997,-39.6844 L 76.399,-39.675 L 76.4975,-39.6594 L 76.5948,-39.6376
 L 76.6906,-39.6098 L 76.7844,-39.576 L 76.8759,-39.5364 L 76.9648,-39.4911 L 77.0506,-39.4404 L 77.1331,-39.3843
 L 77.2119,-39.3232 L 77.2867,-39.2572 L 77.3572,-39.1867 L 77.4232,-39.1119 L 77.4843,-39.0331 L 77.5404,-38.9506
 L 77.5911,-38.8648 L 77.6364,-38.7759 L 77.676,-38.6844 L 77.7098,-38.5906 L 77.7376,-38.4948 L 77.7594,-38.3975
 L 77.775,-38.299 L 77.7844,-38.1997 L 77.7875,-38.1 L 77.7844,-38.0003 L 77.775,-37.901 L 77.7594,-37.8025
 L 77.7376,-37.7052 L 77.7098,-37.6094 L 77.676,-37.5156 L 77.6364,-37.4241 L 77.5911,-37.3352 L 77.5404,-37.2494
 L 77.4843,-37.1669 L 77.4232,-37.0881 L 77.3572,-37.0133 L 77.2867,-36.9428 L 77.2119,-36.8768 L 77.1331,-36.8157
 L 77.0506,-36.7596 L 76.9648,-36.7089 L 76.8759,-36.6636 L 76.7844,-36.624 L 76.6906,-36.5902 L 76.5948,-36.5624
 L 76.4975,-36.5406 L 76.399,-36.525 L 76.2997,-36.5156 L 76.2,-36.5125 L 76.1003,-36.5156 L 76.001,-36.525
 L 75.9025,-36.5406 L 75.8052,-36.5624 L 75.7094,-36.5902 L 75.6156,-36.624 L 75.5241,-36.6636 L 75.4352,-36.7089
 L 75.3494,-36.7596 L 75.2669,-36.8157 L 75.1881,-36.8768 L 75.1133,-36.9428 L 75.0428,-37.0133 L 74.9768,-37.0881
 L 74.9157,-37.1669 L 74.8596,-37.2494 L 74.8089,-37.3352 L 74.7636,-37.4241 L 74.724,-37.5156 L 74.6902,-37.6094
 L 74.6624,-37.7052 L 74.6406,-37.8025 L 74.625,-37.901 L 74.6156,-38.0003 z
M 82.9,-12.7 L 82.9118,-13.0767 L 82.9473,-13.452 L 83.0063,-13.8243 L 83.0885,-14.1921 L 83.1937,-14.5541
 L 83.3213,-14.9087 L 83.471,-15.2547 L 83.6422,-15.5905 L 83.834,-15.915 L 84.0459,-16.2267 L 84.2769,-16.5245
 L 84.5262,-16.8073 L 84.7927,-17.0738 L 85.0755,-17.3231 L 85.3733,-17.5541 L 85.685,-17.766 L 86.0095,-17.9578
 L 86.3453,-18.129 L 86.6913,-18.2787 L 87.0459,-18.4063 L 87.4079,-18.5115 L 87.7757,-18.5937 L 88.148,-18.6527
 L 88.5233,-18.6882 L 88.9,-18.7 L 89.2767,-18.6882 L 89.652,-18.6527 L 90.0243,-18.5937 L 90.3921,-18.5115
 L 90.7541,-18.4063 L 91.1087,-18.2787 L 91.4547,-18.129 L 91.7905,-17.9578 L 92.115,-17.766 L 92.4267,-17.5541
 L 92.7245,-17.3231 L 93.0073,-17.0738 L 93.2738,-16.8073 L 93.5231,-16.5245 L 93.7541,-16.2267 L 93.966,-15.915
 L 94.1578,-15.5905 L 94.329,-15.2547 L 94.4787,-14.9087 L 94.6063,-14.5541 L 94.7115,-14.1921 L 94.7937,-13.8243
 L 94.8527,-13.452 L 94.8882,-13.0767 L 94.9,-12.7 L 94.8882,-12.3233 L 94.8527,-11.948 L 94.7937,-11.5757
 L 94.7115,-11.2079 L 94.6063,-10.8459 L 94.4787,-10.4913 L 94.329,-10.1453 L 94.1578,-9.80948 L 93.966,-9.48504
 L 93.7541,-9.17329 L 93.5231,-8.87546 L 93.2738,-8.59272 L 93.0073,-8.32619 L 92.7245,-8.07692 L 92.4267,-7.8459
 L 92.115,-7.63403 L 91.7905,-7.44216 L 91.4547,-7.27104 L 91.1087,-7.12134 L 90.7541,-6.99366 L 90.3921,-6.8885
 L 90.0243,-6.80628 L 89.652,-6.74731 L 89.2767,-6.71184 L 88.9,-6.7 L 88.5233,-6.71184 L 88.148,-6.74731
 L 87.7757,-6.80628 L 87.4079,-6.8885 L 87.0459,-6.99366 L 86.6913,-7.12134 L 86.3453,-7.27104 L 86.0095,-7.44216
 L 85.685,-7.63403 L 85.3733,-7.8459 L 85.0755,-8.07692 L 84.7927,-8.32619 L 84.5262,-8.59272 L 84.2769,-8.87546
 L 84.0459,-9.17329 L 83.834,-9.48504 L 83.6422,-9.80948 L 83.471,-10.1453 L 83.3213,-10.4913 L 83.1937,-10.8459
 L 83.0885,-11.2079 L 83.0063,-11.5757 L 82.9473,-11.948 L 82.9118,-12.3233 z
M 82.9,-63.5 L 82.9118,-63.8767 L 82.9473,-64.252 L 83.0063,-64.6243 L 83.0885,-64.9921 L 83.1937,-65.3541
 L 83.3213,-65.7087 L 83.471,-66.0547 L 83.6422,-66.3905 L 83.834,-66.715 L 84.0459,-67.0267 L 84.2769,-67.3245
 L 84.5262,-67.6073 L 84.7927,-67.8738 L 85.0755,-68.1231 L 85.3733,-68.3541 L 85.685,-68.566 L 86.0095,-68.7578
 L 86.3453,-68.929 L 86.6913,-69.0787 L 87.0459,-69.2063 L 87.4079,-69.3115 L 87.7757,-69.3937 L 88.148,-69.4527
 L 88.5233,-69.4882 L 88.9,-69.5 L 89.2767,-69.4882 L 89.652,-69.4527 L 90.0243,-69.3937 L 90.3921,-69.3115
 L 90.7541,-69.2063 L 91.1087,-69.0787 L 91.4547,-68.929 L 91.7905,-68.7578 L 92.115,-68.566 L 92.4267,-68.3541
 L 92.7245,-68.1231 L 93.0073,-67.8738 L 93.2738,-67.6073 L 93.5231,-67.3245 L 93.7541,-67.0267 L 93.966,-66.715
 L 94.1578,-66.3905 L 94.329,-66.0547 L 94.4787,-65.7087 L 94.6063,-65.3541 L 94.7115,-64.9921 L 94.7937,-64.6243
 L 94.8527,-64.252 L 94.8882,-63.8767 L 94.9,-63.5 L 94.8882,-63.1233 L 94.8527,-62.748 L 94.7937,-62.3757
 L 94.7115,-62.0079 L 94.6063,-61.6459 L 94.4787,-61.2913 L 94.329,-60.9453 L 94.1578,-60.6095 L 93.966,-60.285
 L 93.7541,-59.9733 L 93.5231,-59.6755 L 93.2738,-59.3927 L 93.0073,-59.1262 L 92.7245,-58.8769 L 92.4267,-58.6459
 L 92.115,-58.434 L 91.7905,-58.2422 L 91.4547,-58.071 L 91.1087,-57.9213 L 90.7541,-57.7937 L 90.3921,-57.6885
 L 90.0243,-57.6063 L 89.652,-57.5473 L 89.2767,-57.5118 L 88.9,-57.5 L 88.5233,-57.5118 L 88.148,-57.5473
 L 87.7757,-57.6063 L 87.4079,-57.6885 L 87.0459,-57.7937 L 86.6913,-57.9213 L 86.3453,-58.071 L 86.0095,-58.2422
 L 85.685,-58.434 L 85.3733,-58.6459 L 85.0755,-58.8769 L 84.7927,-59.1262 L 84.5262,-59.3927 L 84.2769,-59.6755
 L 84.0459,-59.9733 L 83.834,-60.285 L 83.6422,-60.6095 L 83.471,-60.9453 L 83.3213,-61.2913 L 83.1937,-61.6459
 L 83.0885,-62.0079 L 83.0063,-62.3757 L 82.9473,-62.748 L 82.9118,-63.1233 z
" stroke="black" fill="lightgray" stroke-width="0.5"/>
</svg>
