<?xml version="1.0" encoding="UTF-8" standalone="no"?>
<svg
   xmlns:dc="http://purl.org/dc/elements/1.1/"
   xmlns:cc="http://creativecommons.org/ns#"
   xmlns:rdf="http://www.w3.org/1999/02/22-rdf-syntax-ns#"
   xmlns:svg="http://www.w3.org/2000/svg"
   xmlns="http://www.w3.org/2000/svg"
   xmlns:sodipodi="http://sodipodi.sourceforge.net/DTD/sodipodi-0.dtd"
   xmlns:inkscape="http://www.inkscape.org/namespaces/inkscape"
   width="168.58008mm"
   height="132.33377mm"
   viewBox="0 -102 168.58008 132.33377"
   version="1.1"
   id="svg3798"
   sodipodi:docname="Mirror_mount_pad.svg"
   inkscape:version="0.92.4 (5da689c313, 2019-01-14)">
  <metadata
     id="metadata3804">
    <rdf:RDF>
      <cc:Work
         rdf:about="">
        <dc:format>image/svg+xml</dc:format>
        <dc:type
           rdf:resource="http://purl.org/dc/dcmitype/StillImage" />
        <dc:title>OpenSCAD Model</dc:title>
      </cc:Work>
    </rdf:RDF>
  </metadata>
  <defs
     id="defs3802">
    <marker
       inkscape:isstock="true"
       style="overflow:visible"
       id="marker5042"
       refX="0"
       refY="0"
       orient="auto"
       inkscape:stockid="Arrow1Mend">
      <path
         transform="matrix(-0.4,0,0,-0.4,-4,0)"
         style="fill:#000000;fill-opacity:1;fill-rule:evenodd;stroke:#000000;stroke-width:1.00000003pt;stroke-opacity:1"
         d="M 0,0 5,-5 -12.5,0 5,5 Z"
         id="path5040"
         inkscape:connector-curvature="0" />
    </marker>
    <marker
       inkscape:stockid="Arrow1Mend"
       orient="auto"
       refY="0"
       refX="0"
       id="marker4993"
       style="overflow:visible"
       inkscape:isstock="true"
       inkscape:collect="always">
      <path
         id="path4991"
         d="M 0,0 5,-5 -12.5,0 5,5 Z"
         style="fill:#000000;fill-opacity:1;fill-rule:evenodd;stroke:#000000;stroke-width:1.00000003pt;stroke-opacity:1"
         transform="matrix(-0.4,0,0,-0.4,-4,0)"
         inkscape:connector-curvature="0" />
    </marker>
    <marker
       inkscape:stockid="Arrow1Mend"
       orient="auto"
       refY="0"
       refX="0"
       id="Arrow1Mend"
       style="overflow:visible"
       inkscape:isstock="true">
      <path
         id="path4668"
         d="M 0,0 5,-5 -12.5,0 5,5 Z"
         style="fill:#000000;fill-opacity:1;fill-rule:evenodd;stroke:#000000;stroke-width:1.00000003pt;stroke-opacity:1"
         transform="matrix(-0.4,0,0,-0.4,-4,0)"
         inkscape:connector-curvature="0" />
    </marker>
    <marker
       inkscape:stockid="Arrow1Lend"
       orient="auto"
       refY="0"
       refX="0"
       id="Arrow1Lend"
       style="overflow:visible"
       inkscape:isstock="true">
      <path
         id="path4662"
         d="M 0,0 5,-5 -12.5,0 5,5 Z"
         style="fill:#000000;fill-opacity:1;fill-rule:evenodd;stroke:#000000;stroke-width:1.00000003pt;stroke-opacity:1"
         transform="matrix(-0.8,0,0,-0.8,-10,0)"
         inkscape:connector-curvature="0" />
    </marker>
  </defs>
  <sodipodi:namedview
     pagecolor="#ffffff"
     bordercolor="#666666"
     borderopacity="1"
     objecttolerance="10"
     gridtolerance="10"
     guidetolerance="10"
     inkscape:pageopacity="0"
     inkscape:pageshadow="2"
     inkscape:window-width="1920"
     inkscape:window-height="743"
     id="namedview3800"
     showgrid="false"
     fit-margin-top="10"
     fit-margin-left="10"
     fit-margin-right="10"
     fit-margin-bottom="10"
     inkscape:zoom="3.3565768"
     inkscape:cx="477.80378"
     inkscape:cy="144.41251"
     inkscape:window-x="0"
     inkscape:window-y="337"
     inkscape:window-maximized="0"
     inkscape:current-layer="svg3798" />
  <title
     id="title3794">OpenSCAD Model</title>
  <path
     d="m 73.815931,-91.75 h -50.8 V 9.85 h 50.8 z m -28.4451,11.8644 -0.1303,-0.0124 -0.1292,-0.0204 -0.1277,-0.0286 -0.1257,-0.0365 -0.1231,-0.0443 -0.1201,-0.0519 -0.1165,-0.0595 -0.1127,-0.0666 -0.1082,-0.0735 -0.1034,-0.0802 -0.0981,-0.0865 -0.0925,-0.0925 -0.0866,-0.0982 -0.0802,-0.1034 -0.0735,-0.1082 -0.0666,-0.1126 -0.0594,-0.1166 -0.052,-0.1201 -0.0443,-0.1231 -0.0365,-0.1257 -0.0285,-0.1277 -0.0205,-0.1292 -0.0123,-0.1302 -0.0041,-0.1308 0.0041,-0.1308 0.0123,-0.1303 0.0205,-0.1292 0.0285,-0.1277 0.0365,-0.1256 0.0443,-0.1232 0.052,-0.12 0.0594,-0.1166 0.0666,-0.1126 0.0735,-0.1083 0.0802,-0.1034 0.0866,-0.0981 0.0925,-0.0925 0.0981,-0.0866 0.1034,-0.0801 0.1082,-0.0736 0.1127,-0.0666 0.1165,-0.0594 0.1201,-0.052 0.1231,-0.0443 0.1257,-0.0365 0.1277,-0.0285 0.1292,-0.0205 0.1303,-0.0123 0.1308,-0.0041 0.1307,0.0041 0.1303,0.0123 0.1292,0.0205 0.1277,0.0285 0.1257,0.0365 0.1231,0.0443 0.1201,0.052 0.1166,0.0594 0.1126,0.0666 0.1082,0.0736 0.1034,0.0801 0.0981,0.0866 0.0926,0.0925 0.0865,0.0981 0.0802,0.1034 0.0735,0.1083 0.0666,0.1126 0.0594,0.1166 0.052,0.12 0.0443,0.1232 0.0365,0.1256 0.0286,0.1277 0.0204,0.1292 0.0123,0.1303 0.0042,0.1308 -0.0042,0.1308 -0.0123,0.1302 -0.0204,0.1292 -0.0286,0.1277 -0.0365,0.1257 -0.0443,0.1231 -0.052,0.1201 -0.0594,0.1166 -0.0666,0.1126 -0.0735,0.1082 -0.0802,0.1034 -0.0865,0.0982 -0.0926,0.0925 -0.0981,0.0865 -0.1034,0.0802 -0.1082,0.0735 -0.1126,0.0666 -0.1166,0.0595 -0.1201,0.0519 -0.1231,0.0443 -0.1257,0.0365 -0.1277,0.0286 -0.1292,0.0204 -0.1303,0.0124 -0.1307,0.0041 z m 4.3006,4.3006 -0.1303,-0.0123 -0.1292,-0.0205 -0.1277,-0.0285 -0.1256,-0.0365 -0.1231,-0.0444 -0.1201,-0.0519 -0.1166,-0.0594 -0.1126,-0.0666 -0.1083,-0.0736 -0.1033,-0.0802 -0.0982,-0.0865 -0.0925,-0.0925 -0.0865,-0.0982 -0.0802,-0.1034 -0.0736,-0.1082 -0.0666,-0.1126 -0.0594,-0.1166 -0.052,-0.1201 -0.0443,-0.1231 -0.0365,-0.1256 -0.0285,-0.1277 -0.0205,-0.1293 -0.0123,-0.1302 -0.0041,-0.1308 0.0041,-0.1308 0.0123,-0.1302 0.0205,-0.1293 0.0285,-0.1277 0.0365,-0.1256 0.0443,-0.1231 0.052,-0.1201 0.0594,-0.1166 0.0666,-0.1126 0.0736,-0.1082 0.0802,-0.1034 0.0865,-0.0982 0.0925,-0.0925 0.0982,-0.0865 0.1033,-0.0802 0.1083,-0.0736 0.1126,-0.0666 0.1166,-0.0594 0.1201,-0.0519 0.1231,-0.0444 0.1256,-0.0365 0.1277,-0.0285 0.1292,-0.0205 0.1303,-0.0123 0.1308,-0.0041 0.1308,0.0041 0.1302,0.0123 0.1293,0.0205 0.1277,0.0285 0.1256,0.0365 0.1231,0.0444 0.1201,0.0519 0.1166,0.0594 0.1126,0.0666 0.1082,0.0736 0.1034,0.0802 0.0982,0.0865 0.0925,0.0925 0.0865,0.0982 0.0802,0.1034 0.0735,0.1082 0.0667,0.1126 0.0594,0.1166 0.0519,0.1201 0.0444,0.1231 0.0364,0.1256 0.0286,0.1277 0.0205,0.1293 0.0123,0.1302 0.0041,0.1308 -0.0041,0.1308 -0.0123,0.1302 -0.0205,0.1293 -0.0286,0.1277 -0.0364,0.1256 -0.0444,0.1231 -0.0519,0.1201 -0.0594,0.1166 -0.0667,0.1126 -0.0735,0.1082 -0.0802,0.1034 -0.0865,0.0982 -0.0925,0.0925 -0.0982,0.0865 -0.1034,0.0802 -0.1082,0.0736 -0.1126,0.0666 -0.1166,0.0594 -0.1201,0.0519 -0.1231,0.0444 -0.1256,0.0365 -0.1277,0.0285 -0.1293,0.0205 -0.1302,0.0123 -0.1308,0.0041 z m -14.1604,12.4925 -0.2042,-0.0193 -0.2025,-0.0321 -0.2001,-0.0447 -0.1969,-0.0572 -0.1929,-0.0695 -0.1882,-0.0814 -0.1827,-0.0931 -0.1765,-0.1044 -0.1696,-0.1152 -0.162,-0.1257 -0.1538,-0.1356 -0.145,-0.145 -0.1356,-0.1538 -0.1257,-0.162 -0.1152,-0.1696 -0.10439,-0.1765 -0.09308,-0.1827 -0.08143,-0.1882 -0.06946,-0.1929 -0.0572,-0.1969 -0.04473,-0.2001 -0.03209,-0.2025 -0.01928,-0.2042 -0.0064,-0.2049 0.0064,-0.2049 0.01928,-0.2042 0.03209,-0.2025 0.04473,-0.2001 0.0572,-0.1969 0.06946,-0.1929 0.08143,-0.1882 0.09308,-0.1827 0.10439,-0.1765 0.1152,-0.1696 0.1257,-0.162 0.1356,-0.1538 0.145,-0.145 0.1538,-0.1356 0.162,-0.1256 0.1696,-0.1153 0.1765,-0.1044 0.1827,-0.0931 0.1882,-0.0814 0.1929,-0.0695 0.1969,-0.0572 0.2001,-0.0447 0.2025,-0.0321 0.2042,-0.0193 0.2049,-0.0064 0.2049,0.0064 0.2042,0.0193 0.2025,0.0321 0.2001,0.0447 0.1969,0.0572 0.1929,0.0695 0.1882,0.0814 0.1827,0.0931 0.1765,0.1044 0.1696,0.1153 0.162,0.1256 0.1538,0.1356 0.145,0.145 0.1356,0.1538 0.1256,0.162 0.1153,0.1696 0.1044,0.1765 0.0931,0.1827 0.0814,0.1882 0.0694,0.1929 0.0572,0.1969 0.0448,0.2001 0.0321,0.2025 0.0193,0.2042 0.0064,0.2049 -0.0064,0.2049 -0.0193,0.2042 -0.0321,0.2025 -0.0448,0.2001 -0.0572,0.1969 -0.0694,0.1929 -0.0814,0.1882 -0.0931,0.1827 -0.1044,0.1765 -0.1153,0.1696 -0.1256,0.162 -0.1356,0.1538 -0.145,0.145 -0.1538,0.1356 -0.162,0.1257 -0.1696,0.1152 -0.1765,0.1044 -0.1827,0.0931 -0.1882,0.0814 -0.1929,0.0695 -0.1969,0.0572 -0.2001,0.0447 -0.2025,0.0321 -0.2042,0.0193 -0.2049,0.0064 z m 25.4,0 -0.2042,-0.0193 -0.2025,-0.0321 -0.2001,-0.0447 -0.1969,-0.0572 -0.1929,-0.0695 -0.1882,-0.0814 -0.1827,-0.0931 -0.1765,-0.1044 -0.1696,-0.1152 -0.162,-0.1257 -0.1538,-0.1356 -0.145,-0.145 -0.1356,-0.1538 -0.1257,-0.162 -0.1152,-0.1696 -0.1044,-0.1765 -0.0931,-0.1827 -0.0814,-0.1882 -0.0695,-0.1929 -0.0572,-0.1969 -0.0447,-0.2001 -0.0321,-0.2025 -0.0193,-0.2042 -0.0064,-0.2049 0.0064,-0.2049 0.0193,-0.2042 0.0321,-0.2025 0.0447,-0.2001 0.0572,-0.1969 0.0695,-0.1929 0.0814,-0.1882 0.0931,-0.1827 0.1044,-0.1765 0.1152,-0.1696 0.1257,-0.162 0.1356,-0.1538 0.145,-0.145 0.1538,-0.1356 0.162,-0.1256 0.1696,-0.1153 0.1765,-0.1044 0.1827,-0.0931 0.1882,-0.0814 0.1929,-0.0695 0.1969,-0.0572 0.2001,-0.0447 0.2025,-0.0321 0.2042,-0.0193 0.2049,-0.0064 0.2049,0.0064 0.2042,0.0193 0.2025,0.0321 0.2001,0.0447 0.1969,0.0572 0.1929,0.0695 0.1882,0.0814 0.1827,0.0931 0.1765,0.1044 0.1696,0.1153 0.162,0.1256 0.1538,0.1356 0.145,0.145 0.1356,0.1538 0.1256,0.162 0.1153,0.1696 0.1044,0.1765 0.0931,0.1827 0.0814,0.1882 0.0694,0.1929 0.0573,0.1969 0.0447,0.2001 0.0321,0.2025 0.0193,0.2042 0.0064,0.2049 -0.0064,0.2049 -0.0193,0.2042 -0.0321,0.2025 -0.0447,0.2001 -0.0573,0.1969 -0.0694,0.1929 -0.0814,0.1882 -0.0931,0.1827 -0.1044,0.1765 -0.1153,0.1696 -0.1256,0.162 -0.1356,0.1538 -0.145,0.145 -0.1538,0.1356 -0.162,0.1257 -0.1696,0.1152 -0.1765,0.1044 -0.1827,0.0931 -0.1882,0.0814 -0.1929,0.0695 -0.1969,0.0572 -0.2001,0.0447 -0.2025,0.0321 -0.2042,0.0193 -0.2049,0.0064 z m -12.7,12.7 -0.2042,-0.0193 -0.2025,-0.0321 -0.2001,-0.0447 -0.1969,-0.0572 -0.1929,-0.0695 -0.1882,-0.0814 -0.1827,-0.0931 -0.1765,-0.1044 -0.1696,-0.1153 -0.162,-0.1256 -0.1538,-0.1356 -0.145,-0.145 -0.1356,-0.1538 -0.1257,-0.162 -0.1152,-0.1696 -0.1044,-0.1765 -0.0931,-0.1827 -0.0814,-0.1882 -0.0695,-0.1929 -0.0572,-0.1969 -0.0447,-0.2001 -0.0321,-0.2025 -0.0193,-0.2042 -0.0064,-0.2049 0.0064,-0.2049 0.0193,-0.2042 0.0321,-0.2025 0.0447,-0.2001 0.0572,-0.1969 0.0695,-0.1929 0.0814,-0.1882 0.0931,-0.1827 0.1044,-0.1765 0.1152,-0.1696 0.1257,-0.162 0.1356,-0.1538 0.145,-0.145 0.1538,-0.1356 0.162,-0.1256 0.1696,-0.1153 0.1765,-0.1044 0.1827,-0.0931 0.1882,-0.0814 0.1929,-0.0695 0.1969,-0.0572 0.2001,-0.0447 0.2025,-0.0321 0.2042,-0.0193 0.2049,-0.0064 0.2049,0.0064 0.2042,0.0193 0.2025,0.0321 0.2001,0.0447 0.1969,0.0572 0.1929,0.0695 0.1882,0.0814 0.1827,0.0931 0.1765,0.1044 0.1696,0.1153 0.162,0.1256 0.1538,0.1356 0.145,0.145 0.1356,0.1538 0.1256,0.162 0.1153,0.1696 0.1044,0.1765 0.0931,0.1827 0.0814,0.1882 0.0695,0.1929 0.0572,0.1969 0.0447,0.2001 0.0321,0.2025 0.0193,0.2042 0.0064,0.2049 -0.0064,0.2049 -0.0193,0.2042 -0.0321,0.2025 -0.0447,0.2001 -0.0572,0.1969 -0.0695,0.1929 -0.0814,0.1882 -0.0931,0.1827 -0.1044,0.1765 -0.1153,0.1696 -0.1256,0.162 -0.1356,0.1538 -0.145,0.145 -0.1538,0.1356 -0.162,0.1256 -0.1696,0.1153 -0.1765,0.1044 -0.1827,0.0931 -0.1882,0.0814 -0.1929,0.0695 -0.1969,0.0572 -0.2001,0.0447 -0.2025,0.0321 -0.2042,0.0193 -0.2049,0.0064 z m -12.7,12.7 -0.2042,-0.0193 -0.2025,-0.0321 -0.2001,-0.0447 -0.1969,-0.0572 -0.1929,-0.0695 -0.1882,-0.0814 -0.1827,-0.0931 -0.1765,-0.1044 -0.1696,-0.1152 -0.162,-0.1257 -0.1538,-0.1356 -0.145,-0.145 -0.1356,-0.1538 -0.1257,-0.162 -0.1152,-0.1696 -0.10439,-0.1765 -0.09308,-0.1827 -0.08143,-0.1882 -0.06946,-0.1929 -0.0572,-0.1969 -0.04473,-0.2001 -0.03209,-0.2025 -0.01928,-0.2041 -0.0064,-0.205 0.0064,-0.2049 0.01928,-0.2042 0.03209,-0.2025 0.04473,-0.2001 0.0572,-0.1969 0.06946,-0.1929 0.08143,-0.1882 0.09308,-0.1827 0.10439,-0.1765 0.1152,-0.1696 0.1257,-0.162 0.1356,-0.1538 0.145,-0.145 0.1538,-0.1356 0.162,-0.1256 0.1696,-0.1153 0.1765,-0.1044 0.1827,-0.0931 0.1882,-0.0814 0.1929,-0.0694 0.1969,-0.0572 0.2001,-0.0448 0.2025,-0.0321 0.2042,-0.0192 0.2049,-0.0065 0.2049,0.0065 0.2042,0.0192 0.2025,0.0321 0.2001,0.0448 0.1969,0.0572 0.1929,0.0694 0.1882,0.0814 0.1827,0.0931 0.1765,0.1044 0.1696,0.1153 0.162,0.1256 0.1538,0.1356 0.145,0.145 0.1356,0.1538 0.1256,0.162 0.1153,0.1696 0.1044,0.1765 0.0931,0.1827 0.0814,0.1882 0.0694,0.1929 0.0572,0.1969 0.0448,0.2001 0.0321,0.2025 0.0193,0.2042 0.0064,0.2049 -0.0064,0.205 -0.0193,0.2041 -0.0321,0.2025 -0.0448,0.2001 -0.0572,0.1969 -0.0694,0.1929 -0.0814,0.1882 -0.0931,0.1827 -0.1044,0.1765 -0.1153,0.1696 -0.1256,0.162 -0.1356,0.1538 -0.145,0.145 -0.1538,0.1356 -0.162,0.1257 -0.1696,0.1152 -0.1765,0.1044 -0.1827,0.0931 -0.1882,0.0814 -0.1929,0.0695 -0.1969,0.0572 -0.2001,0.0447 -0.2025,0.0321 -0.2042,0.0193 -0.2049,0.0064 z m 25.4,0 -0.2042,-0.0193 -0.2025,-0.0321 -0.2001,-0.0447 -0.1969,-0.0572 -0.1929,-0.0695 -0.1882,-0.0814 -0.1827,-0.0931 -0.1765,-0.1044 -0.1696,-0.1152 -0.162,-0.1257 -0.1538,-0.1356 -0.145,-0.145 -0.1356,-0.1538 -0.1257,-0.162 -0.1152,-0.1696 -0.1044,-0.1765 -0.0931,-0.1827 -0.0814,-0.1882 -0.0695,-0.1929 -0.0572,-0.1969 -0.0447,-0.2001 -0.0321,-0.2025 -0.0193,-0.2041 -0.0064,-0.205 0.0064,-0.2049 0.0193,-0.2042 0.0321,-0.2025 0.0447,-0.2001 0.0572,-0.1969 0.0695,-0.1929 0.0814,-0.1882 0.0931,-0.1827 0.1044,-0.1765 0.1152,-0.1696 0.1257,-0.162 0.1356,-0.1538 0.145,-0.145 0.1538,-0.1356 0.162,-0.1256 0.1696,-0.1153 0.1765,-0.1044 0.1827,-0.0931 0.1882,-0.0814 0.1929,-0.0694 0.1969,-0.0572 0.2001,-0.0448 0.2025,-0.0321 0.2042,-0.0192 0.2049,-0.0065 0.2049,0.0065 0.2042,0.0192 0.2025,0.0321 0.2001,0.0448 0.1969,0.0572 0.1929,0.0694 0.1882,0.0814 0.1827,0.0931 0.1765,0.1044 0.1696,0.1153 0.162,0.1256 0.1538,0.1356 0.145,0.145 0.1356,0.1538 0.1256,0.162 0.1153,0.1696 0.1044,0.1765 0.0931,0.1827 0.0814,0.1882 0.0694,0.1929 0.0573,0.1969 0.0447,0.2001 0.0321,0.2025 0.0193,0.2042 0.0064,0.2049 -0.0064,0.205 -0.0193,0.2041 -0.0321,0.2025 -0.0447,0.2001 -0.0573,0.1969 -0.0694,0.1929 -0.0814,0.1882 -0.0931,0.1827 -0.1044,0.1765 -0.1153,0.1696 -0.1256,0.162 -0.1356,0.1538 -0.145,0.145 -0.1538,0.1356 -0.162,0.1257 -0.1696,0.1152 -0.1765,0.1044 -0.1827,0.0931 -0.1882,0.0814 -0.1929,0.0695 -0.1969,0.0572 -0.2001,0.0447 -0.2025,0.0321 -0.2042,0.0193 -0.2049,0.0064 z m -12.7,12.7 -0.2042,-0.0193 -0.2025,-0.0321 -0.2001,-0.0447 -0.1969,-0.0572 -0.1929,-0.0695 -0.1882,-0.0814 -0.1827,-0.0931 -0.1765,-0.1044 -0.1696,-0.1152 -0.162,-0.1257 -0.1538,-0.1356 -0.145,-0.145 -0.1356,-0.1538 -0.1257,-0.162 -0.1152,-0.1696 -0.1044,-0.1765 -0.0931,-0.1827 -0.0814,-0.1882 -0.0695,-0.1929 -0.0572,-0.1969 -0.0447,-0.2001 -0.0321,-0.2025 -0.0193,-0.2042 -0.0064,-0.2049 0.0064,-0.2049 0.0193,-0.2042 0.0321,-0.2025 0.0447,-0.2001 0.0572,-0.1969 0.0695,-0.1929 0.0814,-0.1882 0.0931,-0.1827 0.1044,-0.1765 0.1152,-0.1696 0.1257,-0.162 0.1356,-0.1538 0.145,-0.145 0.1538,-0.1356 0.162,-0.1256 0.1696,-0.1153 0.1765,-0.1044 0.1827,-0.0931 0.1882,-0.0814 0.1929,-0.0694 0.1969,-0.0573 0.2001,-0.0447 0.2025,-0.0321 0.2042,-0.0193 0.2049,-0.0064 0.2049,0.0064 0.2042,0.0193 0.2025,0.0321 0.2001,0.0447 0.1969,0.0573 0.1929,0.0694 0.1882,0.0814 0.1827,0.0931 0.1765,0.1044 0.1696,0.1153 0.162,0.1256 0.1538,0.1356 0.145,0.145 0.1356,0.1538 0.1256,0.162 0.1153,0.1696 0.1044,0.1765 0.0931,0.1827 0.0814,0.1882 0.0695,0.1929 0.0572,0.1969 0.0447,0.2001 0.0321,0.2025 0.0193,0.2042 0.0064,0.2049 -0.0064,0.2049 -0.0193,0.2042 -0.0321,0.2025 -0.0447,0.2001 -0.0572,0.1969 -0.0695,0.1929 -0.0814,0.1882 -0.0931,0.1827 -0.1044,0.1765 -0.1153,0.1696 -0.1256,0.162 -0.1356,0.1538 -0.145,0.145 -0.1538,0.1356 -0.162,0.1257 -0.1696,0.1152 -0.1765,0.1044 -0.1827,0.0931 -0.1882,0.0814 -0.1929,0.0695 -0.1969,0.0572 -0.2001,0.0447 -0.2025,0.0321 -0.2042,0.0193 -0.2049,0.0064 z m -12.7,12.7 -0.2042,-0.0193 -0.2025,-0.0321 -0.2001,-0.0447 -0.1969,-0.0572 -0.1929,-0.0695 -0.1882,-0.0814 -0.1827,-0.0931 -0.1765,-0.1044 -0.1696,-0.1152 -0.162,-0.1257 -0.1538,-0.1356 -0.145,-0.145 -0.1356,-0.1538 -0.1257,-0.162 -0.1152,-0.1696 -0.10439,-0.1765 -0.09308,-0.1827 -0.08143,-0.1882 -0.06946,-0.1929 -0.0572,-0.1969 -0.04473,-0.2001 -0.03209,-0.2025 -0.01928,-0.2042 -0.0064,-0.2049 0.0064,-0.2049 0.01928,-0.2042 0.03209,-0.2025 0.04473,-0.2001 0.0572,-0.1969 0.06946,-0.1929 0.08143,-0.1882 0.09308,-0.1827 0.10439,-0.1765 0.1152,-0.1696 0.1257,-0.162 0.1356,-0.1538 0.145,-0.145 0.1538,-0.1356 0.162,-0.1256 0.1696,-0.1153 0.1765,-0.1044 0.1827,-0.0931 0.1882,-0.0814 0.1929,-0.0695 0.1969,-0.0572 0.2001,-0.0447 0.2025,-0.0321 0.2042,-0.0193 0.2049,-0.0064 0.2049,0.0064 0.2042,0.0193 0.2025,0.0321 0.2001,0.0447 0.1969,0.0572 0.1929,0.0695 0.1882,0.0814 0.1827,0.0931 0.1765,0.1044 0.1696,0.1153 0.162,0.1256 0.1538,0.1356 0.145,0.145 0.1356,0.1538 0.1256,0.162 0.1153,0.1696 0.1044,0.1765 0.0931,0.1827 0.0814,0.1882 0.0694,0.1929 0.0572,0.1969 0.0448,0.2001 0.0321,0.2025 0.0193,0.2042 0.0064,0.2049 -0.0064,0.2049 -0.0193,0.2042 -0.0321,0.2025 -0.0448,0.2001 -0.0572,0.1969 -0.0694,0.1929 -0.0814,0.1882 -0.0931,0.1827 -0.1044,0.1765 -0.1153,0.1696 -0.1256,0.162 -0.1356,0.1538 -0.145,0.145 -0.1538,0.1356 -0.162,0.1257 -0.1696,0.1152 -0.1765,0.1044 -0.1827,0.0931 -0.1882,0.0814 -0.1929,0.0695 -0.1969,0.0572 -0.2001,0.0447 -0.2025,0.0321 -0.2042,0.0193 -0.2049,0.0064 z m 25.4,0 -0.2042,-0.0193 -0.2025,-0.0321 -0.2001,-0.0447 -0.1969,-0.0572 -0.1929,-0.0695 -0.1882,-0.0814 -0.1827,-0.0931 -0.1765,-0.1044 -0.1696,-0.1152 -0.162,-0.1257 -0.1538,-0.1356 -0.145,-0.145 -0.1356,-0.1538 -0.1257,-0.162 -0.1152,-0.1696 -0.1044,-0.1765 -0.0931,-0.1827 -0.0814,-0.1882 -0.0695,-0.1929 -0.0572,-0.1969 -0.0447,-0.2001 -0.0321,-0.2025 -0.0193,-0.2042 -0.0064,-0.2049 0.0064,-0.2049 0.0193,-0.2042 0.0321,-0.2025 0.0447,-0.2001 0.0572,-0.1969 0.0695,-0.1929 0.0814,-0.1882 0.0931,-0.1827 0.1044,-0.1765 0.1152,-0.1696 0.1257,-0.162 0.1356,-0.1538 0.145,-0.145 0.1538,-0.1356 0.162,-0.1256 0.1696,-0.1153 0.1765,-0.1044 0.1827,-0.0931 0.1882,-0.0814 0.1929,-0.0695 0.1969,-0.0572 0.2001,-0.0447 0.2025,-0.0321 0.2042,-0.0193 0.2049,-0.0064 0.2049,0.0064 0.2042,0.0193 0.2025,0.0321 0.2001,0.0447 0.1969,0.0572 0.1929,0.0695 0.1882,0.0814 0.1827,0.0931 0.1765,0.1044 0.1696,0.1153 0.162,0.1256 0.1538,0.1356 0.145,0.145 0.1356,0.1538 0.1256,0.162 0.1153,0.1696 0.1044,0.1765 0.0931,0.1827 0.0814,0.1882 0.0694,0.1929 0.0573,0.1969 0.0447,0.2001 0.0321,0.2025 0.0193,0.2042 0.0064,0.2049 -0.0064,0.2049 -0.0193,0.2042 -0.0321,0.2025 -0.0447,0.2001 -0.0573,0.1969 -0.0694,0.1929 -0.0814,0.1882 -0.0931,0.1827 -0.1044,0.1765 -0.1153,0.1696 -0.1256,0.162 -0.1356,0.1538 -0.145,0.145 -0.1538,0.1356 -0.162,0.1257 -0.1696,0.1152 -0.1765,0.1044 -0.1827,0.0931 -0.1882,0.0814 -0.1929,0.0695 -0.1969,0.0572 -0.2001,0.0447 -0.2025,0.0321 -0.2042,0.0193 -0.2049,0.0064 z m -11.2396,10.1349 -0.1303,-0.0123 -0.1292,-0.0205 -0.1277,-0.0285 -0.1256,-0.0365 -0.1231,-0.0443 -0.1201,-0.052 -0.1166,-0.0594 -0.1126,-0.0666 -0.1083,-0.0736 -0.1033,-0.0802 -0.0982,-0.0865 -0.0925,-0.0925 -0.0865,-0.0982 -0.0802,-0.1033 -0.0736,-0.1083 -0.0666,-0.1126 -0.0594,-0.1166 -0.052,-0.12 -0.0443,-0.1232 -0.0365,-0.1256 -0.0285,-0.1277 -0.0205,-0.1292 -0.0123,-0.1303 -0.0041,-0.1308 0.0041,-0.1308 0.0123,-0.1302 0.0205,-0.1293 0.0285,-0.1276 0.0365,-0.1257 0.0443,-0.1231 0.052,-0.1201 0.0594,-0.1166 0.0666,-0.1126 0.0736,-0.1082 0.0802,-0.1034 0.0865,-0.0982 0.0925,-0.0925 0.0982,-0.0865 0.1033,-0.0802 0.1083,-0.0735 0.1126,-0.0667 0.1166,-0.0594 0.1201,-0.0519 0.1231,-0.0443 0.1256,-0.0366 0.1277,-0.0285 0.1292,-0.0205 0.1303,-0.0123 0.1308,-0.0041 0.1308,0.0041 0.1302,0.0123 0.1293,0.0205 0.1277,0.0285 0.1256,0.0366 0.1231,0.0443 0.1201,0.0519 0.1166,0.0594 0.1126,0.0667 0.1082,0.0735 0.1034,0.0802 0.0982,0.0865 0.0925,0.0925 0.0865,0.0982 0.0802,0.1034 0.0735,0.1082 0.0667,0.1126 0.0594,0.1166 0.0519,0.1201 0.0444,0.1231 0.0364,0.1257 0.0286,0.1276 0.0205,0.1293 0.0123,0.1302 0.0041,0.1308 -0.0041,0.1308 -0.0123,0.1303 -0.0205,0.1292 -0.0286,0.1277 -0.0364,0.1256 -0.0444,0.1232 -0.0519,0.12 -0.0594,0.1166 -0.0667,0.1126 -0.0735,0.1083 -0.0802,0.1033 -0.0865,0.0982 -0.0925,0.0925 -0.0982,0.0865 -0.1034,0.0802 -0.1082,0.0736 -0.1126,0.0666 -0.1166,0.0594 -0.1201,0.052 -0.1231,0.0443 -0.1256,0.0365 -0.1277,0.0285 -0.1293,0.0205 -0.1302,0.0123 -0.1308,0.0041 z m -4.3006,4.30063 -0.1303,-0.01231 -0.1292,-0.02047 -0.1277,-0.02855 -0.1257,-0.03649 -0.1231,-0.04433 -0.1201,-0.05197 -0.1165,-0.0594 -0.1127,-0.06661 -0.1082,-0.07355 -0.1034,-0.08018 -0.0981,-0.08653 -0.0925,-0.09252 -0.0866,-0.09816 -0.0802,-0.10338 -0.0735,-0.10823 -0.0666,-0.11261 -0.0594,-0.11658997 -0.052,-0.12009 -0.0443,-0.1231 -0.0365,-0.12564 -0.0285,-0.12771 -0.0205,-0.12922 -0.0123,-0.13027 -0.0041,-0.13078 0.0041,-0.13078 0.0123,-0.13026 0.0205,-0.1292 0.0285,-0.1277 0.0365,-0.1257 0.0443,-0.1231 0.052,-0.1201 0.0594,-0.1166 0.0666,-0.11260003 0.0735,-0.1082 0.0802,-0.1034 0.0866,-0.0981 0.0925,-0.0926 0.0981,-0.0865 0.1034,-0.0802 0.1082,-0.0735 0.1127,-0.0666 0.1165,-0.0594 0.1201,-0.052 0.1231,-0.0443 0.1257,-0.0365 0.1277,-0.0286 0.1292,-0.0204 0.1303,-0.0123 0.1308,-0.0042 0.1307,0.0042 0.1303,0.0123 0.1292,0.0204 0.1277,0.0286 0.1257,0.0365 0.1231,0.0443 0.1201,0.052 0.1166,0.0594 0.1126,0.0666 0.1082,0.0735 0.1034,0.0802 0.0981,0.0865 0.0926,0.0926 0.0865,0.0981 0.0802,0.1034 0.0735,0.1082 0.0666,0.11260003 0.0594,0.1166 0.052,0.1201 0.0443,0.1231 0.0365,0.1257 0.0286,0.1277 0.0204,0.1292 0.0123,0.13026 0.0042,0.13078 -0.0042,0.13078 -0.0123,0.13027 -0.0204,0.12922 -0.0286,0.12771 -0.0365,0.12564 -0.0443,0.1231 -0.052,0.12009 -0.0594,0.11658997 -0.0666,0.11261 -0.0735,0.10823 -0.0802,0.10338 -0.0865,0.09816 -0.0926,0.09252 -0.0981,0.08653 -0.1034,0.08018 -0.1082,0.07355 -0.1126,0.06661 -0.1166,0.0594 -0.1201,0.05197 -0.1231,0.04433 -0.1257,0.03649 -0.1277,0.02855 -0.1292,0.02047 -0.1303,0.01231 -0.1307,0.0041 z"
     id="path3796"
     inkscape:connector-curvature="0"
     style="fill:#d3d3d3;stroke:#000000;stroke-width:0.5" />
  <text
     xml:space="preserve"
     style="font-style:normal;font-weight:normal;font-size:10.58333302px;line-height:1.25;font-family:sans-serif;letter-spacing:0px;word-spacing:0px;fill:#000000;fill-opacity:1;stroke:none;stroke-width:0.26458332"
     x="76.502403"
     y="-69.440147"
     id="text3808"><tspan
       sodipodi:role="line"
       x="76.502403"
       y="-69.440147"
       style="font-size:3.52777767px;stroke-width:0.26458332"
       id="tspan3810">1/4-20 through hole  X8 </tspan><tspan
       sodipodi:role="line"
       x="76.502403"
       y="-56.210983"
       style="font-size:3.52777767px;stroke-width:0.26458332"
       id="tspan3814">counterbore for button head</tspan><tspan
       sodipodi:role="line"
       x="76.502403"
       y="-42.981815"
       style="font-size:3.52777767px;stroke-width:0.26458332"
       id="tspan3824">inch grid, with centers, starting at x=.5&quot;, y=1&quot;</tspan></text>
  <text
     xml:space="preserve"
     style="font-style:normal;font-weight:normal;font-size:3.52777767px;line-height:1.25;font-family:sans-serif;letter-spacing:0px;word-spacing:0px;fill:#000000;fill-opacity:1;stroke:none;stroke-width:0.26458332"
     x="77.556503"
     y="-23.95504"
     id="text3818"><tspan
       sodipodi:role="line"
       id="tspan3816"
       x="77.556503"
       y="-23.95504"
       style="stroke-width:0.26458332">8-32 threaded X4</tspan><tspan
       sodipodi:role="line"
       x="77.556503"
       y="-19.545319"
       style="stroke-width:0.26458332"
       id="tspan3826">x, [y1, y2]</tspan><tspan
       sodipodi:role="line"
       x="77.556503"
       y="-15.135595"
       style="stroke-width:0.26458332"
       id="tspan3834">22.4857, [9.78567, 91.8143]</tspan><tspan
       sodipodi:role="line"
       x="77.556503"
       y="-10.725874"
       style="stroke-width:0.26458332"
       id="tspan3828">(0.885263, [0.385263, 3.61474] inch)</tspan><tspan
       sodipodi:role="line"
       x="77.556503"
       y="-6.3161507"
       style="stroke-width:0.26458332"
       id="tspan3836" /><tspan
       sodipodi:role="line"
       x="77.556503"
       y="-1.9064293"
       style="stroke-width:0.26458332"
       id="tspan3830">26.7863, [14.0863, 87.5137] mm</tspan><tspan
       sodipodi:role="line"
       x="77.556503"
       y="2.5032926"
       style="stroke-width:0.26458332"
       id="tspan3832">(1.05458, [0.554578, 3.44542] inch)</tspan><tspan
       sodipodi:role="line"
       x="77.556503"
       y="6.9130149"
       style="stroke-width:0.26458332"
       id="tspan3820" /><tspan
       sodipodi:role="line"
       x="77.556503"
       y="11.322737"
       style="stroke-width:0.26458332"
       id="tspan3822" /></text>
  <text
     xml:space="preserve"
     style="font-style:normal;font-weight:normal;font-size:3.52777767px;line-height:1.25;font-family:sans-serif;letter-spacing:0px;word-spacing:0px;fill:#000000;fill-opacity:1;stroke:none;stroke-width:0.26458332"
     x="136.72133"
     y="19.882826"
     id="text3844"><tspan
       sodipodi:role="line"
       id="tspan3842"
       x="136.72133"
       y="23.004084"
       style="stroke-width:0.26458332" /></text>
  <text
     xml:space="preserve"
     style="font-style:normal;font-weight:normal;font-size:3.52777767px;line-height:1.25;font-family:sans-serif;letter-spacing:0px;word-spacing:0px;fill:#000000;fill-opacity:1;stroke:none;stroke-width:0.26458332"
     x="9.8053522"
     y="12.525416"
     id="text3848"><tspan
       sodipodi:role="line"
       id="tspan3846"
       x="9.8053522"
       y="12.525416"
       style="stroke-width:0.26458332">origin</tspan></text>
  <path
     style="fill:none;stroke:#000000;stroke-width:0.26458332px;stroke-linecap:butt;stroke-linejoin:miter;stroke-opacity:1;marker-end:url(#marker4993)"
     d="M 17.831616,7.1745768 18.054567,-11.107465"
     id="path3850"
     inkscape:connector-curvature="0" />
  <path
     style="fill:none;stroke:#000000;stroke-width:0.29844999;stroke-linecap:butt;stroke-linejoin:miter;stroke-miterlimit:4;stroke-dasharray:none;stroke-opacity:1;marker-end:url(#Arrow1Mend)"
     d="m 21.62245,16.92705 18.073628,0.258936"
     id="path3852"
     inkscape:connector-curvature="0" />
  <path
     style="fill:none;stroke:#000000;stroke-width:0.26458332px;stroke-linecap:butt;stroke-linejoin:miter;stroke-opacity:1;marker-end:url(#marker5042)"
     d="m 20.684775,11.111204 2.364761,-0.86708"
     id="path5032"
     inkscape:connector-curvature="0" />
  <text
     xml:space="preserve"
     style="font-style:normal;font-weight:normal;font-size:3.52777767px;line-height:1.25;font-family:sans-serif;letter-spacing:0px;word-spacing:0px;fill:#000000;fill-opacity:1;stroke:none;stroke-width:0.26458332"
     x="12.171638"
     y="-9.5410385"
     id="text5082"><tspan
       sodipodi:role="line"
       id="tspan5080"
       x="12.171638"
       y="-9.5410385"
       style="stroke-width:0.26458332">+y</tspan></text>
  <text
     xml:space="preserve"
     style="font-style:normal;font-weight:normal;font-size:3.52777767px;line-height:1.25;font-family:sans-serif;letter-spacing:0px;word-spacing:0px;fill:#000000;fill-opacity:1;stroke:none;stroke-width:0.26458332"
     x="35.503941"
     y="20.333769"
     id="text5086"><tspan
       sodipodi:role="line"
       id="tspan5084"
       x="35.503941"
       y="20.333769"
       style="stroke-width:0.26458332">+x</tspan></text>
  <text
     xml:space="preserve"
     style="font-style:normal;font-weight:normal;font-size:3.52777767px;line-height:1.25;font-family:sans-serif;letter-spacing:0px;word-spacing:0px;fill:#000000;fill-opacity:1;stroke:none;stroke-width:0.26458332"
     x="78.193672"
     y="-87.262833"
     id="text5090"><tspan
       sodipodi:role="line"
       id="tspan5088"
       x="78.193672"
       y="-87.262833"
       style="stroke-width:0.26458332">1/4 &quot; thick Al block 2&quot;x4&quot;</tspan></text>
</svg>
